{"glyphs":{"0":{"ha":899,"x_min":-50,"x_max":949,"o":"m 563 374 q 567 408 565 392 q 569 442 569 425 q 569 465 569 453 q 543 482 568 476 q 468 450 521 488 q 420 408 443 432 q 375 357 397 385 q 304 233 332 301 q 281 133 276 164 q 288 110 282 117 q 300 100 293 103 q 315 98 307 97 q 332 99 324 99 q 401 124 365 99 q 469 188 436 149 q 526 276 501 228 q 563 374 551 325 m 46 -71 q -50 246 -50 46 q -9 488 -50 369 q 101 697 32 606 q 261 844 171 789 q 451 900 351 900 q 835 681 722 900 q 949 289 949 463 q 908 41 949 157 q 794 -161 868 -75 q 617 -297 721 -247 q 388 -346 514 -346 q 231 -307 294 -346 q 152 -229 199 -287 q 46 -71 106 -171 m 631 357 q 585 242 617 300 q 511 137 553 185 q 422 59 469 89 q 332 29 375 29 q 161 91 219 29 q 103 263 103 153 q 118 364 103 311 q 160 468 133 417 q 223 567 188 519 q 299 649 258 614 q 381 706 339 685 q 463 726 422 726 q 535 703 503 726 q 591 642 568 681 q 626 552 614 604 q 639 442 639 500 q 631 357 639 392 m 779 463 q 451 831 779 831 q 288 781 365 831 q 150 649 210 731 q 55 461 90 567 q 19 246 19 356 q 37 105 19 169 q 88 -7 54 40 q 170 -81 121 -54 q 283 -107 219 -107 q 487 -62 396 -107 q 643 59 578 -18 q 744 240 708 136 q 779 463 779 343 z "},"1":{"ha":593,"x_min":-51,"x_max":644,"o":"m 24 551 q 4 600 11 581 q -6 634 -3 619 q -11 659 -10 649 q -12 678 -12 669 l -12 692 q 313 900 -7 760 q 347 889 317 900 q 411 863 376 878 q 477 836 446 849 q 515 821 508 824 l 644 560 q 591 432 614 490 q 550 320 568 374 q 518 215 532 267 q 493 108 504 164 l 631 -69 l 533 -326 q 358 -310 442 -310 q 79 -386 197 -310 q -46 -96 -42 -136 q -50 -60 -49 -76 q -51 -29 -51 -43 q -40 37 -51 -3 q -1 121 -28 76 l 131 121 q 146 222 138 174 q 163 318 154 271 l 24 551 m 481 760 q 452 774 476 763 q 401 797 428 785 q 351 820 374 810 q 328 831 328 831 q 57 686 58 711 l 57 678 q 67 615 57 651 q 93 558 78 579 l 315 668 q 248 391 279 542 q 192 51 217 240 l 40 51 q 18 -42 18 13 q 19 -69 18 -54 q 24 -104 21 -85 q 254 -71 75 -71 q 388 -79 342 -71 l 432 39 l 421 39 q 395 40 411 39 q 363 44 379 42 q 334 47 347 46 q 317 49 321 49 q 303 48 310 49 q 289 46 296 47 q 317 249 303 163 q 353 414 332 336 q 404 573 374 492 q 481 760 435 654 z "},"2":{"ha":849,"x_min":-49,"x_max":900,"o":"m 443 554 q 416 550 429 553 q 392 544 403 547 q 369 503 365 538 q 415 396 374 468 q 491 458 461 431 q 521 504 521 486 q 518 525 519 515 q 515 544 517 535 q 443 554 496 554 m 58 -160 q 32 -36 32 -75 q 52 57 33 13 q 103 142 71 101 q -49 574 -49 444 q -24 729 -49 657 q 52 856 1 801 q 178 941 103 910 q 353 972 253 972 q 442 956 396 972 q 534 913 489 940 q 621 850 579 886 q 696 772 663 814 q 747 702 719 744 q 807 601 775 660 q 885 443 871 483 q 900 356 900 393 q 763 106 900 232 q 846 -169 839 -94 q 821 -258 851 -246 q 712 -290 776 -279 q 554 -308 647 -300 q 350 -339 436 -319 q 193 -390 264 -358 l 58 -160 m 731 529 q 694 658 731 592 q 603 778 658 724 q 482 868 549 833 q 353 903 415 903 q 208 877 269 903 q 104 806 146 851 q 42 701 63 761 q 21 574 21 642 q 69 340 21 474 q 135 360 107 351 q 194 379 163 368 q 278 410 240 396 q 317 436 317 425 l 317 438 q 310 460 317 443 q 295 496 304 478 q 277 529 286 514 q 264 547 268 544 l 135 483 q 90 604 90 549 q 114 673 90 639 q 174 733 138 707 q 254 775 211 758 q 336 793 297 792 l 353 793 q 517 726 461 793 q 590 513 572 660 l 590 504 q 554 427 590 465 q 465 348 518 389 q 348 264 411 307 q 231 174 285 221 q 140 74 176 126 q 101 -36 103 22 q 122 -129 101 -82 q 244 -95 165 -110 q 444 -69 322 -81 q 619 -50 557 -58 q 694 -31 682 -42 q 683 19 689 -7 q 670 69 676 46 q 656 112 664 93 q 640 139 649 131 l 293 7 q 286 29 286 18 q 311 73 286 44 q 373 135 336 101 q 453 203 410 168 q 533 267 496 239 q 593 312 569 294 q 615 328 617 329 q 731 529 731 435 z "},"3":{"ha":900,"x_min":-51,"x_max":949,"o":"m 286 82 q 291 74 289 78 q 296 68 293 71 l 286 82 m 8 -11 q -35 60 -19 21 q -51 143 -51 99 q -26 210 -51 186 q -11 301 -3 233 l 122 579 l 50 700 l 32 722 q 103 801 58 765 q 201 863 147 838 q 315 903 256 889 q 429 918 374 918 q 564 901 497 918 q 687 855 631 885 q 784 785 743 825 q 840 697 825 744 l 922 561 q 949 474 949 518 q 940 402 949 433 q 913 346 931 371 q 896 324 906 335 q 872 300 886 313 q 863 192 849 281 q 897 103 885 149 q 908 -15 908 57 q 869 -144 908 -86 q 771 -244 831 -203 q 640 -308 711 -285 q 504 -331 568 -331 q 374 -317 438 -331 q 254 -281 310 -304 q 157 -222 199 -258 q 8 -11 114 -187 m 779 647 q 749 726 779 689 q 668 790 718 763 q 556 833 618 817 q 429 849 493 849 q 333 840 381 849 q 242 815 285 831 q 167 776 200 799 q 118 728 135 754 l 206 625 q 285 699 254 672 q 338 740 315 726 q 383 757 361 754 q 439 760 406 760 q 544 723 506 760 q 582 619 582 686 q 571 542 582 575 q 531 487 560 508 q 453 455 503 465 q 328 444 404 444 q 154 488 235 444 l 99 371 l 382 371 q 445 358 411 371 q 508 323 479 344 q 557 275 538 301 q 576 222 576 249 q 385 63 576 63 l 350 63 q 294 66 324 63 q 238 83 265 69 q 183 125 210 97 q 135 203 157 153 q 102 194 122 199 q 63 183 82 190 q 31 167 44 176 q 18 143 18 157 q 50 47 18 90 q 135 -27 82 4 q 257 -75 188 -58 q 400 -92 326 -92 q 514 -74 454 -92 q 624 -23 574 -56 q 706 56 674 10 q 739 158 739 101 q 731 254 739 214 q 703 326 722 294 q 653 383 685 357 q 576 436 622 408 q 657 478 619 458 q 722 522 694 499 q 764 576 749 546 q 779 647 779 606 z "},"4":{"ha":1024,"x_min":-56,"x_max":1082,"o":"m 961 456 l 961 447 l 1061 281 q 1063 215 1063 244 q 1067 157 1064 185 q 1075 100 1069 129 q 722 35 1082 72 l 618 -379 l 296 -362 l 186 -193 l 199 -11 l -56 433 l 240 826 l 414 735 l 460 918 l 636 949 q 681 933 660 949 q 708 888 701 917 l 800 736 q 813 686 813 715 q 817 631 813 671 q 828 524 821 590 q 878 522 860 524 q 906 519 897 521 l 961 456 m 892 451 q 871 453 886 453 q 828 454 856 454 q 596 450 754 454 q 631 740 619 642 q 643 860 643 839 q 640 879 643 879 l 486 851 q 424 450 488 851 l 199 417 q 197 419 197 418 q 379 674 197 442 l 260 736 l 28 428 l 131 233 l 397 276 l 278 -128 l 464 -137 l 567 274 l 899 276 q 896 324 897 281 q 892 451 894 368 z "},"5":{"ha":843,"x_min":-50,"x_max":893,"o":"m 24 7 l 24 8 l 24 7 m 22 11 q 24 8 22 8 l 22 11 m 268 182 q 271 176 268 179 l 268 182 m 372 8 q 368 15 369 11 l 372 8 m 796 672 q 801 660 800 665 q 801 643 801 654 q 793 622 801 640 q 771 578 785 604 q 742 519 758 550 q 734 451 725 488 q 763 367 743 414 l 839 240 q 893 21 893 149 q 868 -119 893 -57 q 796 -226 843 -182 q 681 -295 749 -271 q 529 -321 614 -319 l 521 -321 q 121 -153 222 -321 l 39 -18 q -36 222 -36 71 q -14 363 -36 290 l -50 408 l 150 903 q 264 874 218 883 q 336 865 310 865 q 455 872 376 865 q 656 892 533 879 q 697 831 663 885 q 796 672 732 776 m 724 194 q 203 565 724 553 q 202 567 203 567 q 201 569 201 568 q 208 597 201 578 q 223 636 214 615 q 241 674 232 657 q 256 694 250 690 l 271 694 q 328 693 294 694 q 392 690 361 692 q 445 687 424 689 q 467 683 467 685 q 463 666 467 679 q 453 638 458 653 q 444 611 449 624 q 440 594 440 599 l 554 567 q 562 581 556 564 q 577 626 568 599 q 595 685 586 653 q 613 747 604 718 q 626 795 621 775 q 632 817 632 815 q 631 818 632 818 q 576 814 631 819 q 449 801 528 808 q 384 797 413 799 q 336 796 356 796 q 192 818 264 796 l 54 478 q 309 464 203 478 q 483 420 415 450 q 583 344 551 390 q 615 236 615 299 q 560 100 615 142 q 371 58 506 58 q 231 119 283 58 q 175 289 178 181 q 163 347 175 340 l 51 344 q 33 222 33 296 q 417 -82 33 -82 l 425 -82 q 644 -6 564 -79 q 724 194 724 68 z "},"6":{"ha":857,"x_min":-53,"x_max":910,"o":"m 268 107 q 269 104 268 106 l 268 107 m 910 508 q 740 483 822 504 q 661 438 661 464 q 704 375 661 413 q 811 222 749 339 q 875 49 875 108 q 850 -126 875 -54 q 773 -244 825 -197 q 642 -314 721 -290 q 454 -343 563 -337 l 432 -343 q 246 -296 324 -343 q 119 -169 168 -249 q -28 88 -3 11 q -53 254 -53 164 l -53 263 q -27 410 -53 333 q 43 559 -1 486 q 147 697 88 632 q 273 812 206 763 q 412 890 340 861 q 553 919 483 919 l 910 508 m 535 140 q 517 90 535 113 q 470 51 499 68 q 408 26 442 35 q 342 17 374 17 q 194 140 194 17 q 210 194 194 171 q 252 235 226 218 q 311 260 278 251 q 379 269 344 269 q 535 140 535 269 m 706 222 q 642 335 706 294 q 472 376 578 376 q 194 299 314 376 q 237 474 200 394 q 334 612 274 554 q 474 703 394 669 q 644 740 554 736 l 525 850 q 407 824 467 850 q 290 755 347 799 q 184 652 233 711 q 97 528 135 593 q 38 394 60 463 q 17 263 17 326 l 17 254 q 38 113 17 179 q 99 -1 60 47 q 197 -76 139 -49 q 328 -104 254 -104 l 349 -104 q 508 -80 440 -100 q 619 -21 575 -60 q 684 78 663 18 q 706 222 706 138 z "},"7":{"ha":894,"x_min":-49,"x_max":956,"o":"m -25 572 q 21 666 -6 611 q 73 774 47 721 q 119 872 99 828 q 149 932 140 915 l 856 894 l 856 883 l 956 717 l 956 650 l 956 619 q 956 606 956 613 q 954 592 956 599 q 904 478 953 536 q 853 424 881 449 q 794 374 825 399 q 733 323 764 349 q 674 268 703 297 q 561 141 614 208 q 469 5 508 74 q 406 -131 429 -64 q 383 -253 383 -197 l 383 -265 l 383 -279 q 384 -309 383 -293 q 385 -337 385 -325 l 385 -353 l 60 -300 l -49 -131 l -49 -62 q -31 31 -49 -22 q 19 143 -12 83 q 94 267 51 203 q 188 394 138 331 l 86 403 l -25 572 m 783 682 q 784 742 783 706 q 786 828 785 778 l 192 860 q 83 635 160 790 l 276 621 q 279 660 278 638 q 283 704 281 683 q 288 740 285 725 q 299 754 292 754 q 384 746 343 750 q 461 739 425 742 q 522 733 492 736 q 574 726 551 729 q 611 719 597 722 q 625 714 625 715 l 624 713 q 504 632 569 686 q 372 508 439 578 q 242 359 306 439 q 130 201 179 279 q 51 55 81 124 q 21 -62 21 -14 l 21 -71 l 215 -103 q 215 -91 215 -96 q 214 -79 214 -86 q 239 54 214 -18 q 306 201 264 126 q 405 350 349 276 q 524 488 461 424 q 654 602 588 551 q 783 682 721 653 z "},"8":{"ha":1139,"x_min":-51,"x_max":1192,"o":"m 651 243 q 501 204 553 243 q 464 135 449 167 q 496 104 478 104 q 592 113 546 104 q 676 138 639 122 q 740 176 714 154 q 746 221 767 199 q 651 243 725 243 m 999 513 q 1006 456 993 479 q 1038 403 1018 435 q 1072 340 1058 372 l 1151 210 q 1192 82 1192 144 q 1137 -96 1192 -12 q 997 -241 1082 -179 q 807 -338 911 -303 q 604 -374 703 -374 q 465 -351 538 -374 q 323 -288 392 -328 q 196 -196 254 -249 q 101 -83 138 -143 l 24 44 q -28 133 -4 89 q -51 224 -51 176 l -51 236 q -31 326 -51 281 q 22 411 -11 371 q 97 488 50 446 q 131 593 140 522 q 124 658 126 631 q 122 707 121 685 q 129 749 124 729 q 147 792 135 769 q 197 847 167 822 q 266 890 228 872 q 349 918 304 908 q 439 928 393 928 l 450 928 q 604 910 529 925 q 739 869 679 894 q 840 811 801 846 q 940 671 882 778 q 999 513 999 564 m 856 263 q 826 171 856 213 q 748 99 797 129 q 633 52 699 69 q 496 35 568 35 q 261 243 261 35 q 279 335 261 292 q 333 412 297 379 q 423 463 369 444 q 547 482 476 482 q 775 426 694 482 q 856 263 856 371 m 658 683 q 637 638 658 661 q 583 597 615 615 q 513 565 551 578 q 442 553 475 553 q 328 585 374 553 q 283 676 283 618 l 283 681 q 421 778 288 778 q 499 769 457 778 q 576 747 540 760 q 635 717 611 733 q 658 683 658 700 m 1022 256 q 991 354 1022 303 q 913 448 960 406 q 810 518 867 490 q 704 547 754 546 q 829 707 826 586 l 829 708 q 797 765 829 739 q 713 811 765 792 q 591 843 660 831 q 449 858 522 856 l 439 858 q 346 847 390 858 q 267 814 301 835 q 211 764 232 793 q 190 701 190 735 q 319 524 190 615 q 228 498 281 524 q 130 432 176 472 q 51 340 83 392 q 18 236 18 288 q 40 144 18 190 q 98 58 61 99 q 183 -19 135 17 q 285 -80 232 -54 q 394 -120 339 -106 q 500 -135 450 -135 q 680 -104 588 -135 q 849 -21 772 -74 q 974 103 925 32 q 1022 256 1022 174 z "},"9":{"ha":1069,"x_min":-43,"x_max":1113,"o":"m -43 -214 l -43 410 l 164 410 q 103 506 125 451 q 81 619 81 561 q 117 737 81 678 q 210 844 154 796 q 331 924 265 893 q 457 954 397 954 q 627 933 546 954 q 776 872 708 911 q 894 776 843 832 q 975 649 944 719 l 1047 529 q 1096 417 1079 476 q 1113 288 1113 358 q 1093 131 1113 208 q 1037 -17 1074 54 q 949 -148 1000 -87 q 835 -253 899 -208 q 699 -322 772 -297 q 544 -347 625 -347 l 529 -347 q 453 -329 488 -346 q 386 -287 418 -312 q 324 -231 354 -261 q 260 -172 293 -201 l 65 -378 l -43 -214 m 732 593 q 716 559 732 578 q 674 522 700 540 q 615 484 647 503 q 551 451 583 465 q 491 429 519 438 q 444 421 463 421 l 442 421 q 383 439 413 422 q 330 482 353 456 q 292 540 307 508 q 278 601 278 571 q 297 663 278 635 q 347 713 317 692 q 413 747 378 735 q 479 760 447 760 q 581 749 535 760 q 661 716 628 738 q 713 663 694 694 q 732 593 732 632 m 943 461 q 906 635 943 557 q 802 768 868 713 q 647 854 736 824 q 457 885 558 885 q 354 860 408 885 q 255 798 300 836 q 180 713 210 760 q 150 619 150 665 q 174 515 150 567 q 237 424 199 464 q 324 358 275 383 q 424 333 374 333 q 549 341 496 333 q 644 369 601 349 q 726 424 688 389 q 807 511 764 458 q 808 496 807 504 q 808 481 808 488 q 778 315 808 400 q 700 159 749 229 q 589 44 651 89 q 460 -1 526 -1 q 232 142 333 -1 l 376 204 l 39 314 l 39 -37 l 150 88 q 225 28 190 61 q 293 -35 260 -6 q 358 -86 326 -65 q 426 -108 390 -107 l 440 -108 q 639 -59 547 -108 q 799 71 731 -10 q 905 253 867 151 q 943 461 943 356 z "},"!":{"ha":301,"x_min":-50,"x_max":347,"o":"m -18 -62 q -37 -7 -37 -17 q -12 69 -37 33 q 42 140 14 106 q 8 217 25 163 q -21 340 -8 271 q -42 485 -33 410 q -50 624 -50 560 q -40 740 -50 688 q -7 838 -31 793 q 294 686 242 806 q 347 556 347 561 l 332 -21 l 332 -146 q 315 -196 332 -169 q 276 -244 299 -222 q 228 -281 253 -267 q 189 -296 204 -296 q 131 -274 161 -296 q 85 -224 101 -251 l -18 -62 m 163 28 q 151 58 163 43 q 119 74 140 74 q 59 49 86 74 q 32 -7 32 24 q 50 -40 32 -22 q 85 -57 68 -57 q 106 -49 93 -57 q 132 -28 119 -40 q 153 -1 144 -15 q 163 28 163 14 m 178 731 q 33 763 178 743 q 19 624 19 736 q 24 497 19 564 q 38 372 29 431 q 56 269 46 313 q 75 211 65 225 l 164 215 l 178 731 z "},"\"":{"ha":613,"x_min":-56,"x_max":663,"o":"m 663 538 l 642 569 l 643 569 l 663 538 m 657 553 q 663 538 663 543 q 631 407 663 510 q 535 254 592 303 q 417 189 479 206 q 360 207 396 210 q 199 178 324 204 l -56 772 q -15 786 -49 776 q 57 806 18 796 q 130 824 96 817 q 172 832 164 832 l 192 832 q 243 761 224 818 l 286 689 q 331 794 306 751 q 379 836 356 836 q 426 822 396 836 q 488 789 457 808 q 516 769 503 779 q 540 747 529 758 q 657 553 563 726 m 204 510 q 179 763 204 751 l 172 763 q 142 760 165 763 q 95 753 119 757 q 51 745 71 749 q 28 740 31 742 l 136 428 q 204 510 204 442 m 493 711 q 479 728 493 718 q 447 746 465 738 q 408 760 428 754 q 379 767 389 767 q 359 738 369 767 q 340 666 349 708 q 326 576 332 624 q 321 493 321 529 q 332 435 321 446 q 399 481 365 444 q 465 603 433 517 q 493 711 493 693 z "},"'":{"ha":276,"x_min":-61,"x_max":328,"o":"m 304 603 l 328 293 q 242 240 276 261 q 188 211 207 219 l 85 381 l -61 713 q -42 763 -61 736 q 6 813 -22 790 q 62 851 33 836 q 110 867 90 867 q 140 853 124 867 q 173 819 157 839 q 202 777 189 800 q 222 738 215 754 l 304 603 m 158 718 q 153 738 158 725 q 141 765 149 751 q 125 788 133 778 q 110 797 117 797 q 81 790 99 797 q 48 773 64 783 q 20 750 32 763 q 8 726 8 738 l 117 471 q 135 480 125 474 q 158 493 146 486 l 158 718 z "},",":{"ha":339,"x_min":-53,"x_max":393,"o":"m 15 -185 q 40 -131 40 -168 l -10 -49 q -41 3 -29 -25 q -53 58 -53 31 q 107 196 -53 196 q 218 161 171 196 q 368 -68 264 125 q 386 -111 379 -89 q 393 -160 393 -133 q 372 -230 393 -194 q 313 -295 350 -265 q 226 -347 276 -325 q 117 -375 175 -368 l 15 -185 m 224 14 q 190 94 224 63 q 107 126 156 126 q 17 58 17 126 q 24 24 17 42 q 42 -7 31 7 q 69 -30 54 -21 q 101 -39 85 -39 q 149 -18 125 -39 q 150 -31 150 -19 q 122 -122 150 -58 q 162 -107 143 -119 q 194 -75 181 -94 q 216 -33 208 -56 q 224 14 224 -10 z "},"-":{"ha":703,"x_min":-46,"x_max":753,"o":"m 753 178 q 720 85 742 132 q 671 18 699 39 q 564 19 613 18 q 488 19 515 19 l 438 19 q 392 17 419 19 q 322 12 365 15 q 216 2 279 8 q 63 -12 153 -4 q -36 267 -46 211 q -24 319 -31 294 q -8 367 -18 344 q 33 441 10 413 q 86 469 57 469 l 260 469 q 324 469 294 469 q 400 457 353 468 l 399 457 q 476 447 431 453 q 593 435 522 442 l 753 178 m 585 365 q 440 382 493 375 q 356 393 388 389 q 304 399 324 397 q 260 400 285 400 l 86 400 q 61 385 72 400 q 42 345 50 369 q 28 292 33 321 q 24 233 24 263 q 164 247 114 242 q 242 254 214 251 q 289 258 271 257 q 333 258 307 258 q 409 258 361 258 q 544 257 457 257 q 565 297 554 264 q 585 365 576 329 z "},"­":{"ha":703,"x_min":-46,"x_max":753,"o":"m 753 178 q 720 85 742 132 q 671 18 699 39 q 564 19 613 18 q 488 19 515 19 l 438 19 q 392 17 419 19 q 322 12 365 15 q 216 2 279 8 q 63 -12 153 -4 q -36 267 -46 211 q -24 319 -31 294 q -8 367 -18 344 q 33 441 10 413 q 86 469 57 469 l 260 469 q 324 469 294 469 q 400 457 353 468 l 399 457 q 476 447 431 453 q 593 435 522 442 l 753 178 m 585 365 q 440 382 493 375 q 356 393 388 389 q 304 399 324 397 q 260 400 285 400 l 86 400 q 61 385 72 400 q 42 345 50 369 q 28 292 33 321 q 24 233 24 263 q 164 247 114 242 q 242 254 214 251 q 289 258 271 257 q 333 258 307 258 q 409 258 361 258 q 544 257 457 257 q 565 297 554 264 q 585 365 576 329 z "},".":{"ha":260,"x_min":-62,"x_max":314,"o":"m -19 -79 q -53 -23 -44 -54 q -42 47 -62 8 q 42 129 -18 103 q 108 143 68 143 q 172 117 146 143 q 256 -12 199 89 q 314 -142 314 -115 q 297 -196 314 -169 q 257 -244 281 -222 q 210 -281 235 -267 q 164 -296 186 -296 q 113 -274 143 -296 q 65 -215 97 -262 q -19 -79 32 -167 m 144 28 q 133 58 144 43 q 101 74 122 74 q 41 49 68 74 q 14 -7 14 24 q 32 -39 14 -22 q 63 -57 50 -57 q 88 -49 75 -57 q 126 -15 107 -37 q 144 28 144 7 z "},"/":{"ha":797,"x_min":-62,"x_max":860,"o":"m 761 799 l 860 624 l 217 -231 l 49 -125 l -62 47 l 571 897 l 761 799 m 592 808 l 39 67 l 96 31 l 657 775 l 592 808 z "},":":{"ha":268,"x_min":-51,"x_max":318,"o":"m -17 169 q -42 206 -32 188 q -51 243 -51 225 q -38 298 -51 271 q -3 346 -25 325 q 47 380 18 367 q 106 393 75 393 q 176 367 150 393 q 213 308 203 340 l 301 163 q 318 104 318 135 q 299 47 318 79 q 301 -87 279 13 q 318 -146 318 -115 q 301 -196 318 -169 q 262 -244 285 -222 q 215 -281 239 -267 q 175 -296 190 -296 q 117 -274 147 -296 q 71 -224 88 -251 l -15 -79 q -42 -43 -32 -62 q -51 -7 -51 -24 q -32 58 -51 26 q -8 157 -12 97 l -17 169 m 149 28 q 138 58 149 43 q 106 74 126 74 q 45 49 72 74 q 18 -7 18 24 q 36 -40 18 -22 q 71 -57 54 -57 q 92 -49 79 -57 q 118 -28 106 -40 q 140 -1 131 -15 q 149 28 149 14 m 149 278 q 138 308 149 293 q 106 324 126 324 q 45 299 72 324 q 18 243 18 274 q 36 210 18 228 q 71 193 54 193 q 94 201 81 193 q 119 222 107 210 q 140 250 132 235 q 149 278 149 265 z "},";":{"ha":340,"x_min":-51,"x_max":396,"o":"m 1 -208 q 12 -186 7 -197 q 22 -165 17 -175 q -7 -50 32 -147 q -51 58 -51 3 q 4 172 -51 139 q -29 243 -29 207 q -16 298 -29 271 q 19 346 -3 325 q 69 380 40 367 q 128 393 97 393 q 199 367 172 393 q 235 308 225 340 l 324 163 q 340 104 340 135 q 332 69 340 88 q 371 -67 324 50 q 389 -110 382 -86 q 396 -160 396 -133 q 374 -227 396 -192 q 313 -293 351 -262 q 222 -347 274 -324 q 113 -376 171 -369 l 1 -208 m 226 14 q 192 94 226 63 q 108 126 158 126 q 18 58 18 126 q 25 25 18 42 q 44 -6 32 8 q 71 -30 56 -21 q 103 -39 86 -39 q 150 -18 126 -39 q 151 -32 151 -19 q 125 -122 151 -71 q 165 -106 146 -119 q 197 -74 183 -93 q 218 -31 210 -54 q 226 14 226 -8 m 171 278 q 160 308 171 293 q 128 324 149 324 q 67 299 94 324 q 40 243 40 274 q 58 210 40 228 q 93 193 76 193 q 116 201 103 193 q 142 222 129 210 q 163 250 154 235 q 171 278 171 265 z "},"=":{"ha":715,"x_min":-44,"x_max":763,"o":"m 763 428 q 751 388 757 408 q 736 349 744 368 q 763 178 719 308 q 749 131 757 154 q 730 85 740 107 q 707 45 719 63 q 682 18 694 28 q 474 9 574 14 q 292 0 374 4 q 152 -8 210 -4 q 72 -12 94 -11 l -36 157 q -44 404 -36 285 q 65 718 -21 628 q 92 719 76 718 q 126 720 108 719 q 160 722 143 721 q 189 722 176 722 q 607 683 375 722 l 763 428 m 594 365 q 476 374 535 371 q 332 381 417 378 l 283 381 q 78 376 204 381 q 33 233 33 376 q 206 244 78 238 q 554 257 333 250 q 575 297 564 264 q 594 365 586 329 m 594 615 q 189 653 367 653 q 142 652 165 653 q 96 650 118 651 q 33 483 46 597 q 256 500 126 494 q 554 507 386 506 q 575 547 564 514 q 594 615 586 579 z "},"?":{"ha":749,"x_min":-53,"x_max":807,"o":"m 349 478 q 413 538 413 519 q 390 551 413 556 q 349 536 375 547 q 318 510 331 526 q 349 478 306 492 m 803 554 l 807 492 q 794 349 807 404 q 744 249 782 293 q 640 165 707 206 q 463 67 572 124 q 431 22 431 50 q 430 -13 431 8 q 428 -65 429 -35 q 390 -140 425 -126 q 444 -242 438 -208 q 442 -362 460 -312 q 397 -434 426 -407 q 328 -461 367 -461 q 272 -444 297 -461 q 171 -297 250 -431 q 96 -128 96 -167 q 136 -3 96 -47 l 113 36 q 72 164 72 72 q 89 268 72 222 q -47 575 -40 456 q -15 757 -53 688 q 53 844 13 807 q 143 905 94 881 q 244 941 192 929 q 350 953 297 953 q 463 936 408 953 q 563 890 518 919 q 640 822 607 861 q 699 735 658 803 q 803 554 739 668 m 282 -128 q 265 -60 282 -87 q 224 -32 247 -32 q 182 -60 199 -32 q 165 -128 165 -87 q 182 -194 165 -167 q 224 -222 199 -222 q 265 -194 247 -222 q 282 -128 282 -167 m 189 481 q 146 549 161 514 q 131 621 131 583 q 147 698 131 665 q 191 752 164 731 q 254 784 218 774 q 329 794 290 794 q 405 782 369 794 q 467 747 440 769 q 510 691 494 724 q 525 617 525 658 q 474 489 525 546 q 344 399 424 432 q 191 305 240 357 q 142 164 142 253 q 197 76 142 76 q 286 103 244 78 q 261 196 261 154 q 328 299 261 263 q 488 385 428 350 q 582 458 549 421 q 626 542 615 494 q 638 664 638 589 q 613 749 638 708 q 548 819 589 789 q 456 866 507 849 q 350 883 404 883 q 232 866 292 883 q 124 813 172 849 q 47 724 76 778 q 17 597 17 669 q 37 483 17 535 q 106 386 57 432 q 133 400 118 389 q 160 428 146 410 q 189 481 174 447 z "},"A":{"ha":1072,"x_min":-3,"x_max":1144,"o":"m 757 -115 q 756 -112 756 -114 l 757 -115 m 128 493 q 133 482 129 486 l 128 493 m 497 504 q 450 475 468 504 l 454 460 q 500 447 481 457 q 535 458 519 439 q 538 491 550 478 q 497 504 526 504 m 1144 -190 q 1126 -304 1135 -264 q 1099 -365 1117 -344 q 1051 -389 1082 -385 q 969 -393 1021 -393 l 958 -393 q 668 -308 724 -390 l 639 -261 q 361 -374 515 -374 q 154 -269 217 -374 q -3 54 -3 -50 q 13 194 -3 153 q 84 299 38 249 q 190 388 131 350 l 151 454 q 122 497 136 472 q 97 545 107 521 q 80 591 86 569 q 74 625 74 613 q 108 743 74 686 q 194 844 142 800 q 311 914 247 888 q 435 940 375 940 q 631 883 549 940 q 828 607 714 828 q 882 382 883 515 q 881 350 881 365 q 881 321 881 335 l 881 275 l 881 221 q 883 158 882 192 q 888 89 885 124 q 1026 38 985 81 l 1144 -190 m 467 210 q 444 156 467 188 q 392 97 422 125 q 331 48 363 68 q 282 28 300 28 q 193 122 193 28 q 256 215 193 181 q 422 250 318 250 q 450 236 433 250 q 467 210 467 222 m 975 -8 q 725 21 947 21 q 726 37 725 28 q 726 60 726 46 q 726 99 726 75 q 724 153 725 122 q 722 217 722 185 q 718 281 721 249 q 715 361 717 313 q 711 476 714 410 q 693 689 714 639 q 638 786 675 744 q 549 849 601 826 q 435 871 497 871 q 335 851 386 871 q 241 796 283 831 q 171 717 199 761 q 143 625 143 672 q 147 594 143 614 q 158 556 151 575 q 174 520 165 536 q 190 500 182 504 l 307 535 q 393 743 311 743 q 485 724 443 743 q 556 671 526 704 q 603 591 586 638 q 619 490 619 544 q 615 446 619 474 q 602 391 610 418 q 585 344 594 364 q 565 325 575 325 q 481 371 521 353 q 390 392 440 389 q 290 367 346 392 q 185 304 235 343 q 100 218 138 268 q 67 18 67 169 q 257 -135 67 -135 q 441 -80 357 -135 q 597 93 525 -25 q 644 163 640 165 q 653 100 653 150 q 632 -118 653 17 q 854 -154 656 -151 l 865 -154 q 915 -151 896 -154 q 944 -134 933 -149 q 962 -90 956 -119 q 975 -8 968 -61 z "},"B":{"ha":960,"x_min":-49,"x_max":1024,"o":"m -40 -157 l -49 -153 q -38 -96 -42 -112 q -35 -76 -35 -79 l -33 -76 q -26 -34 -31 -56 q -14 10 -21 -12 q -8 215 -1 49 q -44 339 -44 247 q 44 472 -44 472 l 163 468 l 111 554 l 107 553 l 71 722 q 103 753 72 733 q 182 794 135 772 q 287 838 229 815 q 400 878 344 860 q 501 908 456 897 q 571 919 547 919 q 789 874 701 919 q 908 740 876 828 l 992 603 q 1024 479 1024 546 q 1009 433 1024 460 q 969 376 994 407 q 915 314 946 344 q 878 254 885 282 q 879 203 871 226 l 965 60 q 986 -7 986 26 q 929 -156 986 -87 q 778 -276 872 -225 q 564 -355 685 -326 q 317 -383 443 -383 q 60 -324 174 -383 l -40 -157 m 674 146 q 658 104 674 126 q 619 59 643 82 q 564 16 594 36 q 504 -20 533 -4 q 449 -46 475 -36 q 408 -56 424 -56 q 372 47 372 -56 q 376 165 372 122 q 388 229 379 208 q 412 255 397 250 q 449 260 426 260 q 519 249 481 260 q 593 223 558 239 q 651 187 628 207 q 674 146 674 167 m 667 639 q 636 555 667 600 q 562 471 606 510 q 469 406 518 432 q 386 381 421 381 l 383 381 q 379 463 379 410 q 387 588 379 531 q 410 685 394 644 q 449 747 426 725 q 503 769 472 769 q 556 756 528 769 q 610 724 585 743 q 651 681 635 704 q 667 639 667 658 m 854 653 q 834 735 854 699 q 776 798 814 772 q 687 837 739 824 q 571 850 635 850 q 509 842 549 850 q 422 824 469 835 q 326 798 375 813 q 236 769 276 783 q 169 743 196 756 q 142 724 143 731 l 158 643 l 282 683 q 290 646 290 683 q 283 531 290 593 q 263 394 276 469 l 43 403 q 25 339 25 403 q 35 267 25 267 q 76 279 43 271 q 144 296 108 288 q 211 310 181 304 q 247 317 242 317 q 257 290 257 317 l 257 238 q 253 74 257 146 q 250 -24 250 3 l 250 -36 l 65 32 q 44 -31 51 10 q 29 -114 36 -72 q 213 -144 89 -144 q 435 -121 326 -144 q 629 -56 544 -97 q 765 43 714 -14 q 817 167 817 100 q 797 215 817 189 q 743 268 778 242 q 706 295 726 282 q 663 321 686 308 q 594 357 614 346 q 599 385 574 368 q 674 441 631 406 q 758 515 718 476 q 826 590 799 553 q 854 653 854 628 z "},"C":{"ha":1042,"x_min":-71,"x_max":1179,"o":"m 988 10 q 927 -149 976 -76 q 808 -274 878 -221 q 655 -358 738 -328 q 496 -387 572 -387 q 383 -369 436 -387 q 283 -320 329 -351 q 197 -246 236 -289 q 129 -153 158 -203 l 64 -43 q -37 140 -3 40 q -71 338 -71 240 l -71 363 q -69 385 -71 382 q -26 601 -58 506 q 57 763 7 696 q 174 866 107 829 q 321 907 242 903 q 349 908 324 908 l 406 908 q 538 892 475 908 q 619 865 585 881 q 676 832 653 849 q 715 799 700 815 q 740 772 731 783 l 910 899 q 951 876 929 894 q 977 858 964 868 q 1004 833 990 847 q 1060 759 1018 822 q 1172 582 1101 696 q 1179 569 1176 578 l 843 278 q 717 390 764 350 q 641 450 671 431 q 590 474 611 469 q 540 478 568 478 q 425 435 476 478 q 339 294 374 392 q 324 237 328 267 q 319 176 319 207 q 359 60 322 90 q 450 35 396 29 q 494 54 469 35 q 541 99 518 74 q 581 150 564 125 q 606 186 599 175 q 635 238 617 206 q 676 310 654 269 q 738 297 706 306 q 800 272 771 288 q 853 235 829 258 q 898 167 864 224 q 988 10 932 111 m 997 763 q 985 779 994 769 q 965 798 976 789 q 943 815 954 807 q 925 824 932 822 l 724 674 q 700 720 722 692 q 635 775 678 749 q 529 820 593 801 q 379 839 465 839 l 353 839 l 332 839 q 279 831 313 839 q 201 799 246 824 q 56 631 114 747 q -1 338 -1 514 q 26 169 -1 256 q 106 13 54 83 q 229 -103 157 -58 q 392 -149 301 -149 q 529 -124 458 -149 q 660 -56 600 -100 q 763 47 721 -12 q 815 176 806 107 q 774 217 804 204 q 715 235 743 231 q 681 174 706 218 q 620 84 656 131 q 541 1 585 38 q 450 -35 497 -35 q 338 -12 392 -35 q 242 58 283 11 q 175 178 200 106 q 150 350 150 251 q 166 470 150 415 q 207 567 182 525 q 263 640 232 610 q 322 688 293 671 q 381 711 351 706 q 436 717 410 717 q 504 711 475 717 q 565 687 533 706 q 637 633 596 668 q 740 540 678 599 l 997 763 z "},"D":{"ha":1019,"x_min":-44,"x_max":1069,"o":"m 588 436 l 588 321 l 588 269 l 588 244 q 588 232 588 238 q 586 221 588 226 q 675 310 639 261 q 713 399 711 360 q 697 458 714 438 q 650 496 683 481 q 603 506 619 511 q 588 481 588 501 l 588 436 m 218 999 q 608 952 457 990 q 840 833 758 914 q 965 650 894 781 q 1053 433 1038 518 q 1069 239 1069 347 l 1069 231 q 1025 -2 1068 100 q 899 -174 982 -104 q 697 -281 817 -244 q 421 -318 576 -318 l 65 -318 l -44 -143 l 13 117 q 125 121 76 121 q 218 147 204 121 q 236 281 232 169 q 240 536 240 386 l 82 540 l -28 710 q 3 858 -10 800 q 29 948 15 915 q 60 993 43 981 q 103 1006 76 1006 l 122 1006 q 167 1002 142 1006 q 215 999 192 999 l 218 999 m 783 406 q 745 294 782 351 q 653 190 708 238 q 531 109 597 142 q 403 71 464 76 q 414 243 410 111 q 418 610 418 375 q 413 768 418 758 q 553 739 486 768 q 672 661 621 710 q 753 547 722 613 q 783 411 783 482 l 783 406 m 215 929 q 188 931 203 929 q 160 933 174 932 q 136 935 146 933 q 122 936 126 936 l 103 936 q 93 930 97 936 q 85 907 89 924 q 74 861 81 890 q 58 786 68 832 l 275 803 q 310 536 310 804 q 306 259 310 372 q 292 75 301 146 q 69 50 289 64 l 42 -75 l 317 -79 q 565 -49 460 -82 q 746 47 671 -15 q 860 201 821 111 q 899 421 899 290 q 870 647 900 553 q 763 801 840 740 q 552 892 685 861 q 215 929 419 922 z "},"E":{"ha":1013,"x_min":-18,"x_max":1065,"o":"m 535 89 q 671 222 626 89 l 501 92 q 513 90 508 90 q 518 89 517 89 l 535 89 m 965 250 l 1065 83 l 1065 51 q 1041 -49 1065 4 q 976 -153 1017 -101 q 882 -252 936 -204 q 768 -337 828 -300 q 646 -396 708 -374 q 526 -419 583 -418 l 511 -419 q 312 -369 399 -419 q 171 -226 225 -318 l 101 -110 q 13 57 43 -39 q -18 271 -18 153 q 24 532 -18 410 q 142 750 67 654 q 313 900 214 843 q 500 956 410 956 q 640 940 583 956 q 790 839 738 910 q 823 788 801 824 q 875 700 844 753 q 924 608 906 647 q 947 544 942 569 q 829 344 960 496 q 965 250 901 313 m 251 340 q 219 351 225 339 q 219 451 213 364 q 230 531 222 496 q 251 592 238 565 q 330 690 278 644 q 461 749 382 736 q 574 739 535 763 q 640 663 608 717 l 251 340 m 896 228 q 763 303 822 292 q 694 92 753 164 q 535 19 635 19 q 438 38 486 19 q 351 88 390 57 q 288 159 313 119 q 261 242 263 199 l 792 653 q 774 732 786 690 q 733 808 763 774 q 652 864 704 842 q 514 886 600 886 q 340 836 426 886 q 190 701 254 786 q 89 505 126 617 q 51 271 51 393 q 76 88 51 171 q 147 -54 101 6 q 197 -106 169 -82 q 258 -147 224 -129 q 399 -180 326 -181 q 526 -160 471 -179 q 661 -92 594 -136 q 780 5 728 -49 q 864 116 832 58 q 896 225 896 174 l 896 228 z "},"F":{"ha":976,"x_min":-106,"x_max":1097,"o":"m 558 -28 q 557 -26 558 -26 l 557 -25 l 558 -28 m 457 142 q 458 138 457 139 l 457 142 m 688 133 l 692 125 l 632 225 q 599 228 615 226 q 565 229 582 229 q 558 188 561 211 q 553 132 556 164 q 574 133 572 132 l 649 133 q 653 114 650 121 l 749 -44 q 757 -82 754 -68 q 760 -110 758 -89 q 763 -171 761 -132 q 692 -308 764 -249 q 616 -306 660 -307 q 542 -304 572 -304 l 431 -304 q 347 -305 393 -304 q 253 -307 300 -306 q 166 -310 207 -308 q 99 -314 125 -312 l -4 -143 q -8 -144 -7 -143 q -11 -144 -8 -144 l 36 125 l 186 131 q 178 194 181 163 q 176 258 176 226 q 179 322 176 288 q 188 394 182 357 q 119 408 164 397 q 4 439 75 418 l -96 607 q -106 610 -92 607 q -41 769 -83 681 q 68 938 1 857 q 241 1110 168 1056 q 346 1167 314 1164 q 422 1131 379 1161 q 585 921 460 1104 q 621 913 603 917 q 658 903 639 908 q 706 931 696 892 q 701 1000 717 968 q 882 1167 735 1115 q 894 1140 889 1153 q 907 1115 900 1128 l 985 988 q 1038 883 1018 933 q 1071 785 1058 832 q 1089 695 1083 738 q 1097 615 1094 653 q 1068 417 1097 518 q 881 425 924 406 q 943 96 940 304 q 865 79 893 83 q 815 75 836 75 q 731 88 760 75 q 692 125 703 101 l 688 133 m 901 608 q 928 789 928 692 q 909 931 928 860 q 849 1082 890 1003 q 774 1007 788 1061 q 806 869 806 935 q 797 790 806 832 q 290 889 486 889 l 267 889 q 411 1058 315 975 q 342 1097 379 1090 q 269 1049 328 1097 q 126 899 210 1000 q 28 753 60 815 q -18 657 -3 692 q 55 639 26 644 q 97 633 83 633 l 101 633 q 138 716 121 685 q 174 763 156 747 q 215 784 193 779 q 265 789 236 789 q 350 774 301 789 q 315 653 333 721 q 281 515 297 585 q 256 377 265 444 q 246 258 246 310 q 271 64 246 151 l 94 57 l 72 -71 q 188 -67 125 -68 q 326 -65 251 -65 l 438 -65 q 499 -66 468 -65 q 563 -68 531 -67 q 594 31 594 -40 l 594 46 q 593 64 594 63 q 556 62 574 63 q 519 61 538 61 l 499 61 q 447 65 469 61 q 410 83 425 68 q 388 128 396 97 q 381 215 381 160 l 381 242 q 414 469 389 419 q 647 449 519 469 q 642 394 642 433 l 642 367 q 653 329 642 344 q 711 314 664 314 q 741 315 726 314 q 772 321 756 317 q 733 540 771 467 l 429 563 q 483 743 429 626 q 554 729 511 736 q 651 708 597 722 q 769 672 706 694 q 901 608 832 649 z "},"G":{"ha":1182,"x_min":-19,"x_max":1335,"o":"m 704 486 q 691 485 697 486 q 678 483 685 485 q 746 452 708 471 q 824 414 783 433 q 777 470 806 454 q 704 486 749 486 m 468 340 q 411 210 432 265 q 388 118 390 154 q 449 110 414 110 q 547 135 503 110 l 469 265 q 466 266 467 265 q 463 267 465 267 q 483 319 465 285 q 468 340 503 356 m 1218 1017 l 1315 856 l 1335 763 q 1263 657 1301 715 q 1182 532 1224 599 q 1140 467 1161 500 q 1099 400 1119 433 q 1111 122 1058 333 q 1072 -224 1085 -17 q 1058 -722 1058 -432 q 837 -702 947 -714 q 623 -679 726 -690 q 426 -660 519 -668 q 256 -653 332 -653 q 151 -647 185 -653 q 104 -618 118 -642 l 13 -464 q -15 -420 -10 -450 q -19 -335 -19 -390 q 99 -157 -19 -157 l 100 -157 q 137 -155 119 -156 q 169 -153 154 -154 q 167 -49 201 -153 q 89 92 117 11 q 61 269 61 174 q 86 428 61 346 q 155 590 111 511 q 256 740 199 669 q 378 865 314 811 q 512 949 443 918 q 644 981 581 981 q 803 953 747 981 q 890 882 860 926 l 1025 1097 q 1215 1033 1151 1072 l 1218 1017 m 1176 974 q 1060 1019 1124 1007 l 879 728 q 855 800 868 767 q 817 858 842 833 q 751 897 792 883 q 644 911 711 911 q 527 883 588 911 q 410 806 467 854 q 302 694 353 758 q 213 559 251 631 q 153 413 175 488 q 131 269 131 339 q 152 124 131 192 q 213 6 174 57 q 306 -75 251 -46 q 425 -104 360 -104 q 689 72 525 -104 q 746 133 747 133 q 767 116 757 133 q 783 69 776 99 q 794 1 790 40 q 797 -82 797 -39 q 765 -242 797 -242 l 764 -242 q 463 -224 567 -231 q 339 -218 360 -218 q 103 -226 315 -218 l 99 -226 q 50 -335 50 -226 q 53 -378 50 -362 q 65 -401 56 -393 q 95 -412 75 -410 q 151 -414 115 -414 q 314 -421 225 -414 q 499 -437 403 -428 q 694 -458 594 -447 q 889 -478 793 -469 q 939 289 889 31 q 913 310 936 296 q 857 340 890 324 q 785 373 824 356 q 711 404 746 390 q 650 427 676 418 q 617 436 624 436 q 598 422 610 436 q 574 390 586 408 q 551 355 561 372 q 540 329 542 338 q 598 327 568 328 q 652 323 628 326 q 692 312 676 319 q 708 289 708 304 q 688 190 708 235 q 633 111 668 144 q 550 59 597 78 q 449 40 503 40 q 279 103 340 40 q 218 274 218 165 q 233 376 218 324 q 276 479 249 429 q 340 574 304 529 q 419 652 376 618 q 508 706 463 686 q 600 725 554 725 q 699 713 660 725 q 765 672 738 700 q 816 600 793 644 q 867 492 839 556 q 1020 741 943 622 q 1176 974 1097 860 z "},"H":{"ha":1042,"x_min":-43,"x_max":1161,"o":"m 474 186 q 490 187 482 186 q 508 189 499 188 q 528 152 519 169 q 544 118 538 135 l 610 11 q 643 -43 628 -18 q 674 -90 658 -68 q 665 81 668 10 q 660 206 663 153 l 472 211 l 474 208 l 474 186 m 1140 665 q 1161 508 1161 569 l 949 508 q 987 262 971 383 q 1016 19 1003 140 q 1042 -226 1029 -103 q 1072 -475 1056 -349 q 310 -542 672 -542 q 263 -541 290 -542 q 208 -540 236 -540 q 152 -538 179 -539 q 106 -537 125 -537 q -25 -296 -18 -324 q -32 -250 -32 -257 q -29 -217 -32 -233 q -18 -183 -26 -200 q -12 -65 -8 -90 q -17 -49 -15 -56 q -19 -36 -18 -42 q -22 -15 -21 -29 q -22 19 -22 -1 q 49 174 -25 63 l 138 171 q 144 267 140 219 q 147 376 147 314 l 147 394 q 149 411 147 408 l 149 418 q 151 445 150 432 q 151 472 151 458 q 152 499 151 486 q 154 526 153 513 l 75 529 l -26 699 l -33 699 q -40 756 -37 728 q -43 800 -43 785 q -23 883 -43 844 q 33 956 -3 921 l 440 964 q 535 929 514 939 q 586 940 560 918 q 647 965 615 961 q 710 958 671 963 q 807 953 749 954 q 863 950 839 951 q 906 946 888 949 q 964 929 943 939 q 1140 665 986 919 m 992 747 q 974 813 992 779 q 933 868 957 847 q 911 873 931 871 q 863 878 892 875 q 801 883 835 881 q 738 887 768 885 q 683 891 707 889 q 651 894 660 893 q 600 860 622 890 q 578 796 578 829 q 594 756 578 769 l 678 750 q 683 722 678 747 q 692 666 688 697 q 702 606 697 635 q 707 568 707 578 q 700 543 707 547 l 406 543 q 373 545 389 544 q 344 551 357 546 q 322 566 331 556 q 314 597 314 576 l 319 756 l 368 756 q 482 764 475 756 q 488 804 488 769 l 488 825 q 431 894 485 875 l 61 886 q 26 800 26 856 q 27 784 26 793 q 29 767 28 775 l 217 760 q 226 653 226 746 q 224 559 226 624 q 219 415 222 494 q 213 252 217 336 q 204 100 208 168 l 85 103 q 46 -4 46 43 l 46 -17 q 49 -29 46 -15 q 140 -15 88 -19 q 260 -11 193 -11 q 492 -15 385 -11 q 497 28 497 1 q 471 117 497 74 q 388 113 422 113 q 304 128 319 113 l 304 378 q 317 436 307 422 q 357 450 326 450 l 658 443 q 690 415 676 442 q 713 320 703 388 q 731 139 724 253 q 747 -150 739 25 q 522 -174 635 -167 q 290 -182 408 -182 q 204 -181 246 -182 q 131 -181 163 -181 q 77 -186 99 -182 q 51 -199 56 -190 q 40 -238 46 -215 q 47 -300 33 -261 q 127 -302 88 -301 q 206 -303 167 -303 q 894 -249 569 -303 q 865 0 878 -125 q 839 250 853 125 q 808 499 825 375 q 767 747 792 624 l 992 747 z "},"I":{"ha":533,"x_min":-49,"x_max":586,"o":"m -21 -47 q -12 32 -21 -12 q 10 115 -4 76 q 44 181 25 154 q 85 207 64 207 q 107 205 94 207 q 138 200 119 203 q 147 262 142 229 q 158 331 153 294 l 58 497 l 54 496 q 38 549 43 529 q 29 579 32 568 q 25 594 26 590 l 25 632 q 38 697 25 664 l -12 783 q -49 890 -49 815 q -40 945 -49 917 q -14 997 -31 974 q 26 1034 3 1019 q 76 1049 49 1049 q 169 1019 131 1049 q 222 944 208 989 l 275 858 q 315 875 294 865 q 361 903 335 885 q 536 669 432 871 q 553 601 553 640 q 545 542 553 589 q 527 432 538 496 q 504 294 517 368 q 482 153 492 221 l 586 -24 q 584 -40 586 -25 q 579 -83 582 -56 q 567 -167 572 -142 q 535 -233 560 -206 q 453 -261 511 -261 l 88 -217 l -21 -47 m 361 103 q 340 104 360 104 l 288 104 q 282 136 282 110 q 290 190 282 143 q 308 304 297 238 q 333 448 319 371 q 357 594 346 525 q 376 713 368 663 q 383 775 383 763 q 369 824 383 818 q 296 792 342 804 q 204 760 250 779 q 126 708 158 740 q 94 636 94 676 q 96 592 94 593 l 272 676 q 276 654 276 674 q 271 606 276 646 q 257 511 265 567 q 238 391 249 456 q 219 269 228 326 q 203 169 210 211 q 196 113 197 126 q 85 138 125 138 q 71 125 78 138 q 59 94 64 113 q 51 53 54 75 q 49 15 49 32 l 357 -22 q 385 -10 376 -22 q 399 22 394 3 q 403 60 403 40 q 407 96 404 81 l 361 103 m 160 901 q 136 956 160 933 q 76 979 113 979 q 54 971 64 979 q 37 950 44 963 q 25 922 29 938 q 21 890 21 906 q 72 826 21 826 q 102 833 86 826 q 131 849 118 839 q 151 873 143 860 q 160 901 160 886 z "},"J":{"ha":835,"x_min":-53,"x_max":886,"o":"m 750 733 q 776 677 765 703 q 786 615 786 651 q 631 525 786 558 q 653 470 640 501 q 681 407 667 439 q 693 379 688 392 q 705 353 699 367 q 719 325 711 340 q 738 289 726 310 q 785 190 758 247 q 835 75 813 133 q 872 -35 857 17 q 886 -129 886 -86 q 813 -325 886 -226 l 811 -325 q 433 -533 653 -533 q 251 -486 336 -533 l 251 -487 q 164 -433 199 -461 q 106 -368 129 -406 l 24 -232 q -13 -176 1 -207 q -37 -107 -28 -146 q -49 -19 -46 -68 q -53 94 -53 31 q -31 244 -53 182 q 29 344 -8 306 q 115 400 67 382 q 218 418 164 418 q 372 326 347 418 l 460 182 q 478 110 478 151 q 463 79 478 104 q 427 26 447 54 q 388 -26 407 -3 q 360 -49 368 -49 q 306 -31 332 -49 q 274 -62 269 -37 q 285 -90 278 -90 q 369 -81 326 -90 q 448 -53 413 -71 q 506 -13 483 -36 q 529 38 529 10 q 381 478 529 192 l 281 435 l 174 603 l 122 867 q 194 880 150 871 q 286 901 238 889 q 383 925 335 913 q 468 949 431 938 l 468 950 q 492 957 478 956 l 492 958 q 513 964 499 961 q 544 969 528 967 l 549 969 q 551 970 550 969 q 553 971 551 971 q 625 938 589 971 q 675 857 661 906 l 750 733 m 656 -112 q 717 44 717 -31 q 696 155 717 92 q 644 286 675 218 q 581 422 614 354 q 522 543 547 489 q 461 690 481 639 q 440 751 442 740 q 617 789 617 774 q 610 830 617 810 q 594 866 604 850 q 574 892 585 882 q 553 901 563 901 q 529 897 544 901 q 494 885 514 892 q 416 863 460 875 q 331 841 372 851 q 255 822 289 831 q 204 811 221 814 l 225 701 l 314 740 q 599 38 599 276 q 582 -22 599 6 q 537 -74 565 -50 q 471 -115 508 -97 q 393 -144 433 -133 q 267 -160 329 -160 q 140 -111 197 -160 q 83 25 83 -62 q 214 210 83 210 q 235 200 221 210 q 256 190 249 190 q 268 203 260 190 q 285 233 276 217 q 301 265 294 250 q 308 283 308 281 q 218 349 308 349 q 142 335 178 349 q 78 290 106 321 q 33 211 50 260 q 17 94 17 163 q 20 -15 17 32 q 33 -97 24 -61 q 58 -158 43 -132 q 97 -204 74 -183 q 135 -233 113 -218 q 188 -262 157 -247 q 383 -294 249 -294 q 656 -112 518 -294 z "},"K":{"ha":1061,"x_min":-12,"x_max":1110,"o":"m 549 756 q 440 785 503 768 q 445 774 443 779 q 450 764 447 769 l 496 689 q 521 722 508 706 q 549 756 533 739 m 122 483 q 83 549 100 510 q 57 636 67 588 q 133 697 90 663 q 217 767 175 732 q 296 835 258 803 q 357 888 333 867 q 414 831 389 864 l 854 997 l 1110 379 l 878 503 l 874 499 q 896 457 888 485 q 1108 69 1001 283 q 1105 26 1108 63 q 1096 -60 1101 -11 q 1083 -160 1090 -108 q 1069 -249 1076 -212 q 669 -374 874 -272 q 586 -308 592 -279 q 580 -338 583 -324 q 574 -368 576 -353 l 96 -264 l -12 -94 q 82 111 -12 67 l 264 68 q 266 168 265 121 q 267 260 267 215 q 222 331 257 275 q 122 483 186 386 m 813 907 l 583 821 q 624 808 603 815 q 668 789 644 800 q 531 620 589 701 q 432 460 472 539 q 361 799 431 750 q 257 710 314 758 q 132 608 200 663 q 168 522 146 533 l 311 618 q 336 260 336 489 q 335 128 336 197 q 329 -19 333 60 l 89 38 q 57 -37 57 22 l 419 -117 q 437 -2 431 -64 q 443 132 443 60 l 443 163 l 443 178 q 442 193 443 192 q 457 206 442 194 q 496 235 472 218 q 547 273 519 253 q 601 310 575 293 q 649 338 628 326 q 678 349 669 349 q 711 339 700 349 q 722 297 722 329 q 715 257 722 286 q 698 190 708 228 q 676 109 688 151 q 653 28 664 67 q 636 -41 643 -11 q 629 -83 629 -71 q 630 -89 629 -86 q 631 -94 631 -92 q 911 -15 751 -33 q 922 40 917 11 q 931 92 926 68 q 937 133 935 117 q 939 151 939 150 q 725 36 801 103 q 839 381 836 274 l 839 385 q 744 515 839 483 l 460 328 q 602 562 528 454 q 760 758 676 669 l 889 689 l 813 907 z "},"L":{"ha":981,"x_min":-43,"x_max":1025,"o":"m 925 207 l 1025 32 l 940 -347 q 686 -335 771 -342 q 607 -331 643 -332 q 540 -332 571 -331 q 335 -347 453 -339 q 65 -368 217 -356 l -36 -197 q -40 -198 -39 -197 q -43 -199 -40 -199 q -30 -87 -35 -135 q -26 0 -25 -40 q -28 34 -26 21 q -31 59 -29 47 q -34 83 -32 71 q -37 111 -36 94 l 153 111 l 164 464 l 76 456 l -25 625 l -35 625 l 93 908 l 632 919 q 631 915 632 918 q 631 908 631 913 l 732 742 q 729 626 732 674 q 719 533 726 578 l 531 458 q 510 313 517 390 q 503 143 504 235 q 599 151 551 147 q 681 156 647 154 q 708 231 690 188 q 749 333 725 275 l 925 207 m 778 228 q 739 94 739 146 q 655 85 696 88 q 563 78 614 82 q 454 71 511 75 q 344 64 397 67 q 336 151 339 103 q 333 258 333 200 q 372 692 333 540 l 375 692 q 408 696 379 692 q 469 705 436 700 q 528 714 503 710 q 551 717 554 718 q 557 773 554 740 q 563 849 560 806 l 139 840 l 78 704 l 229 717 l 221 42 l 43 42 q 44 -6 44 40 q 42 -72 44 -46 q 38 -122 40 -99 q 347 -99 240 -107 q 481 -90 454 -90 q 570 -94 494 -90 q 785 -106 646 -99 l 847 178 l 778 228 z "},"M":{"ha":1253,"x_min":-54,"x_max":1300,"o":"m 1300 -26 l 1257 -307 q 1146 -322 1196 -312 q 1042 -347 1096 -331 q 926 -390 989 -364 q 779 -457 864 -417 q 500 -424 593 -381 l 57 -229 l -43 -61 l -54 -57 l 118 172 q 169 142 143 157 q 222 114 196 128 q 182 318 199 211 q 165 533 165 425 q 396 921 165 921 q 552 886 493 921 q 646 772 611 851 q 753 889 694 851 q 901 926 811 926 q 1027 898 976 926 q 1104 799 1078 869 l 1181 671 q 1217 572 1203 628 q 1231 425 1231 515 q 1217 271 1231 342 q 1186 149 1204 200 l 1300 -26 m 1118 64 l 892 15 q 937 132 910 64 q 1001 292 964 200 q 1040 414 1019 333 q 1061 599 1061 494 q 1051 722 1061 672 q 1022 802 1042 772 q 972 844 1001 832 q 901 857 942 857 q 813 840 851 857 q 744 789 775 824 q 684 701 713 754 q 625 575 656 647 q 597 703 614 650 q 553 788 581 756 q 488 836 526 821 q 396 851 450 851 q 235 533 235 851 q 244 383 235 458 q 267 235 253 307 q 300 95 282 163 q 336 -29 318 28 q 265 10 314 -18 q 138 82 217 38 l 54 -29 l 397 -179 q 482 -46 451 -156 q 321 285 321 58 q 345 465 321 410 q 413 519 369 519 q 500 487 461 519 q 547 396 539 454 l 581 183 q 590 184 578 183 q 617 186 601 185 q 647 190 633 188 q 660 197 660 193 q 672 376 664 306 q 695 486 681 446 q 733 542 710 526 q 788 557 756 557 q 847 531 828 557 q 867 442 867 504 q 849 242 867 331 q 803 90 832 153 q 737 -12 775 26 q 657 -61 699 -50 l 710 -194 q 830 -140 779 -161 q 924 -104 881 -118 q 1008 -83 968 -90 q 1097 -72 1049 -76 l 1118 64 z "},"N":{"ha":1006,"x_min":-94,"x_max":1054,"o":"m 1011 -39 q 1014 -44 1011 -42 l 1017 -49 l 1011 -39 m 606 401 q 562 356 581 376 q 532 317 543 335 l 546 153 q 606 401 617 336 m 989 563 q 1008 413 1008 478 q 993 247 1008 338 q 946 68 978 156 l 1011 -39 l 1010 -39 l 1014 -44 q 1033 -73 1025 -56 q 1045 -108 1040 -90 q 1052 -144 1050 -126 q 1054 -174 1054 -161 q 1049 -229 1054 -193 q 1035 -324 1044 -265 q 436 -306 490 -290 q 389 -322 413 -314 q 342 -340 365 -331 q 254 -378 296 -358 q 185 -414 213 -397 l 83 -244 q 76 -249 79 -246 l 83 38 l 200 107 q 185 224 193 169 q 168 326 176 279 l 117 307 q 35 394 75 329 q -94 678 -90 571 l 306 906 l 310 886 l 361 801 q 367 806 364 804 q 372 811 369 808 l 372 810 q 635 892 467 892 l 643 892 q 989 563 839 889 m 876 -83 q 885 0 885 -36 q 856 100 885 67 q 760 66 803 81 q 686 44 718 51 q 800 326 761 188 q 839 586 839 464 q 830 686 839 642 q 798 760 821 731 q 738 806 775 790 q 643 822 700 822 l 635 822 q 505 802 560 822 q 411 751 450 782 q 348 681 372 719 q 310 604 324 642 l 260 799 l -24 638 q 18 553 -21 575 l 151 606 q 275 68 231 497 l 151 -4 l 149 -125 q 203 -99 169 -112 q 275 -72 238 -85 q 349 -50 313 -60 q 408 -37 385 -40 l 361 508 q 465 626 408 583 q 592 669 521 669 q 724 538 724 669 q 715 455 724 501 q 685 338 707 408 q 627 167 664 268 q 535 -78 590 67 l 876 -83 z "},"O":{"ha":889,"x_min":-40,"x_max":957,"o":"m 553 482 q 477 449 521 482 q 392 366 433 415 q 323 259 351 317 q 294 154 294 201 q 342 99 294 99 q 422 132 379 99 q 499 216 464 165 q 558 326 535 267 q 581 436 581 385 q 575 468 581 454 q 553 482 569 482 m 461 900 q 662 844 574 900 q 826 678 750 788 q 881 591 857 633 q 922 503 906 549 q 948 405 939 457 q 957 289 957 353 q 917 42 957 157 q 803 -160 876 -74 q 627 -296 731 -246 q 397 -346 524 -346 q 314 -338 350 -346 q 247 -314 278 -331 q 188 -270 217 -297 q 126 -203 160 -243 q 60 -103 90 -160 q 7 13 29 -47 q -28 134 -15 74 q -40 246 -40 194 q 1 489 -40 371 q 110 698 42 607 q 270 844 179 789 q 461 900 361 900 m 639 357 q 594 242 625 300 q 521 137 563 185 q 433 59 479 89 q 342 29 386 29 q 171 92 229 29 q 113 263 113 154 q 128 363 113 310 q 169 467 143 415 q 231 566 196 519 q 306 649 267 613 q 389 706 346 685 q 472 726 432 726 q 545 703 513 726 q 601 642 578 681 q 636 552 624 604 q 649 442 649 500 q 639 357 649 382 m 461 831 q 297 781 375 831 q 158 650 218 732 q 64 463 99 568 q 29 246 29 357 q 47 105 29 169 q 97 -7 64 40 q 180 -81 131 -54 q 293 -107 229 -107 q 497 -62 406 -107 q 652 60 588 -17 q 752 241 717 138 q 788 463 788 344 q 461 831 788 831 z "},"P":{"ha":911,"x_min":-47,"x_max":1007,"o":"m 554 6 l 656 -162 q 641 -238 649 -200 q 621 -314 633 -276 q 591 -387 608 -351 q 547 -454 574 -422 q 503 -448 540 -453 q 416 -437 467 -443 q 306 -425 365 -432 q 196 -412 247 -418 q 107 -403 144 -407 q 61 -400 69 -400 l -47 -231 q -40 -155 -44 -194 q -28 -78 -35 -115 q -14 -6 -22 -40 q 4 53 -6 28 q 23 52 8 53 q 58 51 38 51 q 105 48 79 50 q 156 43 131 46 q 184 241 167 135 q 217 440 201 347 l 88 432 l -15 601 l -22 601 q 13 755 1 697 q 38 843 25 813 q 74 883 51 874 q 140 892 96 892 l 150 892 q 156 891 153 892 q 163 890 160 890 l 181 890 q 460 876 339 890 q 669 831 582 861 q 810 755 756 801 q 888 646 864 708 l 968 513 q 1007 358 1007 449 q 966 228 1007 288 q 854 125 925 168 q 697 58 785 81 q 617 34 653 47 q 554 6 582 21 m 633 535 q 583 460 633 499 q 449 390 532 422 q 388 372 408 372 q 385 374 385 372 q 406 603 406 474 q 405 626 406 617 q 403 643 404 636 q 491 635 449 643 q 565 613 533 628 q 615 579 596 599 q 633 535 633 560 m 838 532 q 797 666 838 611 q 672 755 757 721 q 455 805 588 789 q 139 821 322 821 q 113 816 122 821 q 96 797 103 811 q 83 753 89 782 q 67 676 76 724 l 271 690 q 313 621 313 690 q 306 571 313 611 q 290 472 300 531 q 269 344 281 414 q 248 204 258 274 q 229 71 238 135 q 218 -37 221 7 q 172 -26 199 -31 q 119 -20 144 -22 q 75 -17 94 -18 q 51 -17 56 -17 q 37 -79 43 -37 q 28 -161 31 -121 q 65 -164 35 -161 q 136 -172 94 -167 q 225 -182 178 -176 q 313 -192 272 -187 q 384 -201 354 -197 q 419 -207 414 -206 q 454 -135 443 -178 q 474 -49 465 -92 l 310 -37 q 331 111 318 33 q 358 278 343 189 q 413 274 376 274 q 569 292 493 274 q 706 346 646 311 q 801 428 765 381 q 838 532 838 475 z "},"Q":{"ha":986,"x_min":-112,"x_max":1035,"o":"m 906 524 q 901 531 903 526 l 906 524 m 256 0 q 251 7 253 3 l 256 0 m 226 119 q 278 110 244 110 q 297 110 288 110 q 314 113 306 111 q 226 128 232 219 l 226 119 m 490 476 q 475 425 482 475 l 557 289 l 578 246 q 624 400 632 339 q 594 472 615 461 q 547 483 575 483 q 522 481 536 483 q 490 476 507 479 m 24 -56 q -33 33 -8 -15 q -76 130 -58 81 q -103 224 -94 179 q -112 306 -112 269 q -72 548 -112 435 q 35 746 -32 661 q 189 879 101 831 q 371 928 276 928 l 383 928 q 458 922 426 925 q 514 913 490 918 q 556 901 538 907 q 593 888 575 894 l 593 886 q 740 785 674 856 q 792 716 768 760 q 844 625 817 672 l 906 524 q 942 460 924 493 q 974 389 960 426 q 998 309 989 351 q 1007 218 1007 267 q 996 116 1007 164 q 967 26 985 68 q 929 -47 947 -19 q 1035 -322 908 -81 l 886 -761 l 535 -610 l 433 -442 l 426 -439 l 439 -349 q 422 -350 438 -350 l 404 -350 l 381 -350 q 276 -335 321 -350 q 198 -297 232 -321 q 139 -240 164 -272 q 92 -169 114 -207 l 24 -56 m 425 371 q 332 290 363 336 l 406 58 q 282 40 364 44 q 188 59 229 40 q 117 111 146 78 q 72 188 88 144 q 57 282 57 232 l 57 301 q 69 398 60 356 q 96 478 78 440 q 141 549 114 515 q 207 621 168 583 q 443 722 313 722 q 539 696 492 722 q 623 628 586 669 q 682 540 660 588 q 704 450 704 492 q 556 103 704 256 l 425 371 m 722 -303 q 706 -262 719 -293 q 673 -191 692 -231 q 635 -112 654 -151 q 601 -44 615 -72 q 674 40 644 6 q 733 110 704 74 q 769 160 751 131 q 803 225 788 189 q 828 303 818 261 q 838 390 838 344 q 822 498 838 444 q 784 597 807 551 q 736 679 761 643 q 690 736 711 715 q 636 787 663 765 q 576 824 610 808 q 495 847 542 839 q 382 858 449 856 l 371 858 q 217 815 292 858 q 84 696 142 771 q -8 520 26 621 q -43 306 -43 419 q -33 228 -43 272 q -6 138 -24 185 q 38 47 13 92 q 96 -33 64 1 q 167 -90 129 -68 q 276 -111 206 -111 l 300 -111 q 350 -109 331 -111 q 385 -103 369 -107 q 417 -95 401 -100 q 458 -83 433 -90 l 629 -379 q 559 -383 594 -381 q 486 -389 524 -385 l 743 -500 l 861 -153 l 722 -303 z "},"R":{"ha":971,"x_min":-49,"x_max":1029,"o":"m 639 796 q 792 753 728 796 q 943 542 857 710 q 1029 332 1029 372 q 1010 250 1029 288 q 958 185 990 213 q 885 141 926 157 q 800 125 843 125 q 681 179 714 125 q 558 249 581 283 q 535 213 547 232 q 513 171 524 193 l 494 51 l 554 49 l 653 -129 q 563 -349 606 -301 q 433 -343 504 -346 q 293 -338 363 -340 q 163 -335 224 -336 q 60 -333 101 -333 l -49 -164 l -21 64 l 138 57 q 149 178 140 89 q 169 424 157 268 l 147 404 l 44 575 l 57 808 q 295 843 196 828 q 453 865 394 858 q 452 860 453 863 q 451 856 451 858 l 504 767 q 571 788 536 781 q 639 796 606 796 m 847 569 q 639 726 789 726 q 547 710 593 726 q 461 665 500 693 q 394 601 422 638 q 356 525 365 564 q 364 635 358 569 q 376 785 369 700 q 272 770 335 779 q 122 749 210 761 l 108 572 q 128 575 104 572 q 181 581 151 578 q 234 586 210 583 q 254 589 258 589 q 178 -14 204 4 l 42 -8 l 31 -96 q 429 -108 194 -99 q 463 -17 439 -96 l 292 -8 l 344 365 q 608 618 476 618 q 652 609 631 618 q 692 585 674 600 q 721 551 710 569 q 732 511 732 532 q 719 488 732 493 q 675 508 696 508 q 637 487 651 508 q 622 436 622 465 q 696 364 622 364 q 756 375 726 364 q 809 405 786 386 q 846 449 832 424 q 860 506 860 475 q 847 569 860 536 z "},"S":{"ha":1079,"x_min":-56,"x_max":1128,"o":"m 524 -122 q 522 -119 522 -119 q 519 -115 521 -118 l 524 -122 m 553 29 q 515 15 533 21 q 479 1 497 8 q 538 -6 514 -6 q 618 13 583 -6 q 671 67 653 32 q 617 52 646 63 q 553 29 588 42 m 1035 163 q 1085 47 1064 104 q 1113 -86 1107 -11 l 1113 -92 q 1099 -148 1113 -118 q 1060 -208 1085 -178 q 1001 -269 1035 -239 q 929 -326 968 -299 q 819 -393 876 -364 q 704 -439 763 -422 q 549 -457 654 -457 q 319 -237 451 -457 q 208 -251 275 -242 q 53 -276 142 -261 q -56 -107 -54 -106 q -53 -81 -56 -100 q -47 -42 -50 -62 q -42 -3 -44 -21 q -39 18 -39 14 q -30 68 -35 43 q -15 115 -25 93 q 12 156 -4 138 q 56 189 28 175 l 188 189 l 171 215 q 106 338 129 264 q 82 486 82 411 q 103 629 82 560 q 163 752 125 699 q 253 838 200 806 q 368 869 306 869 q 525 814 444 869 l 525 817 q 563 786 540 808 q 610 740 585 764 l 622 728 q 660 817 638 769 q 708 904 682 864 q 759 971 733 944 q 808 997 785 997 q 897 969 844 997 q 1128 719 951 942 q 1005 538 1065 628 q 904 376 944 447 q 967 276 942 332 l 1042 151 l 1035 163 m 943 86 q 918 215 939 154 q 862 322 897 276 q 778 395 826 368 q 672 422 731 422 l 543 401 q 464 390 499 394 q 403 386 429 386 q 242 508 242 386 q 340 642 242 642 q 464 607 390 642 q 625 510 538 572 q 688 464 689 464 q 718 537 694 492 q 775 638 742 582 q 849 753 808 693 q 929 872 889 814 q 857 913 886 897 q 808 928 828 928 q 788 906 801 928 q 758 849 775 883 q 722 776 740 815 q 685 703 703 738 q 654 647 668 669 q 633 625 640 625 q 614 642 631 625 q 574 680 597 658 q 528 723 551 701 q 492 754 506 744 q 368 800 426 800 q 281 774 321 800 q 213 703 242 747 q 167 603 183 660 q 151 486 151 546 q 162 393 151 440 q 190 308 172 346 q 234 247 208 271 q 290 224 260 224 q 330 230 307 224 q 376 245 353 236 q 424 264 400 254 q 468 281 449 274 q 622 314 565 314 q 757 140 757 314 q 697 -16 757 43 q 538 -75 638 -75 q 454 -67 486 -75 q 399 -39 422 -60 q 358 20 376 -18 q 315 119 339 58 l 72 119 q 53 99 61 114 q 41 63 46 83 q 33 20 36 43 q 25 -25 29 -3 q 278 4 201 4 q 311 0 300 4 q 494 -218 311 -218 q 588 -204 538 -218 q 688 -166 638 -190 q 783 -111 738 -142 q 865 -47 829 -81 q 922 19 900 -14 q 943 82 943 53 l 943 86 z "},"T":{"ha":822,"x_min":-181,"x_max":872,"o":"m 563 -36 q 559 -31 560 -33 q 556 -25 558 -28 l 563 -36 m 500 318 q 491 293 494 306 q 482 268 488 281 l 607 331 l 500 318 m 444 147 q 424 77 433 111 q 410 13 415 43 q 464 33 446 18 q 482 65 482 49 l 482 69 q 476 94 482 85 l 444 147 m 821 75 q 840 28 832 47 q 853 -6 849 8 q 872 -97 872 -64 q 853 -178 872 -136 q 801 -259 833 -219 q 728 -333 769 -299 q 641 -394 686 -368 q 551 -436 596 -421 q 468 -451 506 -451 q 374 -438 419 -451 q 288 -401 328 -425 q 213 -345 247 -378 q 156 -272 179 -312 l 76 -142 q 19 -41 40 -96 q -1 76 -1 14 q 14 169 -1 108 q 50 296 29 229 q -18 291 14 293 q -68 288 -50 289 l -181 457 l 24 801 q 111 789 69 801 q 199 769 153 776 q 189 791 190 782 q 187 817 188 800 q 185 865 186 835 q 175 951 183 896 q 251 988 213 974 q 334 1013 289 1003 q 434 1032 379 1024 q 563 1051 489 1040 l 560 1042 l 661 872 q 790 599 689 793 q 811 482 811 563 q 742 346 811 357 l 654 335 q 694 290 675 319 q 729 228 714 261 l 821 75 m 703 76 q 697 128 703 97 q 683 189 692 160 q 663 241 674 218 q 639 269 651 264 l 499 199 q 551 69 551 129 l 551 65 q 540 19 551 42 q 506 -22 529 -4 q 450 -49 483 -39 q 371 -60 417 -60 q 320 -45 344 -60 q 278 -8 296 -31 q 248 43 260 15 q 235 96 236 71 l 235 115 q 265 297 235 188 q 350 553 296 406 l 629 585 q 642 656 642 586 q 632 740 642 740 q 388 694 546 715 l 467 967 q 326 937 379 949 q 251 914 272 925 q 256 872 254 892 q 258 835 258 853 q 257 787 258 811 q 251 743 256 763 q 238 711 247 724 q 215 699 229 699 q 179 703 204 699 q 128 713 154 707 q 81 722 101 718 q 60 726 61 726 l -53 536 q 26 541 -11 539 q 94 543 63 543 q 153 541 126 543 q 201 536 179 539 l 201 535 q 192 502 201 531 q 167 430 182 474 q 135 334 151 386 q 103 232 118 282 q 78 140 88 182 q 68 76 68 99 q 92 -35 68 17 q 158 -127 117 -87 q 252 -190 199 -167 q 364 -212 306 -212 q 472 -185 413 -212 q 582 -117 531 -158 q 668 -24 633 -75 q 703 76 703 28 z "},"U":{"ha":1135,"x_min":6,"x_max":1189,"o":"m 1174 -144 l 1189 -190 l 1139 -274 q 1077 -291 1115 -278 q 986 -324 1039 -304 l 985 -322 q 906 -354 935 -342 q 867 -369 876 -367 q 849 -376 857 -372 q 831 -383 840 -381 q 798 -396 813 -390 q 782 -401 783 -401 l 717 -292 q 624 -360 672 -337 q 508 -386 575 -383 l 503 -386 q 340 -342 457 -386 l 339 -340 q 176 -207 228 -293 l 96 -72 q 51 -3 68 -40 q 23 70 33 33 q 9 142 13 107 q 6 207 6 178 q 20 326 6 269 q 57 435 35 383 q 106 534 79 488 q 160 622 133 581 l 81 754 q 71 758 75 757 l 175 1003 l 610 847 l 879 910 l 917 838 l 982 731 l 1108 494 q 1075 482 1096 490 q 1047 471 1064 478 q 1003 454 1029 464 q 965 439 978 444 q 949 432 951 433 q 958 372 954 404 q 967 304 963 340 q 1174 -144 975 239 m 1022 -36 q 999 23 1013 -7 q 967 75 985 53 l 840 26 q 829 161 836 76 q 813 338 822 246 q 792 513 803 429 q 771 646 782 597 q 795 656 783 651 q 823 667 807 661 q 860 682 839 674 q 913 703 881 690 l 850 819 l 510 668 l 550 567 q 592 587 568 576 q 650 611 615 597 q 667 547 661 583 q 672 471 672 511 q 651 296 672 388 q 589 128 629 204 q 489 3 549 53 q 353 -46 429 -46 q 244 10 282 -46 q 199 150 206 65 l 199 171 q 217 306 199 229 q 272 469 235 383 q 363 643 308 554 q 492 815 418 732 l 214 915 l 163 797 q 235 767 199 782 q 310 736 272 751 q 242 623 282 682 q 165 499 201 564 q 101 361 128 433 q 75 208 75 289 q 82 127 75 172 q 110 38 89 82 q 167 -46 131 -7 q 282 -115 203 -85 q 351 -139 321 -132 q 406 -146 382 -146 q 451 -140 431 -146 q 492 -126 471 -135 q 604 -31 554 -100 q 708 161 654 39 q 717 113 714 138 q 722 53 719 88 q 728 -27 725 19 q 736 -139 731 -74 q 756 -132 738 -139 q 801 -115 774 -125 q 860 -92 828 -104 q 924 -68 893 -79 q 982 -48 956 -57 q 1022 -36 1008 -39 z "},"V":{"ha":933,"x_min":-222,"x_max":1026,"o":"m 928 860 q 925 854 925 857 l 1026 685 q 1022 676 1025 682 q 1017 664 1019 671 q 1006 640 1014 657 q 985 592 999 622 q 947 518 961 532 q 918 489 936 503 q 872 464 900 475 l 797 508 q 734 187 772 400 q 647 -350 696 -26 l 365 -335 l 257 -165 l 146 392 l 76 326 q -222 693 -1 326 l 229 1081 q 232 1068 231 1074 q 235 1060 233 1063 l 331 900 q 415 649 386 686 q 469 689 447 608 q 536 915 503 811 q 594 1085 569 1018 l 928 860 m 629 979 q 590 865 613 935 q 544 713 568 794 q 498 545 521 632 q 457 381 475 458 q 428 244 439 304 q 417 154 417 183 q 190 956 394 172 l -136 674 q -53 565 -85 565 l 144 751 l 315 -99 l 489 -108 q 589 492 547 269 q 654 782 631 715 l 774 710 q 804 755 790 718 q 839 836 818 792 l 629 979 z "},"W":{"ha":1129,"x_min":-131,"x_max":1257,"o":"m 7 365 l 4 369 l 7 365 m 446 633 q 544 658 489 658 q 549 647 546 654 q 556 629 551 640 l 576 596 q 564 693 569 644 q 553 792 558 742 q 588 849 560 815 q 651 915 615 883 q 723 968 686 946 q 786 990 760 990 l 832 990 q 885 906 857 942 q 949 840 913 869 q 1033 784 986 810 q 1144 732 1081 758 l 1151 710 q 1238 392 1257 433 q 1219 355 1228 372 q 1201 321 1210 338 q 1174 266 1185 289 q 1160 238 1163 243 l 971 358 q 976 269 974 307 q 981 208 979 232 q 985 169 983 189 q 989 132 986 150 q 999 78 993 103 q 1017 15 1006 53 l 1018 14 q 1037 -53 1025 -10 q 1061 -142 1049 -97 q 1041 -168 1058 -149 q 1000 -212 1024 -187 q 949 -265 976 -237 q 897 -315 921 -292 q 856 -353 872 -337 q 836 -368 839 -368 q 797 -354 818 -368 q 753 -316 776 -340 q 707 -259 731 -292 q 661 -189 683 -226 l 596 -82 q 466 -298 536 -204 q 313 -464 396 -392 l 107 -196 l 18 -47 l -1 -22 q 74 113 39 36 q 129 264 108 189 l 115 254 q 62 293 93 260 q 7 365 31 326 l -76 501 q -112 559 -97 529 q -131 611 -128 589 l 250 929 q 446 633 331 854 m 1115 669 q 993 725 1044 699 q 903 781 942 751 q 838 843 865 810 q 789 921 811 876 l 786 921 q 742 906 768 921 q 692 869 717 890 q 648 824 667 847 q 624 785 629 801 q 668 446 644 607 q 731 146 692 285 q 683 194 707 160 q 635 272 658 228 q 590 367 611 317 q 550 461 568 417 q 519 540 532 506 q 499 589 506 575 q 455 552 474 589 q 419 460 436 515 q 386 341 403 406 q 349 221 369 276 q 303 128 329 165 q 244 89 278 90 q 340 572 340 386 q 249 838 340 756 l -57 583 q -49 558 -56 572 q -33 531 -42 544 q -16 508 -25 518 q 0 497 -7 499 l 169 604 q 226 425 226 543 q 215 315 226 375 q 185 194 204 254 q 140 77 165 133 q 85 -21 114 21 l 218 -194 q 501 275 369 -64 q 544 147 515 217 q 606 15 572 76 q 674 -87 640 -46 q 732 -129 708 -129 q 745 -118 733 -129 q 774 -90 757 -107 q 810 -53 790 -74 q 847 -15 829 -33 q 876 17 864 3 q 889 35 888 31 q 855 153 868 110 q 834 226 842 196 q 822 282 826 256 q 813 353 817 308 q 805 469 810 397 q 792 658 800 540 l 1028 507 q 1115 669 1038 529 z "},"X":{"ha":1010,"x_min":-86,"x_max":1088,"o":"m 6 681 l 285 963 l 490 608 l 754 944 l 1085 522 l 968 243 l 822 363 l 790 321 l 1088 -50 q 998 -142 1035 -104 q 933 -210 961 -181 q 885 -266 906 -240 q 843 -322 864 -292 q 799 -388 822 -351 q 743 -476 775 -425 l 536 -114 l 265 -500 l -86 118 l 119 328 l 211 206 l 314 356 l 306 372 l 194 236 l 6 681 m 518 378 l 707 631 l 838 522 l 904 682 l 758 839 l 481 483 l 269 849 l 83 661 l 118 546 l 236 690 l 394 350 l 214 88 l 113 222 l -1 107 l 168 -204 l 454 201 l 644 -171 q 690 -99 672 -126 q 732 -44 708 -72 q 792 21 756 -17 q 892 124 828 58 l 793 222 q 756 174 778 197 q 710 128 733 150 q 669 87 688 106 q 642 53 650 68 l 518 378 z "},"Y":{"ha":1051,"x_min":-53,"x_max":1099,"o":"m 1099 638 q 1086 451 1099 546 q 1044 247 1074 356 q 1026 177 1040 225 q 990 64 1011 129 q 947 -77 969 -1 q 901 -229 924 -153 q 862 -377 879 -306 q 836 -504 844 -449 q 649 -447 722 -468 q 524 -415 575 -426 q 433 -401 472 -404 q 350 -397 394 -397 q 276 -403 317 -397 q 192 -410 236 -410 q 178 -405 186 -410 q 156 -379 171 -400 q 115 -317 142 -358 q 46 -201 89 -275 q 16 -151 33 -179 q -17 -97 -1 -124 q -42 -45 -32 -69 q -53 -6 -53 -21 q -40 38 -53 17 q -8 78 -28 58 l 43 78 q 159 73 94 78 q 292 60 224 68 l 272 90 q 213 193 235 135 q 192 311 192 251 q 194 362 192 338 q 201 408 196 386 l 1 771 q 126 876 54 819 q 269 982 197 932 q 403 1068 342 1032 q 496 1113 464 1104 l 735 1013 l 793 901 q 842 888 815 896 q 895 870 869 879 q 944 851 921 861 q 982 829 967 840 q 1099 638 1003 814 m 933 799 q 916 813 933 806 q 876 825 899 819 q 829 834 853 831 q 792 838 806 838 q 715 635 754 729 q 638 472 676 542 q 565 363 600 403 q 499 324 529 324 q 470 333 483 324 q 446 358 457 343 q 428 392 435 374 q 422 426 422 410 q 440 495 422 444 q 486 620 457 546 q 556 785 515 694 q 642 976 596 876 l 492 1040 q 417 1003 467 1033 q 308 933 367 974 q 190 845 249 892 q 88 758 131 799 l 156 626 q 251 732 203 683 q 344 817 300 781 q 423 877 388 854 q 478 904 458 900 q 394 732 433 814 q 325 576 354 650 q 278 435 296 501 q 261 311 261 369 q 273 231 261 271 q 306 160 285 192 q 356 108 328 128 q 418 88 385 88 q 578 192 503 88 q 725 522 653 297 q 778 675 774 675 q 801 650 801 675 q 794 610 801 644 q 776 524 788 576 q 748 408 764 472 q 714 276 732 343 q 677 147 696 210 q 641 34 658 83 q 609 -45 624 -15 q 583 -75 594 -75 q 474 -42 540 -57 q 331 -15 407 -26 q 179 2 256 -4 q 43 8 103 8 l 19 8 q 17 0 17 6 q 24 -41 17 -12 q 43 -99 32 -69 q 65 -149 54 -128 q 83 -171 76 -171 q 246 -158 171 -158 q 333 -161 294 -158 q 418 -173 372 -164 q 526 -199 464 -182 q 681 -246 588 -217 q 701 -151 686 -211 q 738 -22 717 -92 q 781 121 758 47 q 824 258 804 194 q 859 369 844 322 q 878 435 874 417 q 917 622 901 535 q 933 799 933 710 z "},"Z":{"ha":1094,"x_min":-49,"x_max":1149,"o":"m 424 506 q 391 435 407 474 q 357 353 375 397 q 421 422 389 389 q 485 488 453 456 q 452 497 467 493 q 424 506 438 501 m 1043 761 l 1143 586 q 1147 544 1146 564 q 1149 506 1149 524 q 1094 394 1149 417 q 959 321 1028 367 q 811 207 890 275 q 960 14 833 199 q 896 -230 928 -129 q 832 -390 864 -331 q 585 -369 676 -378 q 438 -356 493 -361 q 347 -348 382 -350 q 271 -346 313 -346 l 63 -346 l -49 -176 q 6 -81 -29 -135 q 88 35 42 -26 q 190 163 135 96 q 303 294 244 229 l 79 349 l -22 517 l -32 519 l 158 915 q 285 894 213 906 q 438 873 357 883 q 600 853 518 863 q 755 835 682 843 q 885 824 828 828 q 975 819 943 819 l 1043 761 m 974 750 q 886 754 942 750 q 761 765 831 758 q 614 782 692 772 q 460 801 536 792 q 317 821 385 811 q 199 839 249 831 l 68 568 l 186 540 q 233 652 208 599 q 289 760 257 706 q 353 738 311 750 q 444 714 394 726 q 549 690 494 701 q 649 667 603 678 q 727 650 694 657 q 768 640 760 643 q 672 577 732 625 q 542 463 613 529 q 396 316 471 396 q 254 158 321 236 q 136 10 188 81 q 63 -107 85 -60 l 167 -107 l 221 -107 q 257 -108 240 -107 q 296 -110 274 -108 q 348 -115 318 -111 q 424 -122 378 -118 q 535 -133 471 -126 q 692 -147 600 -139 q 779 144 729 -79 q 644 185 654 185 q 624 157 632 185 q 609 97 617 129 q 593 36 601 64 q 572 8 585 8 q 491 6 528 7 q 424 6 454 6 q 308 10 344 6 q 263 15 271 15 l 442 211 q 724 480 597 381 q 964 628 851 579 q 979 679 979 635 q 978 710 979 693 q 974 750 976 728 z "},"_":{"ha":435,"x_min":0,"x_max":435,"o":"m 0 -156 l 435 -156 l 435 -249 l 0 -249 l 0 -156 z "},"a":{"ha":1072,"x_min":-3,"x_max":1144,"o":"m 757 -115 q 756 -112 756 -114 l 757 -115 m 128 493 q 133 482 129 486 l 128 493 m 497 504 q 450 475 468 504 l 454 460 q 500 447 481 457 q 535 458 519 439 q 538 491 550 478 q 497 504 526 504 m 1144 -190 q 1126 -304 1135 -264 q 1099 -365 1117 -344 q 1051 -389 1082 -385 q 969 -393 1021 -393 l 958 -393 q 668 -308 724 -390 l 639 -261 q 361 -374 515 -374 q 154 -269 217 -374 q -3 54 -3 -50 q 13 194 -3 153 q 84 299 38 249 q 190 388 131 350 l 151 454 q 122 497 136 472 q 97 545 107 521 q 80 591 86 569 q 74 625 74 613 q 108 743 74 686 q 194 844 142 800 q 311 914 247 888 q 435 940 375 940 q 631 883 549 940 q 828 607 714 828 q 882 382 883 515 q 881 350 881 365 q 881 321 881 335 l 881 275 l 881 221 q 883 158 882 192 q 888 89 885 124 q 1026 38 985 81 l 1144 -190 m 467 210 q 444 156 467 188 q 392 97 422 125 q 331 48 363 68 q 282 28 300 28 q 193 122 193 28 q 256 215 193 181 q 422 250 318 250 q 450 236 433 250 q 467 210 467 222 m 975 -8 q 725 21 947 21 q 726 37 725 28 q 726 60 726 46 q 726 99 726 75 q 724 153 725 122 q 722 217 722 185 q 718 281 721 249 q 715 361 717 313 q 711 476 714 410 q 693 689 714 639 q 638 786 675 744 q 549 849 601 826 q 435 871 497 871 q 335 851 386 871 q 241 796 283 831 q 171 717 199 761 q 143 625 143 672 q 147 594 143 614 q 158 556 151 575 q 174 520 165 536 q 190 500 182 504 l 307 535 q 393 743 311 743 q 485 724 443 743 q 556 671 526 704 q 603 591 586 638 q 619 490 619 544 q 615 446 619 474 q 602 391 610 418 q 585 344 594 364 q 565 325 575 325 q 481 371 521 353 q 390 392 440 389 q 290 367 346 392 q 185 304 235 343 q 100 218 138 268 q 67 18 67 169 q 257 -135 67 -135 q 441 -80 357 -135 q 597 93 525 -25 q 644 163 640 165 q 653 100 653 150 q 632 -118 653 17 q 854 -154 656 -151 l 865 -154 q 915 -151 896 -154 q 944 -134 933 -149 q 962 -90 956 -119 q 975 -8 968 -61 z "},"b":{"ha":960,"x_min":-49,"x_max":1024,"o":"m -40 -157 l -49 -153 q -38 -96 -42 -112 q -35 -76 -35 -79 l -33 -76 q -26 -34 -31 -56 q -14 10 -21 -12 q -8 215 -1 49 q -44 339 -44 247 q 44 472 -44 472 l 163 468 l 111 554 l 107 553 l 71 722 q 103 753 72 733 q 182 794 135 772 q 287 838 229 815 q 400 878 344 860 q 501 908 456 897 q 571 919 547 919 q 789 874 701 919 q 908 740 876 828 l 992 603 q 1024 479 1024 546 q 1009 433 1024 460 q 969 376 994 407 q 915 314 946 344 q 878 254 885 282 q 879 203 871 226 l 965 60 q 986 -7 986 26 q 929 -156 986 -87 q 778 -276 872 -225 q 564 -355 685 -326 q 317 -383 443 -383 q 60 -324 174 -383 l -40 -157 m 674 146 q 658 104 674 126 q 619 59 643 82 q 564 16 594 36 q 504 -20 533 -4 q 449 -46 475 -36 q 408 -56 424 -56 q 372 47 372 -56 q 376 165 372 122 q 388 229 379 208 q 412 255 397 250 q 449 260 426 260 q 519 249 481 260 q 593 223 558 239 q 651 187 628 207 q 674 146 674 167 m 667 639 q 636 555 667 600 q 562 471 606 510 q 469 406 518 432 q 386 381 421 381 l 383 381 q 379 463 379 410 q 387 588 379 531 q 410 685 394 644 q 449 747 426 725 q 503 769 472 769 q 556 756 528 769 q 610 724 585 743 q 651 681 635 704 q 667 639 667 658 m 854 653 q 834 735 854 699 q 776 798 814 772 q 687 837 739 824 q 571 850 635 850 q 509 842 549 850 q 422 824 469 835 q 326 798 375 813 q 236 769 276 783 q 169 743 196 756 q 142 724 143 731 l 158 643 l 282 683 q 290 646 290 683 q 283 531 290 593 q 263 394 276 469 l 43 403 q 25 339 25 403 q 35 267 25 267 q 76 279 43 271 q 144 296 108 288 q 211 310 181 304 q 247 317 242 317 q 257 290 257 317 l 257 238 q 253 74 257 146 q 250 -24 250 3 l 250 -36 l 65 32 q 44 -31 51 10 q 29 -114 36 -72 q 213 -144 89 -144 q 435 -121 326 -144 q 629 -56 544 -97 q 765 43 714 -14 q 817 167 817 100 q 797 215 817 189 q 743 268 778 242 q 706 295 726 282 q 663 321 686 308 q 594 357 614 346 q 599 385 574 368 q 674 441 631 406 q 758 515 718 476 q 826 590 799 553 q 854 653 854 628 z "},"c":{"ha":1042,"x_min":-71,"x_max":1179,"o":"m 988 10 q 927 -149 976 -76 q 808 -274 878 -221 q 655 -358 738 -328 q 496 -387 572 -387 q 383 -369 436 -387 q 283 -320 329 -351 q 197 -246 236 -289 q 129 -153 158 -203 l 64 -43 q -37 140 -3 40 q -71 338 -71 240 l -71 363 q -69 385 -71 382 q -26 601 -58 506 q 57 763 7 696 q 174 866 107 829 q 321 907 242 903 q 349 908 324 908 l 406 908 q 538 892 475 908 q 619 865 585 881 q 676 832 653 849 q 715 799 700 815 q 740 772 731 783 l 910 899 q 951 876 929 894 q 977 858 964 868 q 1004 833 990 847 q 1060 759 1018 822 q 1172 582 1101 696 q 1179 569 1176 578 l 843 278 q 717 390 764 350 q 641 450 671 431 q 590 474 611 469 q 540 478 568 478 q 425 435 476 478 q 339 294 374 392 q 324 237 328 267 q 319 176 319 207 q 359 60 322 90 q 450 35 396 29 q 494 54 469 35 q 541 99 518 74 q 581 150 564 125 q 606 186 599 175 q 635 238 617 206 q 676 310 654 269 q 738 297 706 306 q 800 272 771 288 q 853 235 829 258 q 898 167 864 224 q 988 10 932 111 m 997 763 q 985 779 994 769 q 965 798 976 789 q 943 815 954 807 q 925 824 932 822 l 724 674 q 700 720 722 692 q 635 775 678 749 q 529 820 593 801 q 379 839 465 839 l 353 839 l 332 839 q 279 831 313 839 q 201 799 246 824 q 56 631 114 747 q -1 338 -1 514 q 26 169 -1 256 q 106 13 54 83 q 229 -103 157 -58 q 392 -149 301 -149 q 529 -124 458 -149 q 660 -56 600 -100 q 763 47 721 -12 q 815 176 806 107 q 774 217 804 204 q 715 235 743 231 q 681 174 706 218 q 620 84 656 131 q 541 1 585 38 q 450 -35 497 -35 q 338 -12 392 -35 q 242 58 283 11 q 175 178 200 106 q 150 350 150 251 q 166 470 150 415 q 207 567 182 525 q 263 640 232 610 q 322 688 293 671 q 381 711 351 706 q 436 717 410 717 q 504 711 475 717 q 565 687 533 706 q 637 633 596 668 q 740 540 678 599 l 997 763 z "},"d":{"ha":1019,"x_min":-44,"x_max":1069,"o":"m 588 436 l 588 321 l 588 269 l 588 244 q 588 232 588 238 q 586 221 588 226 q 675 310 639 261 q 713 399 711 360 q 697 458 714 438 q 650 496 683 481 q 603 506 619 511 q 588 481 588 501 l 588 436 m 218 999 q 608 952 457 990 q 840 833 758 914 q 965 650 894 781 q 1053 433 1038 518 q 1069 239 1069 347 l 1069 231 q 1025 -2 1068 100 q 899 -174 982 -104 q 697 -281 817 -244 q 421 -318 576 -318 l 65 -318 l -44 -143 l 13 117 q 125 121 76 121 q 218 147 204 121 q 236 281 232 169 q 240 536 240 386 l 82 540 l -28 710 q 3 858 -10 800 q 29 948 15 915 q 60 993 43 981 q 103 1006 76 1006 l 122 1006 q 167 1002 142 1006 q 215 999 192 999 l 218 999 m 783 406 q 745 294 782 351 q 653 190 708 238 q 531 109 597 142 q 403 71 464 76 q 414 243 410 111 q 418 610 418 375 q 413 768 418 758 q 553 739 486 768 q 672 661 621 710 q 753 547 722 613 q 783 411 783 482 l 783 406 m 215 929 q 188 931 203 929 q 160 933 174 932 q 136 935 146 933 q 122 936 126 936 l 103 936 q 93 930 97 936 q 85 907 89 924 q 74 861 81 890 q 58 786 68 832 l 275 803 q 310 536 310 804 q 306 259 310 372 q 292 75 301 146 q 69 50 289 64 l 42 -75 l 317 -79 q 565 -49 460 -82 q 746 47 671 -15 q 860 201 821 111 q 899 421 899 290 q 870 647 900 553 q 763 801 840 740 q 552 892 685 861 q 215 929 419 922 z "},"e":{"ha":1013,"x_min":-18,"x_max":1065,"o":"m 535 89 q 671 222 626 89 l 501 92 q 513 90 508 90 q 518 89 517 89 l 535 89 m 965 250 l 1065 83 l 1065 51 q 1041 -49 1065 4 q 976 -153 1017 -101 q 882 -252 936 -204 q 768 -337 828 -300 q 646 -396 708 -374 q 526 -419 583 -418 l 511 -419 q 312 -369 399 -419 q 171 -226 225 -318 l 101 -110 q 13 57 43 -39 q -18 271 -18 153 q 24 532 -18 410 q 142 750 67 654 q 313 900 214 843 q 500 956 410 956 q 640 940 583 956 q 790 839 738 910 q 823 788 801 824 q 875 700 844 753 q 924 608 906 647 q 947 544 942 569 q 829 344 960 496 q 965 250 901 313 m 251 340 q 219 351 225 339 q 219 451 213 364 q 230 531 222 496 q 251 592 238 565 q 330 690 278 644 q 461 749 382 736 q 574 739 535 763 q 640 663 608 717 l 251 340 m 896 228 q 763 303 822 292 q 694 92 753 164 q 535 19 635 19 q 438 38 486 19 q 351 88 390 57 q 288 159 313 119 q 261 242 263 199 l 792 653 q 774 732 786 690 q 733 808 763 774 q 652 864 704 842 q 514 886 600 886 q 340 836 426 886 q 190 701 254 786 q 89 505 126 617 q 51 271 51 393 q 76 88 51 171 q 147 -54 101 6 q 197 -106 169 -82 q 258 -147 224 -129 q 399 -180 326 -181 q 526 -160 471 -179 q 661 -92 594 -136 q 780 5 728 -49 q 864 116 832 58 q 896 225 896 174 l 896 228 z "},"f":{"ha":976,"x_min":-106,"x_max":1097,"o":"m 558 -28 q 557 -26 558 -26 l 557 -25 l 558 -28 m 457 142 q 458 138 457 139 l 457 142 m 688 133 l 692 125 l 632 225 q 599 228 615 226 q 565 229 582 229 q 558 188 561 211 q 553 132 556 164 q 574 133 572 132 l 649 133 q 653 114 650 121 l 749 -44 q 757 -82 754 -68 q 760 -110 758 -89 q 763 -171 761 -132 q 692 -308 764 -249 q 616 -306 660 -307 q 542 -304 572 -304 l 431 -304 q 347 -305 393 -304 q 253 -307 300 -306 q 166 -310 207 -308 q 99 -314 125 -312 l -4 -143 q -8 -144 -7 -143 q -11 -144 -8 -144 l 36 125 l 186 131 q 178 194 181 163 q 176 258 176 226 q 179 322 176 288 q 188 394 182 357 q 119 408 164 397 q 4 439 75 418 l -96 607 q -106 610 -92 607 q -41 769 -83 681 q 68 938 1 857 q 241 1110 168 1056 q 346 1167 314 1164 q 422 1131 379 1161 q 585 921 460 1104 q 621 913 603 917 q 658 903 639 908 q 706 931 696 892 q 701 1000 717 968 q 882 1167 735 1115 q 894 1140 889 1153 q 907 1115 900 1128 l 985 988 q 1038 883 1018 933 q 1071 785 1058 832 q 1089 695 1083 738 q 1097 615 1094 653 q 1068 417 1097 518 q 881 425 924 406 q 943 96 940 304 q 865 79 893 83 q 815 75 836 75 q 731 88 760 75 q 692 125 703 101 l 688 133 m 901 608 q 928 789 928 692 q 909 931 928 860 q 849 1082 890 1003 q 774 1007 788 1061 q 806 869 806 935 q 797 790 806 832 q 290 889 486 889 l 267 889 q 411 1058 315 975 q 342 1097 379 1090 q 269 1049 328 1097 q 126 899 210 1000 q 28 753 60 815 q -18 657 -3 692 q 55 639 26 644 q 97 633 83 633 l 101 633 q 138 716 121 685 q 174 763 156 747 q 215 784 193 779 q 265 789 236 789 q 350 774 301 789 q 315 653 333 721 q 281 515 297 585 q 256 377 265 444 q 246 258 246 310 q 271 64 246 151 l 94 57 l 72 -71 q 188 -67 125 -68 q 326 -65 251 -65 l 438 -65 q 499 -66 468 -65 q 563 -68 531 -67 q 594 31 594 -40 l 594 46 q 593 64 594 63 q 556 62 574 63 q 519 61 538 61 l 499 61 q 447 65 469 61 q 410 83 425 68 q 388 128 396 97 q 381 215 381 160 l 381 242 q 414 469 389 419 q 647 449 519 469 q 642 394 642 433 l 642 367 q 653 329 642 344 q 711 314 664 314 q 741 315 726 314 q 772 321 756 317 q 733 540 771 467 l 429 563 q 483 743 429 626 q 554 729 511 736 q 651 708 597 722 q 769 672 706 694 q 901 608 832 649 z "},"g":{"ha":1182,"x_min":-19,"x_max":1335,"o":"m 704 486 q 691 485 697 486 q 678 483 685 485 q 746 452 708 471 q 824 414 783 433 q 777 470 806 454 q 704 486 749 486 m 468 340 q 411 210 432 265 q 388 118 390 154 q 449 110 414 110 q 547 135 503 110 l 469 265 q 466 266 467 265 q 463 267 465 267 q 483 319 465 285 q 468 340 503 356 m 1218 1017 l 1315 856 l 1335 763 q 1263 657 1301 715 q 1182 532 1224 599 q 1140 467 1161 500 q 1099 400 1119 433 q 1111 122 1058 333 q 1072 -224 1085 -17 q 1058 -722 1058 -432 q 837 -702 947 -714 q 623 -679 726 -690 q 426 -660 519 -668 q 256 -653 332 -653 q 151 -647 185 -653 q 104 -618 118 -642 l 13 -464 q -15 -420 -10 -450 q -19 -335 -19 -390 q 99 -157 -19 -157 l 100 -157 q 137 -155 119 -156 q 169 -153 154 -154 q 167 -49 201 -153 q 89 92 117 11 q 61 269 61 174 q 86 428 61 346 q 155 590 111 511 q 256 740 199 669 q 378 865 314 811 q 512 949 443 918 q 644 981 581 981 q 803 953 747 981 q 890 882 860 926 l 1025 1097 q 1215 1033 1151 1072 l 1218 1017 m 1176 974 q 1060 1019 1124 1007 l 879 728 q 855 800 868 767 q 817 858 842 833 q 751 897 792 883 q 644 911 711 911 q 527 883 588 911 q 410 806 467 854 q 302 694 353 758 q 213 559 251 631 q 153 413 175 488 q 131 269 131 339 q 152 124 131 192 q 213 6 174 57 q 306 -75 251 -46 q 425 -104 360 -104 q 689 72 525 -104 q 746 133 747 133 q 767 116 757 133 q 783 69 776 99 q 794 1 790 40 q 797 -82 797 -39 q 765 -242 797 -242 l 764 -242 q 463 -224 567 -231 q 339 -218 360 -218 q 103 -226 315 -218 l 99 -226 q 50 -335 50 -226 q 53 -378 50 -362 q 65 -401 56 -393 q 95 -412 75 -410 q 151 -414 115 -414 q 314 -421 225 -414 q 499 -437 403 -428 q 694 -458 594 -447 q 889 -478 793 -469 q 939 289 889 31 q 913 310 936 296 q 857 340 890 324 q 785 373 824 356 q 711 404 746 390 q 650 427 676 418 q 617 436 624 436 q 598 422 610 436 q 574 390 586 408 q 551 355 561 372 q 540 329 542 338 q 598 327 568 328 q 652 323 628 326 q 692 312 676 319 q 708 289 708 304 q 688 190 708 235 q 633 111 668 144 q 550 59 597 78 q 449 40 503 40 q 279 103 340 40 q 218 274 218 165 q 233 376 218 324 q 276 479 249 429 q 340 574 304 529 q 419 652 376 618 q 508 706 463 686 q 600 725 554 725 q 699 713 660 725 q 765 672 738 700 q 816 600 793 644 q 867 492 839 556 q 1020 741 943 622 q 1176 974 1097 860 z "},"h":{"ha":1042,"x_min":-43,"x_max":1161,"o":"m 474 186 q 490 187 482 186 q 508 189 499 188 q 528 152 519 169 q 544 118 538 135 l 610 11 q 643 -43 628 -18 q 674 -90 658 -68 q 665 81 668 10 q 660 206 663 153 l 472 211 l 474 208 l 474 186 m 1140 665 q 1161 508 1161 569 l 949 508 q 987 262 971 383 q 1016 19 1003 140 q 1042 -226 1029 -103 q 1072 -475 1056 -349 q 310 -542 672 -542 q 263 -541 290 -542 q 208 -540 236 -540 q 152 -538 179 -539 q 106 -537 125 -537 q -25 -296 -18 -324 q -32 -250 -32 -257 q -29 -217 -32 -233 q -18 -183 -26 -200 q -12 -65 -8 -90 q -17 -49 -15 -56 q -19 -36 -18 -42 q -22 -15 -21 -29 q -22 19 -22 -1 q 49 174 -25 63 l 138 171 q 144 267 140 219 q 147 376 147 314 l 147 394 q 149 411 147 408 l 149 418 q 151 445 150 432 q 151 472 151 458 q 152 499 151 486 q 154 526 153 513 l 75 529 l -26 699 l -33 699 q -40 756 -37 728 q -43 800 -43 785 q -23 883 -43 844 q 33 956 -3 921 l 440 964 q 535 929 514 939 q 586 940 560 918 q 647 965 615 961 q 710 958 671 963 q 807 953 749 954 q 863 950 839 951 q 906 946 888 949 q 964 929 943 939 q 1140 665 986 919 m 992 747 q 974 813 992 779 q 933 868 957 847 q 911 873 931 871 q 863 878 892 875 q 801 883 835 881 q 738 887 768 885 q 683 891 707 889 q 651 894 660 893 q 600 860 622 890 q 578 796 578 829 q 594 756 578 769 l 678 750 q 683 722 678 747 q 692 666 688 697 q 702 606 697 635 q 707 568 707 578 q 700 543 707 547 l 406 543 q 373 545 389 544 q 344 551 357 546 q 322 566 331 556 q 314 597 314 576 l 319 756 l 368 756 q 482 764 475 756 q 488 804 488 769 l 488 825 q 431 894 485 875 l 61 886 q 26 800 26 856 q 27 784 26 793 q 29 767 28 775 l 217 760 q 226 653 226 746 q 224 559 226 624 q 219 415 222 494 q 213 252 217 336 q 204 100 208 168 l 85 103 q 46 -4 46 43 l 46 -17 q 49 -29 46 -15 q 140 -15 88 -19 q 260 -11 193 -11 q 492 -15 385 -11 q 497 28 497 1 q 471 117 497 74 q 388 113 422 113 q 304 128 319 113 l 304 378 q 317 436 307 422 q 357 450 326 450 l 658 443 q 690 415 676 442 q 713 320 703 388 q 731 139 724 253 q 747 -150 739 25 q 522 -174 635 -167 q 290 -182 408 -182 q 204 -181 246 -182 q 131 -181 163 -181 q 77 -186 99 -182 q 51 -199 56 -190 q 40 -238 46 -215 q 47 -300 33 -261 q 127 -302 88 -301 q 206 -303 167 -303 q 894 -249 569 -303 q 865 0 878 -125 q 839 250 853 125 q 808 499 825 375 q 767 747 792 624 l 992 747 z "},"i":{"ha":533,"x_min":-49,"x_max":586,"o":"m -21 -47 q -12 32 -21 -12 q 10 115 -4 76 q 44 181 25 154 q 85 207 64 207 q 107 205 94 207 q 138 200 119 203 q 147 262 142 229 q 158 331 153 294 l 58 497 l 54 496 q 38 549 43 529 q 29 579 32 568 q 25 594 26 590 l 25 632 q 38 697 25 664 l -12 783 q -49 890 -49 815 q -40 945 -49 917 q -14 997 -31 974 q 26 1034 3 1019 q 76 1049 49 1049 q 169 1019 131 1049 q 222 944 208 989 l 275 858 q 315 875 294 865 q 361 903 335 885 q 536 669 432 871 q 553 601 553 640 q 545 542 553 589 q 527 432 538 496 q 504 294 517 368 q 482 153 492 221 l 586 -24 q 584 -40 586 -25 q 579 -83 582 -56 q 567 -167 572 -142 q 535 -233 560 -206 q 453 -261 511 -261 l 88 -217 l -21 -47 m 361 103 q 340 104 360 104 l 288 104 q 282 136 282 110 q 290 190 282 143 q 308 304 297 238 q 333 448 319 371 q 357 594 346 525 q 376 713 368 663 q 383 775 383 763 q 369 824 383 818 q 296 792 342 804 q 204 760 250 779 q 126 708 158 740 q 94 636 94 676 q 96 592 94 593 l 272 676 q 276 654 276 674 q 271 606 276 646 q 257 511 265 567 q 238 391 249 456 q 219 269 228 326 q 203 169 210 211 q 196 113 197 126 q 85 138 125 138 q 71 125 78 138 q 59 94 64 113 q 51 53 54 75 q 49 15 49 32 l 357 -22 q 385 -10 376 -22 q 399 22 394 3 q 403 60 403 40 q 407 96 404 81 l 361 103 m 160 901 q 136 956 160 933 q 76 979 113 979 q 54 971 64 979 q 37 950 44 963 q 25 922 29 938 q 21 890 21 906 q 72 826 21 826 q 102 833 86 826 q 131 849 118 839 q 151 873 143 860 q 160 901 160 886 z "},"j":{"ha":835,"x_min":-53,"x_max":886,"o":"m 750 733 q 776 677 765 703 q 786 615 786 651 q 631 525 786 558 q 653 470 640 501 q 681 407 667 439 q 693 379 688 392 q 705 353 699 367 q 719 325 711 340 q 738 289 726 310 q 785 190 758 247 q 835 75 813 133 q 872 -35 857 17 q 886 -129 886 -86 q 813 -325 886 -226 l 811 -325 q 433 -533 653 -533 q 251 -486 336 -533 l 251 -487 q 164 -433 199 -461 q 106 -368 129 -406 l 24 -232 q -13 -176 1 -207 q -37 -107 -28 -146 q -49 -19 -46 -68 q -53 94 -53 31 q -31 244 -53 182 q 29 344 -8 306 q 115 400 67 382 q 218 418 164 418 q 372 326 347 418 l 460 182 q 478 110 478 151 q 463 79 478 104 q 427 26 447 54 q 388 -26 407 -3 q 360 -49 368 -49 q 306 -31 332 -49 q 274 -62 269 -37 q 285 -90 278 -90 q 369 -81 326 -90 q 448 -53 413 -71 q 506 -13 483 -36 q 529 38 529 10 q 381 478 529 192 l 281 435 l 174 603 l 122 867 q 194 880 150 871 q 286 901 238 889 q 383 925 335 913 q 468 949 431 938 l 468 950 q 492 957 478 956 l 492 958 q 513 964 499 961 q 544 969 528 967 l 549 969 q 551 970 550 969 q 553 971 551 971 q 625 938 589 971 q 675 857 661 906 l 750 733 m 656 -112 q 717 44 717 -31 q 696 155 717 92 q 644 286 675 218 q 581 422 614 354 q 522 543 547 489 q 461 690 481 639 q 440 751 442 740 q 617 789 617 774 q 610 830 617 810 q 594 866 604 850 q 574 892 585 882 q 553 901 563 901 q 529 897 544 901 q 494 885 514 892 q 416 863 460 875 q 331 841 372 851 q 255 822 289 831 q 204 811 221 814 l 225 701 l 314 740 q 599 38 599 276 q 582 -22 599 6 q 537 -74 565 -50 q 471 -115 508 -97 q 393 -144 433 -133 q 267 -160 329 -160 q 140 -111 197 -160 q 83 25 83 -62 q 214 210 83 210 q 235 200 221 210 q 256 190 249 190 q 268 203 260 190 q 285 233 276 217 q 301 265 294 250 q 308 283 308 281 q 218 349 308 349 q 142 335 178 349 q 78 290 106 321 q 33 211 50 260 q 17 94 17 163 q 20 -15 17 32 q 33 -97 24 -61 q 58 -158 43 -132 q 97 -204 74 -183 q 135 -233 113 -218 q 188 -262 157 -247 q 383 -294 249 -294 q 656 -112 518 -294 z "},"k":{"ha":1061,"x_min":-12,"x_max":1110,"o":"m 549 756 q 440 785 503 768 q 445 774 443 779 q 450 764 447 769 l 496 689 q 521 722 508 706 q 549 756 533 739 m 122 483 q 83 549 100 510 q 57 636 67 588 q 133 697 90 663 q 217 767 175 732 q 296 835 258 803 q 357 888 333 867 q 414 831 389 864 l 854 997 l 1110 379 l 878 503 l 874 499 q 896 457 888 485 q 1108 69 1001 283 q 1105 26 1108 63 q 1096 -60 1101 -11 q 1083 -160 1090 -108 q 1069 -249 1076 -212 q 669 -374 874 -272 q 586 -308 592 -279 q 580 -338 583 -324 q 574 -368 576 -353 l 96 -264 l -12 -94 q 82 111 -12 67 l 264 68 q 266 168 265 121 q 267 260 267 215 q 222 331 257 275 q 122 483 186 386 m 813 907 l 583 821 q 624 808 603 815 q 668 789 644 800 q 531 620 589 701 q 432 460 472 539 q 361 799 431 750 q 257 710 314 758 q 132 608 200 663 q 168 522 146 533 l 311 618 q 336 260 336 489 q 335 128 336 197 q 329 -19 333 60 l 89 38 q 57 -37 57 22 l 419 -117 q 437 -2 431 -64 q 443 132 443 60 l 443 163 l 443 178 q 442 193 443 192 q 457 206 442 194 q 496 235 472 218 q 547 273 519 253 q 601 310 575 293 q 649 338 628 326 q 678 349 669 349 q 711 339 700 349 q 722 297 722 329 q 715 257 722 286 q 698 190 708 228 q 676 109 688 151 q 653 28 664 67 q 636 -41 643 -11 q 629 -83 629 -71 q 630 -89 629 -86 q 631 -94 631 -92 q 911 -15 751 -33 q 922 40 917 11 q 931 92 926 68 q 937 133 935 117 q 939 151 939 150 q 725 36 801 103 q 839 381 836 274 l 839 385 q 744 515 839 483 l 460 328 q 602 562 528 454 q 760 758 676 669 l 889 689 l 813 907 z "},"l":{"ha":981,"x_min":-43,"x_max":1025,"o":"m 925 207 l 1025 32 l 940 -347 q 686 -335 771 -342 q 607 -331 643 -332 q 540 -332 571 -331 q 335 -347 453 -339 q 65 -368 217 -356 l -36 -197 q -40 -198 -39 -197 q -43 -199 -40 -199 q -30 -87 -35 -135 q -26 0 -25 -40 q -28 34 -26 21 q -31 59 -29 47 q -34 83 -32 71 q -37 111 -36 94 l 153 111 l 164 464 l 76 456 l -25 625 l -35 625 l 93 908 l 632 919 q 631 915 632 918 q 631 908 631 913 l 732 742 q 729 626 732 674 q 719 533 726 578 l 531 458 q 510 313 517 390 q 503 143 504 235 q 599 151 551 147 q 681 156 647 154 q 708 231 690 188 q 749 333 725 275 l 925 207 m 778 228 q 739 94 739 146 q 655 85 696 88 q 563 78 614 82 q 454 71 511 75 q 344 64 397 67 q 336 151 339 103 q 333 258 333 200 q 372 692 333 540 l 375 692 q 408 696 379 692 q 469 705 436 700 q 528 714 503 710 q 551 717 554 718 q 557 773 554 740 q 563 849 560 806 l 139 840 l 78 704 l 229 717 l 221 42 l 43 42 q 44 -6 44 40 q 42 -72 44 -46 q 38 -122 40 -99 q 347 -99 240 -107 q 481 -90 454 -90 q 570 -94 494 -90 q 785 -106 646 -99 l 847 178 l 778 228 z "},"m":{"ha":1253,"x_min":-54,"x_max":1300,"o":"m 1300 -26 l 1257 -307 q 1146 -322 1196 -312 q 1042 -347 1096 -331 q 926 -390 989 -364 q 779 -457 864 -417 q 500 -424 593 -381 l 57 -229 l -43 -61 l -54 -57 l 118 172 q 169 142 143 157 q 222 114 196 128 q 182 318 199 211 q 165 533 165 425 q 396 921 165 921 q 552 886 493 921 q 646 772 611 851 q 753 889 694 851 q 901 926 811 926 q 1027 898 976 926 q 1104 799 1078 869 l 1181 671 q 1217 572 1203 628 q 1231 425 1231 515 q 1217 271 1231 342 q 1186 149 1204 200 l 1300 -26 m 1118 64 l 892 15 q 937 132 910 64 q 1001 292 964 200 q 1040 414 1019 333 q 1061 599 1061 494 q 1051 722 1061 672 q 1022 802 1042 772 q 972 844 1001 832 q 901 857 942 857 q 813 840 851 857 q 744 789 775 824 q 684 701 713 754 q 625 575 656 647 q 597 703 614 650 q 553 788 581 756 q 488 836 526 821 q 396 851 450 851 q 235 533 235 851 q 244 383 235 458 q 267 235 253 307 q 300 95 282 163 q 336 -29 318 28 q 265 10 314 -18 q 138 82 217 38 l 54 -29 l 397 -179 q 482 -46 451 -156 q 321 285 321 58 q 345 465 321 410 q 413 519 369 519 q 500 487 461 519 q 547 396 539 454 l 581 183 q 590 184 578 183 q 617 186 601 185 q 647 190 633 188 q 660 197 660 193 q 672 376 664 306 q 695 486 681 446 q 733 542 710 526 q 788 557 756 557 q 847 531 828 557 q 867 442 867 504 q 849 242 867 331 q 803 90 832 153 q 737 -12 775 26 q 657 -61 699 -50 l 710 -194 q 830 -140 779 -161 q 924 -104 881 -118 q 1008 -83 968 -90 q 1097 -72 1049 -76 l 1118 64 z "},"n":{"ha":1006,"x_min":-94,"x_max":1054,"o":"m 1011 -39 q 1014 -44 1011 -42 l 1017 -49 l 1011 -39 m 606 401 q 562 356 581 376 q 532 317 543 335 l 546 153 q 606 401 617 336 m 989 563 q 1008 413 1008 478 q 993 247 1008 338 q 946 68 978 156 l 1011 -39 l 1010 -39 l 1014 -44 q 1033 -73 1025 -56 q 1045 -108 1040 -90 q 1052 -144 1050 -126 q 1054 -174 1054 -161 q 1049 -229 1054 -193 q 1035 -324 1044 -265 q 436 -306 490 -290 q 389 -322 413 -314 q 342 -340 365 -331 q 254 -378 296 -358 q 185 -414 213 -397 l 83 -244 q 76 -249 79 -246 l 83 38 l 200 107 q 185 224 193 169 q 168 326 176 279 l 117 307 q 35 394 75 329 q -94 678 -90 571 l 306 906 l 310 886 l 361 801 q 367 806 364 804 q 372 811 369 808 l 372 810 q 635 892 467 892 l 643 892 q 989 563 839 889 m 876 -83 q 885 0 885 -36 q 856 100 885 67 q 760 66 803 81 q 686 44 718 51 q 800 326 761 188 q 839 586 839 464 q 830 686 839 642 q 798 760 821 731 q 738 806 775 790 q 643 822 700 822 l 635 822 q 505 802 560 822 q 411 751 450 782 q 348 681 372 719 q 310 604 324 642 l 260 799 l -24 638 q 18 553 -21 575 l 151 606 q 275 68 231 497 l 151 -4 l 149 -125 q 203 -99 169 -112 q 275 -72 238 -85 q 349 -50 313 -60 q 408 -37 385 -40 l 361 508 q 465 626 408 583 q 592 669 521 669 q 724 538 724 669 q 715 455 724 501 q 685 338 707 408 q 627 167 664 268 q 535 -78 590 67 l 876 -83 z "},"o":{"ha":889,"x_min":-40,"x_max":957,"o":"m 572 378 q 578 406 576 390 q 579 442 579 422 l 579 453 q 578 464 579 461 q 572 476 578 469 q 553 482 565 482 q 521 475 540 482 q 476 450 501 468 q 385 358 426 414 q 314 235 343 301 q 297 133 286 168 q 342 99 307 99 q 410 124 375 99 q 478 188 446 149 q 535 276 510 228 q 571 374 560 325 l 572 378 m 8 -14 q -40 246 -40 153 q 1 489 -40 371 q 110 698 42 607 q 270 844 179 789 q 461 900 361 900 q 894 565 735 900 q 957 289 957 461 q 917 42 957 157 q 803 -160 876 -74 q 627 -296 731 -246 q 397 -346 524 -346 q 240 -307 304 -346 q 8 -14 172 -267 m 639 357 q 594 242 625 300 q 521 137 563 185 q 433 59 479 89 q 342 29 386 29 q 171 92 229 29 q 113 263 113 154 q 128 363 113 310 q 169 467 143 415 q 231 566 196 519 q 306 649 267 613 q 389 706 346 685 q 472 726 432 726 q 545 703 513 726 q 601 642 578 681 q 636 552 624 604 q 649 442 649 500 q 639 357 649 382 m 788 463 q 461 831 788 831 q 297 781 375 831 q 158 650 218 732 q 64 463 99 568 q 29 246 29 357 q 47 105 29 169 q 97 -7 64 40 q 180 -81 131 -54 q 293 -107 229 -107 q 497 -62 406 -107 q 652 60 588 -17 q 752 241 717 138 q 788 463 788 344 z "},"p":{"ha":911,"x_min":-47,"x_max":1007,"o":"m 554 6 l 656 -162 q 641 -238 649 -200 q 621 -314 633 -276 q 591 -387 608 -351 q 547 -454 574 -422 q 503 -448 540 -453 q 416 -437 467 -443 q 306 -425 365 -432 q 196 -412 247 -418 q 107 -403 144 -407 q 61 -400 69 -400 l -47 -231 q -40 -155 -44 -194 q -28 -78 -35 -115 q -14 -6 -22 -40 q 4 53 -6 28 q 23 52 8 53 q 58 51 38 51 q 105 48 79 50 q 156 43 131 46 q 184 241 167 135 q 217 440 201 347 l 88 432 l -15 601 l -22 601 q 13 755 1 697 q 38 843 25 813 q 74 883 51 874 q 140 892 96 892 l 150 892 q 156 891 153 892 q 163 890 160 890 l 181 890 q 460 876 339 890 q 669 831 582 861 q 810 755 756 801 q 888 646 864 708 l 968 513 q 1007 358 1007 449 q 966 228 1007 288 q 854 125 925 168 q 697 58 785 81 q 617 34 653 47 q 554 6 582 21 m 633 535 q 583 460 633 499 q 449 390 532 422 q 388 372 408 372 q 385 374 385 372 q 406 603 406 474 q 405 626 406 617 q 403 643 404 636 q 491 635 449 643 q 565 613 533 628 q 615 579 596 599 q 633 535 633 560 m 838 532 q 797 666 838 611 q 672 755 757 721 q 455 805 588 789 q 139 821 322 821 q 113 816 122 821 q 96 797 103 811 q 83 753 89 782 q 67 676 76 724 l 271 690 q 313 621 313 690 q 306 571 313 611 q 290 472 300 531 q 269 344 281 414 q 248 204 258 274 q 229 71 238 135 q 218 -37 221 7 q 172 -26 199 -31 q 119 -20 144 -22 q 75 -17 94 -18 q 51 -17 56 -17 q 37 -79 43 -37 q 28 -161 31 -121 q 65 -164 35 -161 q 136 -172 94 -167 q 225 -182 178 -176 q 313 -192 272 -187 q 384 -201 354 -197 q 419 -207 414 -206 q 454 -135 443 -178 q 474 -49 465 -92 l 310 -37 q 331 111 318 33 q 358 278 343 189 q 413 274 376 274 q 569 292 493 274 q 706 346 646 311 q 801 428 765 381 q 838 532 838 475 z "},"q":{"ha":986,"x_min":-112,"x_max":1035,"o":"m 906 524 q 901 531 903 526 l 906 524 m 256 0 q 251 7 253 3 l 256 0 m 226 119 q 278 110 244 110 q 297 110 288 110 q 314 113 306 111 q 226 128 232 219 l 226 119 m 490 476 q 475 425 482 475 l 557 289 l 578 246 q 624 400 632 339 q 594 472 615 461 q 547 483 575 483 q 522 481 536 483 q 490 476 507 479 m 24 -56 q -33 33 -8 -15 q -76 130 -58 81 q -103 224 -94 179 q -112 306 -112 269 q -72 548 -112 435 q 35 746 -32 661 q 189 879 101 831 q 371 928 276 928 l 383 928 q 458 922 426 925 q 514 913 490 918 q 556 901 538 907 q 593 888 575 894 l 593 886 q 740 785 674 856 q 792 716 768 760 q 844 625 817 672 l 906 524 q 942 460 924 493 q 974 389 960 426 q 998 309 989 351 q 1007 218 1007 267 q 996 116 1007 164 q 967 26 985 68 q 929 -47 947 -19 q 1035 -322 908 -81 l 886 -761 l 535 -610 l 433 -442 l 426 -439 l 439 -349 q 422 -350 438 -350 l 404 -350 l 381 -350 q 276 -335 321 -350 q 198 -297 232 -321 q 139 -240 164 -272 q 92 -169 114 -207 l 24 -56 m 425 371 q 332 290 363 336 l 406 58 q 282 40 364 44 q 188 59 229 40 q 117 111 146 78 q 72 188 88 144 q 57 282 57 232 l 57 301 q 69 398 60 356 q 96 478 78 440 q 141 549 114 515 q 207 621 168 583 q 443 722 313 722 q 539 696 492 722 q 623 628 586 669 q 682 540 660 588 q 704 450 704 492 q 556 103 704 256 l 425 371 m 722 -303 q 706 -262 719 -293 q 673 -191 692 -231 q 635 -112 654 -151 q 601 -44 615 -72 q 674 40 644 6 q 733 110 704 74 q 769 160 751 131 q 803 225 788 189 q 828 303 818 261 q 838 390 838 344 q 822 498 838 444 q 784 597 807 551 q 736 679 761 643 q 690 736 711 715 q 636 787 663 765 q 576 824 610 808 q 495 847 542 839 q 382 858 449 856 l 371 858 q 217 815 292 858 q 84 696 142 771 q -8 520 26 621 q -43 306 -43 419 q -33 228 -43 272 q -6 138 -24 185 q 38 47 13 92 q 96 -33 64 1 q 167 -90 129 -68 q 276 -111 206 -111 l 300 -111 q 350 -109 331 -111 q 385 -103 369 -107 q 417 -95 401 -100 q 458 -83 433 -90 l 629 -379 q 559 -383 594 -381 q 486 -389 524 -385 l 743 -500 l 861 -153 l 722 -303 z "},"r":{"ha":971,"x_min":-49,"x_max":1029,"o":"m 639 796 q 792 753 728 796 q 943 542 857 710 q 1029 332 1029 372 q 1010 250 1029 288 q 958 185 990 213 q 885 141 926 157 q 800 125 843 125 q 681 179 714 125 q 558 249 581 283 q 535 213 547 232 q 513 171 524 193 l 494 51 l 554 49 l 653 -129 q 563 -349 606 -301 q 433 -343 504 -346 q 293 -338 363 -340 q 163 -335 224 -336 q 60 -333 101 -333 l -49 -164 l -21 64 l 138 57 q 149 178 140 89 q 169 424 157 268 l 147 404 l 44 575 l 57 808 q 295 843 196 828 q 453 865 394 858 q 452 860 453 863 q 451 856 451 858 l 504 767 q 571 788 536 781 q 639 796 606 796 m 847 569 q 639 726 789 726 q 547 710 593 726 q 461 665 500 693 q 394 601 422 638 q 356 525 365 564 q 364 635 358 569 q 376 785 369 700 q 272 770 335 779 q 122 749 210 761 l 108 572 q 128 575 104 572 q 181 581 151 578 q 234 586 210 583 q 254 589 258 589 q 178 -14 204 4 l 42 -8 l 31 -96 q 429 -108 194 -99 q 463 -17 439 -96 l 292 -8 l 344 365 q 608 618 476 618 q 652 609 631 618 q 692 585 674 600 q 721 551 710 569 q 732 511 732 532 q 719 488 732 493 q 675 508 696 508 q 637 487 651 508 q 622 436 622 465 q 696 364 622 364 q 756 375 726 364 q 809 405 786 386 q 846 449 832 424 q 860 506 860 475 q 847 569 860 536 z "},"s":{"ha":1079,"x_min":-56,"x_max":1128,"o":"m 524 -122 q 522 -119 522 -119 q 519 -115 521 -118 l 524 -122 m 553 29 q 515 15 533 21 q 479 1 497 8 q 538 -6 514 -6 q 618 13 583 -6 q 671 67 653 32 q 617 52 646 63 q 553 29 588 42 m 1035 163 q 1085 47 1064 104 q 1113 -86 1107 -11 l 1113 -92 q 1099 -148 1113 -118 q 1060 -208 1085 -178 q 1001 -269 1035 -239 q 929 -326 968 -299 q 819 -393 876 -364 q 704 -439 763 -422 q 549 -457 654 -457 q 319 -237 451 -457 q 208 -251 275 -242 q 53 -276 142 -261 q -56 -107 -54 -106 q -53 -81 -56 -100 q -47 -42 -50 -62 q -42 -3 -44 -21 q -39 18 -39 14 q -30 68 -35 43 q -15 115 -25 93 q 12 156 -4 138 q 56 189 28 175 l 188 189 l 171 215 q 106 338 129 264 q 82 486 82 411 q 103 629 82 560 q 163 752 125 699 q 253 838 200 806 q 368 869 306 869 q 525 814 444 869 l 525 817 q 563 786 540 808 q 610 740 585 764 l 622 728 q 660 817 638 769 q 708 904 682 864 q 759 971 733 944 q 808 997 785 997 q 897 969 844 997 q 1128 719 951 942 q 1005 538 1065 628 q 904 376 944 447 q 967 276 942 332 l 1042 151 l 1035 163 m 943 86 q 918 215 939 154 q 862 322 897 276 q 778 395 826 368 q 672 422 731 422 l 543 401 q 464 390 499 394 q 403 386 429 386 q 242 508 242 386 q 340 642 242 642 q 464 607 390 642 q 625 510 538 572 q 688 464 689 464 q 718 537 694 492 q 775 638 742 582 q 849 753 808 693 q 929 872 889 814 q 857 913 886 897 q 808 928 828 928 q 788 906 801 928 q 758 849 775 883 q 722 776 740 815 q 685 703 703 738 q 654 647 668 669 q 633 625 640 625 q 614 642 631 625 q 574 680 597 658 q 528 723 551 701 q 492 754 506 744 q 368 800 426 800 q 281 774 321 800 q 213 703 242 747 q 167 603 183 660 q 151 486 151 546 q 162 393 151 440 q 190 308 172 346 q 234 247 208 271 q 290 224 260 224 q 330 230 307 224 q 376 245 353 236 q 424 264 400 254 q 468 281 449 274 q 622 314 565 314 q 757 140 757 314 q 697 -16 757 43 q 538 -75 638 -75 q 454 -67 486 -75 q 399 -39 422 -60 q 358 20 376 -18 q 315 119 339 58 l 72 119 q 53 99 61 114 q 41 63 46 83 q 33 20 36 43 q 25 -25 29 -3 q 278 4 201 4 q 311 0 300 4 q 494 -218 311 -218 q 588 -204 538 -218 q 688 -166 638 -190 q 783 -111 738 -142 q 865 -47 829 -81 q 922 19 900 -14 q 943 82 943 53 l 943 86 z "},"t":{"ha":822,"x_min":-181,"x_max":872,"o":"m 563 -36 q 559 -31 560 -33 q 556 -25 558 -28 l 563 -36 m 500 318 q 491 293 494 306 q 482 268 488 281 l 607 331 l 500 318 m 444 147 q 424 77 433 111 q 410 13 415 43 q 464 33 446 18 q 482 65 482 49 l 482 69 q 476 94 482 85 l 444 147 m 821 75 q 840 28 832 47 q 853 -6 849 8 q 872 -97 872 -64 q 853 -178 872 -136 q 801 -259 833 -219 q 728 -333 769 -299 q 641 -394 686 -368 q 551 -436 596 -421 q 468 -451 506 -451 q 374 -438 419 -451 q 288 -401 328 -425 q 213 -345 247 -378 q 156 -272 179 -312 l 76 -142 q 19 -41 40 -96 q -1 76 -1 14 q 14 169 -1 108 q 50 296 29 229 q -18 291 14 293 q -68 288 -50 289 l -181 457 l 24 801 q 111 789 69 801 q 199 769 153 776 q 189 791 190 782 q 187 817 188 800 q 185 865 186 835 q 175 951 183 896 q 251 988 213 974 q 334 1013 289 1003 q 434 1032 379 1024 q 563 1051 489 1040 l 560 1042 l 661 872 q 790 599 689 793 q 811 482 811 563 q 742 346 811 357 l 654 335 q 694 290 675 319 q 729 228 714 261 l 821 75 m 703 76 q 697 128 703 97 q 683 189 692 160 q 663 241 674 218 q 639 269 651 264 l 499 199 q 551 69 551 129 l 551 65 q 540 19 551 42 q 506 -22 529 -4 q 450 -49 483 -39 q 371 -60 417 -60 q 320 -45 344 -60 q 278 -8 296 -31 q 248 43 260 15 q 235 96 236 71 l 235 115 q 265 297 235 188 q 350 553 296 406 l 629 585 q 642 656 642 586 q 632 740 642 740 q 388 694 546 715 l 467 967 q 326 937 379 949 q 251 914 272 925 q 256 872 254 892 q 258 835 258 853 q 257 787 258 811 q 251 743 256 763 q 238 711 247 724 q 215 699 229 699 q 179 703 204 699 q 128 713 154 707 q 81 722 101 718 q 60 726 61 726 l -53 536 q 26 541 -11 539 q 94 543 63 543 q 153 541 126 543 q 201 536 179 539 l 201 535 q 192 502 201 531 q 167 430 182 474 q 135 334 151 386 q 103 232 118 282 q 78 140 88 182 q 68 76 68 99 q 92 -35 68 17 q 158 -127 117 -87 q 252 -190 199 -167 q 364 -212 306 -212 q 472 -185 413 -212 q 582 -117 531 -158 q 668 -24 633 -75 q 703 76 703 28 z "},"u":{"ha":1135,"x_min":6,"x_max":1189,"o":"m 1174 -144 l 1189 -190 l 1139 -274 q 1077 -291 1115 -278 q 986 -324 1039 -304 l 985 -322 q 906 -354 935 -342 q 867 -369 876 -367 q 849 -376 857 -372 q 831 -383 840 -381 q 798 -396 813 -390 q 782 -401 783 -401 l 717 -292 q 624 -360 672 -337 q 508 -386 575 -383 l 503 -386 q 340 -342 457 -386 l 339 -340 q 176 -207 228 -293 l 96 -72 q 51 -3 68 -40 q 23 70 33 33 q 9 142 13 107 q 6 207 6 178 q 20 326 6 269 q 57 435 35 383 q 106 534 79 488 q 160 622 133 581 l 81 754 q 71 758 75 757 l 175 1003 l 610 847 l 879 910 l 917 838 l 982 731 l 1108 494 q 1075 482 1096 490 q 1047 471 1064 478 q 1003 454 1029 464 q 965 439 978 444 q 949 432 951 433 q 958 372 954 404 q 967 304 963 340 q 1174 -144 975 239 m 1022 -36 q 999 23 1013 -7 q 967 75 985 53 l 840 26 q 829 161 836 76 q 813 338 822 246 q 792 513 803 429 q 771 646 782 597 q 795 656 783 651 q 823 667 807 661 q 860 682 839 674 q 913 703 881 690 l 850 819 l 510 668 l 550 567 q 592 587 568 576 q 650 611 615 597 q 667 547 661 583 q 672 471 672 511 q 651 296 672 388 q 589 128 629 204 q 489 3 549 53 q 353 -46 429 -46 q 244 10 282 -46 q 199 150 206 65 l 199 171 q 217 306 199 229 q 272 469 235 383 q 363 643 308 554 q 492 815 418 732 l 214 915 l 163 797 q 235 767 199 782 q 310 736 272 751 q 242 623 282 682 q 165 499 201 564 q 101 361 128 433 q 75 208 75 289 q 82 127 75 172 q 110 38 89 82 q 167 -46 131 -7 q 282 -115 203 -85 q 351 -139 321 -132 q 406 -146 382 -146 q 451 -140 431 -146 q 492 -126 471 -135 q 604 -31 554 -100 q 708 161 654 39 q 717 113 714 138 q 722 53 719 88 q 728 -27 725 19 q 736 -139 731 -74 q 756 -132 738 -139 q 801 -115 774 -125 q 860 -92 828 -104 q 924 -68 893 -79 q 982 -48 956 -57 q 1022 -36 1008 -39 z "},"v":{"ha":933,"x_min":-222,"x_max":1026,"o":"m 928 860 q 925 854 925 857 l 1026 685 q 1022 676 1025 682 q 1017 664 1019 671 q 1006 640 1014 657 q 985 592 999 622 q 947 518 961 532 q 918 489 936 503 q 872 464 900 475 l 797 508 q 734 187 772 400 q 647 -350 696 -26 l 365 -335 l 257 -165 l 146 392 l 76 326 q -222 693 -1 326 l 229 1081 q 232 1068 231 1074 q 235 1060 233 1063 l 331 900 q 415 649 386 686 q 469 689 447 608 q 536 915 503 811 q 594 1085 569 1018 l 928 860 m 629 979 q 590 865 613 935 q 544 713 568 794 q 498 545 521 632 q 457 381 475 458 q 428 244 439 304 q 417 154 417 183 q 190 956 394 172 l -136 674 q -53 565 -85 565 l 144 751 l 315 -99 l 489 -108 q 589 492 547 269 q 654 782 631 715 l 774 710 q 804 755 790 718 q 839 836 818 792 l 629 979 z "},"w":{"ha":1129,"x_min":-131,"x_max":1257,"o":"m 7 365 l 4 369 l 7 365 m 446 633 q 544 658 489 658 q 549 647 546 654 q 556 629 551 640 l 576 596 q 564 693 569 644 q 553 792 558 742 q 588 849 560 815 q 651 915 615 883 q 723 968 686 946 q 786 990 760 990 l 832 990 q 885 906 857 942 q 949 840 913 869 q 1033 784 986 810 q 1144 732 1081 758 l 1151 710 q 1238 392 1257 433 q 1219 355 1228 372 q 1201 321 1210 338 q 1174 266 1185 289 q 1160 238 1163 243 l 971 358 q 976 269 974 307 q 981 208 979 232 q 985 169 983 189 q 989 132 986 150 q 999 78 993 103 q 1017 15 1006 53 l 1018 14 q 1037 -53 1025 -10 q 1061 -142 1049 -97 q 1041 -168 1058 -149 q 1000 -212 1024 -187 q 949 -265 976 -237 q 897 -315 921 -292 q 856 -353 872 -337 q 836 -368 839 -368 q 797 -354 818 -368 q 753 -316 776 -340 q 707 -259 731 -292 q 661 -189 683 -226 l 596 -82 q 466 -298 536 -204 q 313 -464 396 -392 l 107 -196 l 18 -47 l -1 -22 q 74 113 39 36 q 129 264 108 189 l 115 254 q 62 293 93 260 q 7 365 31 326 l -76 501 q -112 559 -97 529 q -131 611 -128 589 l 250 929 q 446 633 331 854 m 1115 669 q 993 725 1044 699 q 903 781 942 751 q 838 843 865 810 q 789 921 811 876 l 786 921 q 742 906 768 921 q 692 869 717 890 q 648 824 667 847 q 624 785 629 801 q 668 446 644 607 q 731 146 692 285 q 683 194 707 160 q 635 272 658 228 q 590 367 611 317 q 550 461 568 417 q 519 540 532 506 q 499 589 506 575 q 455 552 474 589 q 419 460 436 515 q 386 341 403 406 q 349 221 369 276 q 303 128 329 165 q 244 89 278 90 q 340 572 340 386 q 249 838 340 756 l -57 583 q -49 558 -56 572 q -33 531 -42 544 q -16 508 -25 518 q 0 497 -7 499 l 169 604 q 226 425 226 543 q 215 315 226 375 q 185 194 204 254 q 140 77 165 133 q 85 -21 114 21 l 218 -194 q 501 275 369 -64 q 544 147 515 217 q 606 15 572 76 q 674 -87 640 -46 q 732 -129 708 -129 q 745 -118 733 -129 q 774 -90 757 -107 q 810 -53 790 -74 q 847 -15 829 -33 q 876 17 864 3 q 889 35 888 31 q 855 153 868 110 q 834 226 842 196 q 822 282 826 256 q 813 353 817 308 q 805 469 810 397 q 792 658 800 540 l 1028 507 q 1115 669 1038 529 z "},"x":{"ha":1010,"x_min":-86,"x_max":1088,"o":"m 6 681 l 285 963 l 490 608 l 754 944 l 1085 522 l 968 243 l 822 363 l 790 321 l 1088 -50 q 998 -142 1035 -104 q 933 -210 961 -181 q 885 -266 906 -240 q 843 -322 864 -292 q 799 -388 822 -351 q 743 -476 775 -425 l 536 -114 l 265 -500 l -86 118 l 119 328 l 211 206 l 314 356 l 306 372 l 194 236 l 6 681 m 518 378 l 707 631 l 838 522 l 904 682 l 758 839 l 481 483 l 269 849 l 83 661 l 118 546 l 236 690 l 394 350 l 214 88 l 113 222 l -1 107 l 168 -204 l 454 201 l 644 -171 q 690 -99 672 -126 q 732 -44 708 -72 q 792 21 756 -17 q 892 124 828 58 l 793 222 q 756 174 778 197 q 710 128 733 150 q 669 87 688 106 q 642 53 650 68 l 518 378 z "},"y":{"ha":1051,"x_min":-53,"x_max":1099,"o":"m 1099 638 q 1086 451 1099 546 q 1044 247 1074 356 q 1026 177 1040 225 q 990 64 1011 129 q 947 -77 969 -1 q 901 -229 924 -153 q 862 -377 879 -306 q 836 -504 844 -449 q 649 -447 722 -468 q 524 -415 575 -426 q 433 -401 472 -404 q 350 -397 394 -397 q 276 -403 317 -397 q 192 -410 236 -410 q 178 -405 186 -410 q 156 -379 171 -400 q 115 -317 142 -358 q 46 -201 89 -275 q 16 -151 33 -179 q -17 -97 -1 -124 q -42 -45 -32 -69 q -53 -6 -53 -21 q -40 38 -53 17 q -8 78 -28 58 l 43 78 q 159 73 94 78 q 292 60 224 68 l 272 90 q 213 193 235 135 q 192 311 192 251 q 194 362 192 338 q 201 408 196 386 l 1 771 q 126 876 54 819 q 269 982 197 932 q 403 1068 342 1032 q 496 1113 464 1104 l 735 1013 l 793 901 q 842 888 815 896 q 895 870 869 879 q 944 851 921 861 q 982 829 967 840 q 1099 638 1003 814 m 933 799 q 916 813 933 806 q 876 825 899 819 q 829 834 853 831 q 792 838 806 838 q 715 635 754 729 q 638 472 676 542 q 565 363 600 403 q 499 324 529 324 q 470 333 483 324 q 446 358 457 343 q 428 392 435 374 q 422 426 422 410 q 440 495 422 444 q 486 620 457 546 q 556 785 515 694 q 642 976 596 876 l 492 1040 q 417 1003 467 1033 q 308 933 367 974 q 190 845 249 892 q 88 758 131 799 l 156 626 q 251 732 203 683 q 344 817 300 781 q 423 877 388 854 q 478 904 458 900 q 394 732 433 814 q 325 576 354 650 q 278 435 296 501 q 261 311 261 369 q 273 231 261 271 q 306 160 285 192 q 356 108 328 128 q 418 88 385 88 q 578 192 503 88 q 725 522 653 297 q 778 675 774 675 q 801 650 801 675 q 794 610 801 644 q 776 524 788 576 q 748 408 764 472 q 714 276 732 343 q 677 147 696 210 q 641 34 658 83 q 609 -45 624 -15 q 583 -75 594 -75 q 474 -42 540 -57 q 331 -15 407 -26 q 179 2 256 -4 q 43 8 103 8 l 19 8 q 17 0 17 6 q 24 -41 17 -12 q 43 -99 32 -69 q 65 -149 54 -128 q 83 -171 76 -171 q 246 -158 171 -158 q 333 -161 294 -158 q 418 -173 372 -164 q 526 -199 464 -182 q 681 -246 588 -217 q 701 -151 686 -211 q 738 -22 717 -92 q 781 121 758 47 q 824 258 804 194 q 859 369 844 322 q 878 435 874 417 q 917 622 901 535 q 933 799 933 710 z "},"z":{"ha":1094,"x_min":-49,"x_max":1149,"o":"m 424 506 q 391 435 407 474 q 357 353 375 397 q 421 422 389 389 q 485 488 453 456 q 452 497 467 493 q 424 506 438 501 m 1043 761 l 1143 586 q 1147 544 1146 564 q 1149 506 1149 524 q 1094 394 1149 417 q 959 321 1028 367 q 811 207 890 275 q 960 14 833 199 q 896 -230 928 -129 q 832 -390 864 -331 q 585 -369 676 -378 q 438 -356 493 -361 q 347 -348 382 -350 q 271 -346 313 -346 l 63 -346 l -49 -176 q 6 -81 -29 -135 q 88 35 42 -26 q 190 163 135 96 q 303 294 244 229 l 79 349 l -22 517 l -32 519 l 158 915 q 285 894 213 906 q 438 873 357 883 q 600 853 518 863 q 755 835 682 843 q 885 824 828 828 q 975 819 943 819 l 1043 761 m 974 750 q 886 754 942 750 q 761 765 831 758 q 614 782 692 772 q 460 801 536 792 q 317 821 385 811 q 199 839 249 831 l 68 568 l 186 540 q 233 652 208 599 q 289 760 257 706 q 353 738 311 750 q 444 714 394 726 q 549 690 494 701 q 649 667 603 678 q 727 650 694 657 q 768 640 760 643 q 672 577 732 625 q 542 463 613 529 q 396 316 471 396 q 254 158 321 236 q 136 10 188 81 q 63 -107 85 -60 l 167 -107 l 221 -107 q 257 -108 240 -107 q 296 -110 274 -108 q 348 -115 318 -111 q 424 -122 378 -118 q 535 -133 471 -126 q 692 -147 600 -139 q 779 144 729 -79 q 644 185 654 185 q 624 157 632 185 q 609 97 617 129 q 593 36 601 64 q 572 8 585 8 q 491 6 528 7 q 424 6 454 6 q 308 10 344 6 q 263 15 271 15 l 442 211 q 724 480 597 381 q 964 628 851 579 q 979 679 979 635 q 978 710 979 693 q 974 750 976 728 z "},"…":{"ha":718,"x_min":-49,"x_max":765,"o":"m -12 -79 q -39 -43 -29 -62 q -49 -7 -49 -24 q -35 48 -49 21 q -1 96 -22 75 q 49 130 21 117 q 108 143 78 143 q 169 124 144 143 q 207 81 194 106 q 263 126 231 108 q 331 143 294 143 q 392 124 367 143 q 429 81 417 106 q 485 126 453 108 q 553 143 517 143 q 624 117 597 143 q 660 58 650 90 l 749 -87 q 765 -146 765 -115 q 749 -196 765 -169 q 709 -244 732 -222 q 662 -281 686 -267 q 622 -296 638 -296 q 565 -274 594 -296 q 518 -224 535 -251 l 513 -215 q 453 -272 488 -247 q 400 -296 419 -296 q 342 -274 372 -296 q 296 -224 313 -251 l 290 -215 q 231 -272 265 -247 q 178 -296 197 -296 q 120 -274 150 -296 q 74 -224 90 -251 l -12 -79 m 151 28 q 140 58 151 43 q 108 74 129 74 q 48 49 75 74 q 21 -7 21 24 q 39 -40 21 -22 q 74 -57 57 -57 q 95 -49 82 -57 q 121 -28 108 -40 q 142 -1 133 -15 q 151 28 151 14 m 374 28 q 363 58 374 43 q 331 74 351 74 q 270 49 297 74 q 243 -7 243 24 q 261 -40 243 -22 q 296 -57 279 -57 q 317 -49 304 -57 q 343 -28 331 -40 q 365 -1 356 -15 q 374 28 374 14 m 596 28 q 585 58 596 43 q 553 74 574 74 q 492 49 519 74 q 465 -7 465 24 q 483 -40 465 -22 q 518 -57 501 -57 q 540 -49 526 -57 q 565 -28 553 -40 q 587 -1 578 -15 q 596 28 596 14 z "},"‘":{"ha":331,"x_min":-62,"x_max":388,"o":"m 251 213 l -62 706 q -43 775 -62 744 q 2 826 -24 806 q 54 856 28 846 q 94 867 81 867 q 132 850 110 867 q 174 811 154 833 q 204 765 185 799 q 251 668 224 731 q 312 511 278 606 q 388 283 346 417 l 251 213 m 171 471 q 188 480 178 474 q 208 493 197 486 q 179 608 192 561 q 158 685 167 654 q 142 733 149 715 q 132 764 136 751 q 117 788 126 778 q 94 797 107 797 q 62 788 78 797 q 34 768 46 779 q 15 745 22 757 q 7 729 7 733 q 8 724 7 725 l 171 471 z "},"’":{"ha":282,"x_min":-54,"x_max":333,"o":"m 333 535 l 269 275 q 245 261 254 267 q 222 249 236 256 q 184 234 208 243 q 115 211 160 225 l 8 379 l -54 721 q -28 767 -51 742 q 27 815 -4 793 q 89 851 58 836 q 135 867 119 867 q 161 860 149 867 q 188 838 174 854 q 220 790 201 821 q 267 708 239 758 q 297 648 285 674 q 317 602 310 622 q 328 566 324 582 q 333 535 332 550 m 15 724 l 61 471 q 82 480 71 474 q 108 493 93 486 q 165 731 165 672 q 163 752 165 740 q 156 774 160 764 q 146 790 151 783 q 135 797 140 797 q 106 790 125 797 q 67 771 86 782 q 32 747 47 760 q 15 724 17 733 z "},"“":{"ha":629,"x_min":-58,"x_max":676,"o":"m 676 532 l 676 492 q 663 362 676 415 q 625 273 649 308 q 572 217 601 238 q 510 188 542 197 q 440 289 492 201 q 294 181 425 207 l -58 750 q -37 762 -54 754 q 2 778 -21 769 q 51 797 25 788 q 101 815 78 807 q 143 827 125 822 q 167 832 161 832 l 189 832 q 271 721 229 815 l 290 686 l 290 729 q 292 776 290 756 q 301 809 293 796 q 325 829 308 822 q 374 836 342 836 q 419 825 389 836 q 481 799 450 814 q 538 766 513 783 q 569 735 564 749 l 676 532 m 268 510 q 175 763 201 753 l 167 763 q 137 760 158 763 q 92 753 115 757 q 49 745 68 749 q 29 740 31 742 l 222 428 q 272 482 272 438 q 268 510 272 494 m 503 711 q 483 728 500 718 q 446 746 467 738 q 404 760 425 754 q 374 767 383 767 q 362 758 364 767 q 360 735 360 750 l 360 722 q 365 633 360 681 q 377 544 369 586 q 395 473 385 503 q 417 435 406 443 q 450 454 433 440 q 479 494 467 468 q 499 563 492 521 q 507 665 507 604 q 503 711 507 694 z "},"”":{"ha":597,"x_min":-46,"x_max":651,"o":"m 383 836 q 412 829 393 836 q 451 811 431 822 q 493 785 472 800 q 529 754 514 771 q 544 731 533 749 q 568 690 554 714 q 597 641 582 667 q 624 593 611 615 q 644 556 636 571 q 651 540 651 542 l 649 519 q 578 386 628 446 q 473 283 528 326 q 369 213 418 239 q 304 183 321 188 l 263 251 q 90 176 208 199 l -18 344 l -46 767 q -10 781 -42 771 q 59 803 21 792 q 131 824 97 815 q 175 832 165 832 l 196 832 q 237 808 224 822 q 254 772 250 794 l 286 718 q 344 802 317 768 q 383 836 371 836 m 136 510 q 188 743 188 682 q 182 763 188 761 l 175 763 q 143 760 167 763 q 94 753 119 757 q 47 745 68 749 q 25 740 26 742 l 46 428 q 136 510 118 442 m 482 711 l 482 714 q 470 731 482 722 q 442 748 458 740 q 408 761 425 756 q 383 767 392 767 q 363 748 376 767 q 334 700 350 729 q 301 634 318 671 q 271 562 285 597 q 249 496 257 526 q 240 447 240 465 q 241 445 240 449 q 243 435 242 442 q 286 458 254 438 q 356 513 318 478 q 428 599 393 549 q 482 711 464 649 z "},"`":{"ha":861,"x_min":97,"x_max":722,"o":"m 97 1083 q 172 1191 150 1136 q 194 1319 194 1246 q 315 1256 257 1283 q 426 1207 372 1229 q 528 1165 479 1185 q 625 1125 578 1146 l 722 1014 q 660 924 681 961 q 639 875 639 886 l 542 847 q 208 972 438 910 l 97 1083 m 472 1000 q 493 1060 483 1039 q 514 1097 503 1081 q 445 1126 478 1113 q 381 1153 413 1140 q 318 1180 350 1167 q 250 1208 286 1193 q 242 1175 250 1197 q 222 1111 233 1153 q 288 1095 258 1106 q 347 1071 318 1085 q 406 1039 375 1057 q 472 1000 436 1021 z "},"‚":{"ha":417,"x_min":-54,"x_max":333,"o":"m 333 -353 l 269 -612 q 245 -626 254 -621 q 222 -638 236 -632 q 184 -653 208 -644 q 115 -676 160 -662 l 8 -508 l -54 -167 q -28 -120 -51 -146 q 27 -73 -4 -94 q 89 -36 58 -51 q 135 -21 119 -21 q 161 -27 149 -21 q 188 -50 174 -33 q 220 -98 201 -67 q 267 -179 239 -129 q 297 -240 285 -214 q 317 -285 310 -265 q 328 -322 324 -306 q 333 -353 332 -337 m 15 -164 l 61 -417 q 82 -408 71 -414 q 108 -394 93 -401 q 165 -157 165 -215 q 163 -135 165 -147 q 156 -114 160 -124 q 146 -97 151 -104 q 135 -90 140 -90 q 106 -98 125 -90 q 67 -117 86 -106 q 32 -141 47 -128 q 15 -164 17 -154 z "},"„":{"ha":583,"x_min":-46,"x_max":651,"o":"m 383 -10 q 412 -17 393 -10 q 451 -35 431 -24 q 493 -60 472 -46 q 529 -92 514 -75 q 544 -115 533 -97 q 568 -156 554 -132 q 597 -205 582 -179 q 624 -253 611 -231 q 644 -290 636 -275 q 651 -306 651 -304 l 649 -326 q 578 -460 628 -400 q 473 -563 528 -519 q 369 -633 418 -607 q 304 -662 321 -658 l 263 -594 q 90 -669 208 -647 l -18 -501 l -46 -79 q -10 -65 -42 -75 q 59 -42 21 -54 q 131 -22 97 -31 q 175 -14 165 -14 l 196 -14 q 237 -37 224 -24 q 254 -74 250 -51 l 286 -128 q 344 -44 317 -78 q 383 -10 371 -10 m 136 -336 q 188 -103 188 -164 q 182 -83 188 -85 l 175 -83 q 143 -86 167 -83 q 94 -93 119 -89 q 47 -101 68 -97 q 25 -106 26 -104 l 46 -418 q 136 -336 118 -404 m 482 -135 l 482 -132 q 470 -115 482 -124 q 442 -98 458 -106 q 408 -85 425 -90 q 383 -79 392 -79 q 363 -98 376 -79 q 334 -146 350 -117 q 301 -212 318 -175 q 271 -284 285 -249 q 249 -350 257 -319 q 240 -399 240 -381 q 241 -401 240 -397 q 243 -411 242 -404 q 286 -388 254 -408 q 356 -333 318 -368 q 428 -247 393 -297 q 482 -135 464 -197 z "},"{":{"ha":764,"x_min":-28,"x_max":722,"o":"m 681 917 l 708 750 q 586 740 631 750 q 519 710 542 729 q 492 662 497 690 q 486 597 486 633 l 486 458 q 465 387 486 426 q 403 306 444 347 q 465 191 444 264 q 486 0 486 118 l 500 -42 l 625 -42 l 722 -153 l 708 -389 q 461 -367 532 -389 q 381 -322 425 -356 q 295 -244 338 -287 q 219 -152 253 -200 q 169 -64 185 -104 q 139 153 139 11 l 83 153 l -28 250 l -28 569 q 74 593 38 569 q 131 655 111 617 q 161 742 151 693 q 183 840 171 790 q 216 940 196 892 q 274 1027 236 989 q 373 1088 313 1065 q 528 1111 433 1111 l 681 917 m 514 1042 q 383 1017 435 1042 q 298 953 331 993 q 247 862 265 913 q 219 758 229 811 q 200 653 208 704 q 178 561 192 601 q 136 494 163 515 q 82 474 110 474 q 42 486 58 474 l 42 333 q 128 310 96 333 q 180 247 161 286 q 208 158 199 208 q 226 56 217 108 q 251 -46 236 4 q 293 -135 265 -96 q 324 -171 307 -154 q 365 -199 340 -187 q 426 -216 390 -210 q 514 -222 461 -222 l 514 -125 q 396 -90 433 -125 q 343 1 358 -54 q 323 121 328 56 q 305 247 318 186 q 259 353 292 307 q 153 417 226 400 q 240 458 208 429 q 288 524 271 486 q 310 607 304 563 q 319 695 315 651 q 329 778 324 739 q 351 847 335 818 q 371 876 360 864 q 399 898 382 889 q 444 912 417 907 q 514 917 472 917 l 514 1042 z "},"|":{"ha":385,"x_min":32,"x_max":365,"o":"m 215 1017 l 365 833 q 355 793 360 813 q 346 751 350 774 q 340 702 342 729 q 338 639 338 675 l 338 -181 q 365 -389 338 -278 l 143 -375 l 32 -264 q 36 -41 32 -160 q 46 197 40 78 q 56 426 51 315 q 60 625 60 536 l 60 740 q 32 986 60 856 q 104 996 60 989 q 215 1017 149 1003 m 185 944 l 115 944 q 117 815 115 888 q 122 667 119 742 q 127 519 125 592 q 129 389 129 446 q 127 249 129 332 q 122 83 125 167 q 117 -72 119 0 q 115 -181 115 -144 q 153 -184 128 -181 q 199 -194 179 -187 q 188 -138 193 -168 q 179 -72 183 -108 q 173 9 175 -36 q 171 111 171 54 l 171 458 q 173 582 171 517 q 178 712 175 647 q 183 837 181 776 q 185 944 185 897 z "},"}":{"ha":764,"x_min":-44,"x_max":736,"o":"m -1 1111 q 224 1079 144 1111 q 302 1028 258 1064 q 385 951 346 992 q 453 875 424 911 q 489 825 482 839 q 519 734 510 782 q 538 647 529 686 q 560 581 547 607 q 597 556 572 556 q 615 558 603 556 q 639 569 628 561 l 736 458 q 732 314 735 390 q 722 153 729 238 q 613 129 651 153 q 553 66 574 106 q 524 -24 532 26 q 506 -126 515 -74 q 478 -227 496 -178 q 424 -316 461 -276 q 322 -379 386 -356 q 153 -403 257 -403 q -28 -292 68 -403 q -44 -114 -44 -207 q -44 -72 -44 -96 q -40 -42 -43 -49 l 153 -42 q 176 81 168 15 q 194 208 183 146 q 223 326 204 271 q 278 417 242 381 q 235 459 251 432 q 210 521 219 486 q 198 593 201 556 q 194 667 194 631 q 186 723 194 707 q 167 750 178 739 l 83 750 l -15 847 q -24 936 -24 889 q -1 1111 -24 1024 m 69 1040 l 69 917 l 97 917 q 179 898 150 917 q 224 848 208 879 q 244 776 239 817 q 251 691 249 735 q 260 603 254 647 q 281 522 265 560 q 329 457 297 485 q 417 417 361 429 q 322 348 350 396 q 285 240 294 300 q 273 115 275 179 q 255 -3 271 50 q 198 -90 239 -56 q 69 -125 157 -125 l 69 -222 l 97 -222 q 213 -199 168 -222 q 284 -135 257 -175 q 326 -47 311 -96 q 351 55 340 3 q 372 157 361 107 q 401 247 382 207 q 453 310 421 286 q 542 333 486 333 q 546 367 544 349 q 547 407 547 386 q 546 446 547 426 q 542 486 544 465 q 476 492 501 486 q 435 510 451 499 q 410 537 419 521 q 394 572 401 553 q 374 663 381 613 q 360 765 368 713 q 336 866 351 817 q 289 954 321 915 q 205 1017 257 993 q 69 1040 153 1040 z "},"~":{"ha":903,"x_min":0,"x_max":861,"o":"m 861 347 q 767 208 819 253 q 653 153 715 164 q 574 164 617 153 q 493 188 532 175 q 422 211 454 200 q 375 222 390 222 q 349 188 360 207 q 331 149 338 168 q 322 117 325 131 q 319 97 319 103 l 0 319 q 117 497 53 438 q 264 556 181 556 q 315 544 285 556 q 377 521 344 533 q 442 497 410 508 q 500 486 474 486 q 529 494 514 486 q 559 514 544 501 q 587 540 574 526 q 610 567 600 554 q 682 498 642 526 q 764 458 722 469 l 861 347 m 583 486 q 552 435 572 454 q 500 417 532 417 q 447 428 479 417 q 380 451 415 439 q 310 475 344 464 q 250 486 276 486 q 210 481 233 486 q 163 460 186 475 q 122 422 140 446 q 97 361 103 397 q 140 349 118 361 q 194 306 163 338 q 278 389 215 389 q 328 378 304 389 q 379 354 353 367 q 435 331 406 342 q 500 319 464 319 q 547 325 521 319 q 599 342 574 331 q 642 372 624 354 q 667 417 661 390 q 615 435 635 417 q 583 486 594 454 z "},"[":{"ha":528,"x_min":-14,"x_max":528,"o":"m -14 -139 q -12 44 -14 -56 q -7 255 -10 144 q -2 484 -4 365 q 0 722 0 603 l 0 1083 l 278 1083 q 368 1085 331 1083 q 417 1097 406 1086 l 514 986 q 526 926 525 965 q 528 833 528 886 l 528 750 q 519 731 528 739 q 500 722 511 722 q 441 729 468 722 q 403 736 414 736 l 333 736 q 321 683 322 715 q 319 597 319 650 l 319 42 l 403 42 l 500 -69 q 513 -153 511 -90 q 514 -319 514 -215 l 167 -319 l -14 -139 m 56 -139 l 347 -139 l 347 -28 q 307 -30 332 -28 q 255 -35 282 -32 q 201 -40 228 -37 q 153 -42 174 -42 l 153 181 q 155 320 153 249 q 160 463 157 392 q 165 604 163 535 q 167 736 167 674 l 167 917 q 253 910 199 917 q 361 903 308 903 q 360 974 361 944 q 347 1014 358 1003 l 69 1014 l 69 722 q 67 484 69 603 q 63 255 65 365 q 58 44 60 144 q 56 -139 56 -56 z "},"\\":{"ha":694,"x_min":-83,"x_max":708,"o":"m 306 -139 q 199 146 249 1 q 101 431 149 290 q 9 705 54 571 q -83 958 -36 839 q -24 983 -68 974 q 73 1000 21 992 q 174 1017 125 1008 q 250 1042 224 1026 l 361 931 q 492 420 403 686 q 708 -153 582 154 l 639 -236 l 403 -236 l 306 -139 m 542 -69 q 322 492 404 236 q 208 958 240 747 q 90 938 135 947 q 14 917 46 928 q 97 699 56 818 q 181 450 139 579 q 264 188 222 321 q 347 -69 306 56 l 542 -69 z "},"]":{"ha":528,"x_min":-32,"x_max":500,"o":"m 403 1014 l 500 903 q 498 719 500 819 q 493 509 496 619 q 488 280 490 399 q 486 42 486 161 q 488 -48 486 0 q 493 -144 490 -96 q 498 -237 496 -192 q 500 -319 500 -283 q 431 -312 468 -319 q 361 -306 393 -306 q 222 -312 286 -306 q 83 -319 158 -319 l -14 -222 q -28 -97 -25 -143 q -32 -21 -32 -50 q -30 24 -32 7 q -28 56 -28 40 q -3 45 -28 50 q 53 36 21 40 q 119 30 86 32 q 167 28 151 28 q 169 183 167 96 q 174 365 171 271 q 178 551 176 458 q 181 722 181 644 l 97 722 l -14 819 q -26 882 -25 840 q -28 986 -28 924 l -14 1083 l 333 1083 l 403 1014 m 333 1014 l 42 1014 l 42 889 q 82 893 57 889 q 135 903 107 897 q 194 913 164 908 q 250 917 224 917 l 250 681 q 243 403 250 542 q 236 139 236 265 l 236 -42 q 196 -40 221 -42 q 142 -35 171 -37 q 84 -30 114 -32 q 28 -28 54 -28 q 29 -111 28 -81 q 42 -153 31 -142 q 82 -151 57 -153 q 135 -146 107 -149 q 194 -141 164 -143 q 250 -139 224 -139 l 319 -139 l 319 153 q 322 391 319 272 q 326 620 324 510 q 331 831 329 731 q 333 1014 333 931 z "},"<":{"ha":1069,"x_min":-28,"x_max":1042,"o":"m 1042 583 l 1042 306 q 878 313 958 306 q 722 319 797 319 q 710 176 722 244 q 667 56 699 108 q 602 88 646 65 q 503 140 558 110 q 385 203 447 169 q 264 269 322 236 q 158 329 206 301 q 83 375 110 357 l -28 472 l -28 667 q 69 722 14 690 q 185 788 125 754 q 307 855 246 822 q 420 914 368 888 q 512 956 472 940 q 569 972 551 972 l 667 861 q 693 778 678 819 q 708 694 708 736 l 944 694 l 1042 583 m 875 625 l 333 625 q 449 684 396 657 q 556 722 503 711 q 547 783 556 743 q 528 875 539 822 q 472 836 510 857 q 386 792 435 815 q 284 744 338 768 q 182 696 231 719 q 96 651 133 672 q 42 611 58 629 l 42 514 q 97 476 58 497 q 183 430 135 454 q 284 381 231 406 q 385 332 338 356 q 472 288 433 308 q 528 250 510 267 q 542 281 538 261 q 549 324 547 301 q 553 367 551 346 q 556 403 554 389 q 448 441 503 414 q 319 500 393 468 q 412 498 361 500 q 529 493 463 496 q 681 488 596 490 q 875 486 765 486 l 875 625 z "},">":{"ha":1069,"x_min":-28,"x_max":1042,"o":"m -28 722 l 139 722 q 231 721 192 722 q 292 708 271 719 q 296 776 292 744 q 306 840 300 808 q 320 903 313 871 q 333 972 328 936 q 391 931 347 958 q 494 871 435 904 q 623 802 554 838 q 755 736 692 767 q 869 683 818 706 q 944 653 921 660 l 1042 556 l 1042 361 q 945 314 1000 343 q 829 251 890 285 q 707 182 768 217 q 593 119 646 147 q 501 74 540 92 q 444 56 461 56 l 347 153 q 324 203 332 179 q 310 250 315 226 q 301 297 304 274 q 292 347 297 321 l 83 347 l -28 444 l -28 722 m 42 514 q 175 512 99 514 q 326 507 251 510 q 467 502 401 504 q 569 500 533 500 q 465 441 517 468 q 361 403 414 414 q 368 326 361 361 q 375 250 375 292 q 431 279 392 257 q 519 331 469 301 q 624 392 569 360 q 729 452 679 425 q 819 497 779 479 q 875 514 858 514 l 875 625 q 812 642 854 625 q 718 684 769 658 q 611 740 667 710 q 508 797 556 769 q 428 847 461 825 q 389 875 396 868 q 369 785 378 822 q 361 736 361 747 q 410 720 382 731 q 467 696 438 710 q 527 664 497 682 q 583 625 557 646 q 493 629 542 625 q 381 639 444 633 q 234 649 317 644 q 42 653 151 653 l 42 514 z "},"@":{"ha":1069,"x_min":-24,"x_max":1083,"o":"m 1083 -181 q 896 -106 988 -128 q 708 -83 804 -83 q 602 -87 665 -83 q 472 -97 539 -92 q 342 -107 404 -103 q 238 -111 279 -111 q 198 -110 217 -111 q 158 -101 179 -108 q 113 -81 138 -94 q 58 -40 89 -67 q 8 6 25 -12 q -15 35 -10 25 q -24 218 -24 47 q -21 483 -24 361 q -15 694 -18 604 q -7 840 -11 785 q 0 907 -3 896 q 76 1003 21 971 q 231 1036 131 1036 q 322 1033 264 1036 q 443 1024 381 1029 q 564 1016 506 1019 q 656 1013 622 1013 l 679 1013 q 786 1009 746 1013 q 856 992 826 1006 q 910 953 885 979 q 975 883 936 928 q 1018 824 1001 851 q 1044 770 1035 796 q 1058 718 1054 744 q 1061 661 1061 692 q 1058 438 1061 525 q 1051 299 1056 351 q 1041 224 1047 247 q 1028 194 1035 201 l 1056 167 l 1083 -181 m 472 500 q 465 461 472 485 q 447 415 458 438 q 419 377 435 393 q 389 361 404 361 q 345 380 357 361 q 333 431 333 399 q 375 514 333 514 q 415 510 390 514 q 472 500 440 507 m 889 194 q 650 160 746 167 q 501 153 554 153 q 315 160 383 153 q 210 203 246 168 q 163 310 174 238 q 153 514 153 383 q 155 631 153 571 q 161 740 157 690 q 170 822 165 789 q 181 861 175 856 l 444 861 q 582 853 522 861 q 682 815 642 844 q 743 726 722 785 q 764 569 764 668 q 735 399 764 451 q 653 347 706 347 q 609 366 621 347 q 597 417 597 385 q 601 460 597 435 q 611 518 606 486 q 621 588 617 550 q 625 668 625 626 q 590 747 625 717 q 464 778 554 778 q 399 773 426 778 q 349 758 372 768 q 303 733 326 749 q 250 694 279 717 l 333 611 q 374 662 344 643 q 444 681 403 681 q 488 669 476 681 q 500 625 500 657 l 500 583 l 375 583 q 281 551 313 583 q 250 444 250 519 q 417 278 250 278 q 453 295 438 278 q 481 333 469 313 q 501 372 493 354 q 514 389 508 389 q 525 313 518 340 q 543 271 532 285 q 571 253 554 257 q 613 250 588 250 l 724 250 q 815 263 782 250 q 864 315 847 275 q 885 428 881 354 q 889 625 889 501 q 883 815 889 750 q 861 910 876 881 q 807 933 854 924 q 672 942 760 942 q 623 943 654 942 q 554 947 592 944 q 476 951 517 949 q 399 956 436 953 q 333 960 363 958 q 289 964 304 963 q 268 965 288 965 l 249 965 q 160 953 196 965 q 100 922 124 942 q 66 879 76 903 q 56 831 56 856 q 49 494 56 650 q 42 213 42 339 q 45 133 42 163 q 58 90 49 104 q 83 73 67 76 q 126 69 100 69 q 210 71 164 69 q 316 74 256 72 q 453 78 376 76 q 631 81 531 81 q 793 68 731 81 q 903 28 856 56 l 889 194 z "},"#":{"ha":819,"x_min":-56,"x_max":819,"o":"m -56 361 q -19 563 -36 444 q 14 840 -1 681 q 84 842 53 840 q 139 847 115 844 q 149 925 146 897 q 153 958 153 953 q 242 960 201 960 q 318 961 283 961 q 438 960 363 961 q 639 957 513 960 l 736 875 q 719 831 726 851 q 708 792 713 810 l 819 681 q 778 470 796 572 q 750 264 761 368 q 704 273 739 269 q 611 278 669 276 q 597 179 597 240 l 597 167 q 129 196 306 167 l -56 361 m 111 333 l 222 333 q 234 346 231 342 q 239 360 238 350 q 242 392 240 371 q 250 458 244 414 l 347 458 q 339 391 347 417 q 319 333 331 365 q 342 331 332 332 q 363 331 353 331 q 397 335 383 331 q 419 353 410 340 q 437 388 428 365 q 458 444 446 410 l 583 444 q 590 485 583 456 q 597 556 597 514 l 472 556 q 482 615 475 588 q 500 667 489 643 l 625 667 q 639 778 625 749 l 514 778 q 524 819 517 792 q 542 889 531 846 l 431 889 q 427 844 431 872 q 417 778 424 817 l 306 778 q 324 848 317 821 q 333 889 331 875 q 294 885 308 886 q 268 883 279 883 q 222 889 239 883 q 219 844 222 872 q 208 778 215 817 l 83 778 q 81 730 83 757 q 74 671 79 703 q 93 669 75 669 q 126 672 104 669 q 181 681 149 675 l 167 556 l 56 556 q 52 507 56 535 q 42 444 49 479 l 139 444 q 121 374 128 401 q 111 333 114 347 m 403 681 q 390 628 397 660 q 375 556 383 597 l 264 556 q 272 613 264 588 q 292 681 281 639 l 403 681 z "},"$":{"ha":597,"x_min":-69,"x_max":625,"o":"m -54 444 l -54 525 q -62 719 -54 642 q -69 847 -69 797 q -58 931 -69 900 q -30 982 -47 963 q 10 1014 -12 1001 q 55 1041 32 1026 q 100 1078 78 1056 q 139 1139 122 1100 q 248 1132 201 1139 q 335 1113 294 1125 q 414 1086 375 1101 q 500 1056 453 1071 l 597 958 q 597 887 597 917 q 590 833 596 857 q 574 790 585 810 q 542 750 563 771 q 584 694 568 724 q 609 635 600 664 q 622 581 618 606 q 625 542 625 556 q 583 384 625 438 q 458 319 542 331 q 459 285 458 301 q 460 256 460 269 q 451 218 460 228 q 407 208 442 208 l 194 208 l -54 444 m 375 639 l 375 611 q 356 574 375 592 q 278 556 338 556 q 274 651 278 608 q 264 708 271 693 q 346 678 317 697 q 375 639 375 660 m 181 792 q 99 813 128 792 q 69 875 69 833 q 99 905 69 886 q 181 944 128 924 l 181 792 m 458 653 q 440 717 458 692 q 397 756 422 742 q 345 775 372 769 q 300 781 318 781 q 278 778 292 781 l 278 944 q 325 938 289 944 q 403 917 361 932 q 415 936 411 917 q 418 975 418 956 q 400 1010 418 1003 q 339 1018 382 1018 q 292 1014 314 1018 l 292 1056 q 269 1067 292 1065 q 194 1069 247 1069 q 183 1052 185 1060 q 181 1042 181 1044 l 181 1014 q 42 972 85 1014 q 0 833 0 929 q 2 812 0 826 q 21 779 4 797 q 74 742 38 761 q 181 708 111 724 l 181 556 q 28 597 79 571 q 21 586 24 597 q 17 559 18 575 q 15 526 15 543 q 14 500 14 510 q 104 491 60 496 q 181 486 149 486 q 174 431 181 454 q 167 375 167 407 l 292 375 q 290 401 292 390 q 285 423 288 413 q 280 445 282 433 q 278 472 278 457 q 416 526 374 483 q 458 653 458 569 z "},"%":{"ha":847,"x_min":-56,"x_max":964,"o":"m 889 806 q 778 594 836 710 q 667 319 719 478 q 722 316 693 319 q 781 302 751 313 q 839 272 810 292 q 896 221 868 253 q 957 54 951 157 q 931 -243 964 -58 l 83 -243 l -28 -153 q 101 97 46 -26 q 208 347 156 221 q 10 488 56 417 q -47 618 -39 567 q -56 708 -56 676 q -33 844 -56 783 q 42 958 -11 906 l 97 958 q 222 950 139 958 q 431 931 304 942 q 439 970 431 951 q 458 1000 447 989 q 792 917 542 1000 l 792 903 l 889 806 m 694 97 q 672 -10 694 22 q 597 -42 650 -42 q 505 -34 540 -42 q 450 -12 469 -26 q 424 23 431 3 q 417 69 417 43 q 427 141 417 101 q 458 222 438 181 l 611 222 q 694 97 694 222 m 333 722 q 308 569 333 569 l 236 569 q 151 573 182 569 q 106 587 121 576 q 87 616 90 597 q 83 667 83 635 q 125 833 83 750 l 264 833 q 315 804 296 833 q 333 722 333 775 m 792 125 q 768 199 792 172 q 708 241 744 226 q 628 260 672 256 q 542 264 583 264 l 431 264 q 583 640 514 488 q 694 875 653 792 q 556 908 600 896 q 500 931 511 919 q 469 821 489 878 q 431 722 449 764 q 401 819 431 785 q 328 868 371 853 q 237 886 285 883 q 153 889 189 889 l 69 889 q 26 814 38 857 q 14 708 14 771 q 26 606 14 646 q 65 542 38 565 q 137 509 92 518 q 250 500 182 500 l 347 500 q 215 176 275 321 q 83 -83 156 31 l 167 -83 q 228 -85 199 -83 q 278 -97 257 -86 l 333 42 q 365 -33 349 -6 q 403 -74 382 -60 q 451 -93 424 -89 q 514 -97 478 -97 q 733 -49 693 -97 q 778 28 771 -3 q 788 83 783 57 q 792 125 792 110 z "},"&":{"ha":1000,"x_min":-56,"x_max":1083,"o":"m 819 653 l 819 514 l 1000 514 l 1083 403 l 1056 125 q 988 116 1011 125 q 965 83 965 107 q 1000 14 965 57 l 1014 -236 q 917 -267 972 -257 q 799 -285 861 -278 q 181 -306 736 -292 q -22 -17 8 -97 q -56 139 -56 64 q -45 219 -56 175 q -16 310 -35 264 q 28 398 3 356 q 83 472 54 440 q 37 651 46 578 q 28 778 28 724 q 60 916 28 853 q 167 1028 92 979 l 667 1028 l 764 931 q 808 807 796 878 q 819 653 819 736 m 500 361 l 500 26 l 347 26 q 240 66 272 26 q 208 181 208 106 q 238 326 208 276 q 319 375 267 375 l 500 361 m 500 569 q 431 556 471 556 q 264 708 264 556 l 264 776 q 344 790 285 788 q 500 792 404 792 l 500 569 m 847 292 l 833 444 q 639 486 639 444 q 641 549 639 513 q 646 625 643 586 q 651 701 649 664 q 653 764 653 738 q 642 867 653 817 q 611 958 632 917 l 181 958 q 118 874 139 917 q 97 778 97 831 q 102 704 97 751 q 116 606 107 657 q 138 510 125 556 q 167 444 151 465 q 60 275 92 349 q 28 139 28 201 q 49 13 28 76 q 111 -125 69 -50 q 833 -83 825 -83 q 830 -47 833 -78 q 819 42 826 -17 l 667 42 q 656 126 660 88 q 653 197 653 164 q 667 319 653 272 q 741 308 697 315 q 847 292 785 301 z "},"(":{"ha":569,"x_min":-28,"x_max":569,"o":"m 319 264 q 326 101 319 181 q 349 -42 332 21 q 395 -142 365 -104 q 472 -181 425 -181 l 569 -292 q 557 -374 563 -324 q 551 -474 551 -425 q 556 -542 551 -512 q 365 -500 440 -531 q 236 -417 289 -469 q 107 -277 158 -354 q 26 -104 56 -200 q -16 110 -4 -8 q -28 375 -28 229 q 97 971 -28 761 q 472 1222 221 1181 l 569 1111 q 558 1025 563 1079 q 554 908 554 971 l 554 878 l 554 863 q 556 847 554 851 q 379 672 439 815 q 319 264 319 528 m 375 -319 q 376 -267 375 -287 q 389 -236 378 -247 q 282 -193 326 -236 q 208 -71 238 -150 q 166 122 179 8 q 153 375 153 235 q 205 815 153 661 q 375 1000 257 968 l 375 1139 q 42 375 42 1075 q 57 35 42 172 q 110 -187 72 -101 q 212 -317 147 -274 q 375 -375 276 -360 l 375 -319 z "},")":{"ha":569,"x_min":-42,"x_max":556,"o":"m -42 1208 q 169 1159 78 1200 q 326 1053 260 1118 q 437 901 393 988 q 507 713 481 814 q 544 502 533 613 q 556 278 556 392 q 432 -306 556 -97 q 69 -556 308 -514 l -42 -458 q -33 -346 -39 -411 q -26 -218 -26 -281 l -26 -199 q -28 -181 -26 -185 q 208 389 208 -115 q 202 548 208 467 q 181 696 196 629 q 138 805 165 763 q 69 847 111 847 l -42 944 l -42 1208 m 42 1014 q 218 828 158 982 q 278 389 278 674 q 226 -51 278 103 q 56 -236 174 -204 l 56 -296 q 53 -351 56 -335 q 42 -375 50 -367 q 305 -147 221 -333 q 389 375 389 39 q 372 717 389 578 q 314 944 354 856 q 207 1078 274 1033 q 42 1139 140 1124 l 42 1014 z "},"*":{"ha":903,"x_min":-83,"x_max":931,"o":"m -28 375 l 125 514 q 109 512 117 513 q 94 511 101 511 q 62 517 78 511 q 28 542 46 524 l -83 639 q -6 788 -42 714 q 42 944 31 861 q 174 854 117 892 q 264 806 232 817 q 222 1097 243 910 q 388 1077 310 1083 q 542 1069 467 1071 l 639 972 q 604 815 604 901 l 604 797 q 764 875 699 829 l 861 764 q 900 625 883 697 q 931 472 917 553 q 785 465 847 472 q 681 458 722 458 q 847 278 731 388 q 724 194 785 242 q 597 83 664 146 q 444 278 489 163 q 426 240 439 263 q 399 192 414 218 q 366 138 383 165 q 333 83 349 110 q 167 224 257 151 q -28 375 76 296 m 306 611 q 223 513 274 569 q 97 403 172 456 q 170 360 139 382 q 222 306 201 338 q 316 442 275 389 q 389 528 357 496 q 451 441 421 496 q 514 292 482 386 q 587 363 556 333 q 639 403 618 392 q 556 494 597 444 q 472 597 514 544 q 574 626 508 613 q 736 639 640 639 q 708 778 732 707 q 580 735 649 751 q 432 708 511 718 l 432 740 q 434 815 432 783 q 440 876 436 847 q 448 935 443 906 q 458 1000 453 964 q 418 994 438 996 q 379 993 399 993 q 342 994 360 993 q 306 1000 324 996 q 325 811 317 882 q 333 708 333 740 q 83 833 229 729 q 72 747 83 781 q 28 681 60 713 q 188 646 122 669 q 306 611 253 622 z "},"+":{"ha":986,"x_min":125,"x_max":847,"o":"m 847 597 q 814 275 847 376 q 653 292 736 290 q 694 153 669 196 q 486 174 586 167 q 293 185 386 182 l 285 299 q 209 328 249 317 q 125 347 169 340 l 150 714 q 236 694 197 703 q 306 681 275 686 q 297 732 306 692 q 278 847 289 772 l 625 819 l 847 597 m 667 611 q 603 599 646 600 q 486 597 561 597 q 528 764 507 701 l 361 778 q 372 698 368 743 q 375 597 375 653 q 281 609 322 597 q 208 653 240 621 l 194 472 q 328 490 268 490 q 361 486 349 490 q 349 409 356 443 q 333 347 343 375 q 411 335 369 342 q 500 319 453 328 q 490 392 493 354 q 486 472 486 431 q 631 451 590 467 q 647 517 638 478 q 667 611 656 557 z "},"€":{"ha":903,"x_min":-61,"x_max":931,"o":"m 28 764 q 167 995 60 921 q 472 1069 274 1069 q 523 1065 493 1069 q 592 1053 553 1060 q 631 1046 611 1049 q 673 1039 650 1043 q 724 1026 696 1035 q 790 1003 753 1018 q 840 835 840 899 q 811 739 840 794 q 742 604 782 683 q 672 461 711 546 q 583 264 632 376 q 722 292 674 264 q 931 -69 900 85 q 874 -99 903 -86 q 798 -121 844 -112 q 681 -134 751 -129 q 500 -139 610 -139 q 265 -125 353 -139 q 136 -76 176 -111 q 81 -20 100 -46 q 51 31 61 6 q 38 86 42 57 q 28 153 33 115 l -42 222 q -57 374 -53 293 q -61 547 -61 456 q -60 652 -61 599 q -56 764 -58 706 l 28 764 m 208 417 l 208 556 q 337 549 261 556 q 486 542 413 542 q 531 606 518 574 q 556 681 544 639 l 208 681 q 254 781 231 747 q 313 830 278 815 q 396 846 347 844 q 517 847 444 847 q 587 845 558 847 q 625 833 615 843 q 670 903 657 865 q 694 972 683 940 q 628 983 658 978 q 573 992 599 988 q 523 998 547 996 q 472 1000 499 1000 q 189 926 283 1000 q 83 694 94 851 l 0 694 l 0 542 q 52 543 32 542 q 83 556 72 544 l 83 431 l 28 431 l 28 278 l 83 278 q 102 201 89 242 q 138 118 115 160 q 242 52 160 76 q 472 28 325 28 q 647 38 576 28 q 750 69 718 49 l 694 222 q 648 199 679 207 q 577 186 617 190 q 495 181 538 182 q 417 181 453 181 q 326 182 360 181 q 271 192 292 183 q 237 222 250 201 q 208 278 224 242 l 375 278 q 419 342 407 310 q 431 417 431 375 l 208 417 z "},"•":{"ha":944,"x_min":125,"x_max":764,"o":"m 389 681 q 538 657 483 681 q 633 586 593 633 q 696 504 671 542 q 736 431 721 467 q 758 362 751 396 q 764 292 764 328 q 701 103 764 165 q 500 42 639 42 q 374 53 425 42 q 292 97 324 65 l 217 179 q 181 225 197 203 q 151 273 164 247 q 132 330 139 299 q 125 403 125 361 q 137 517 125 465 q 178 604 149 568 q 260 660 208 640 q 389 681 311 681 m 403 611 q 294 600 335 611 q 231 564 253 589 q 201 499 208 539 q 194 403 194 460 q 389 208 194 208 q 597 403 597 208 q 403 611 597 611 z "},"–":{"ha":833,"x_min":-14,"x_max":821,"o":"m -14 319 l -3 568 l 810 568 l 821 403 l 821 292 l 751 222 l 500 222 q 378 220 443 222 q 256 215 314 218 q 151 210 197 213 q 83 208 104 208 l -14 319 m 654 389 l 654 500 l 50 500 q 54 438 53 465 q 56 389 56 410 l 654 389 z "},"—":{"ha":1139,"x_min":-14,"x_max":1111,"o":"m -14 319 l -3 568 l 1100 568 l 1111 403 l 1111 292 l 1042 222 l 500 222 q 378 220 443 222 q 256 215 314 218 q 151 210 197 213 q 83 208 104 208 l -14 319 m 944 389 l 944 500 l 50 500 q 54 438 53 465 q 56 389 56 410 l 944 389 z "},"™":{"ha":1111,"x_min":-28,"x_max":1069,"o":"m 694 750 l 810 918 l 972 903 l 1069 792 l 1069 236 l 208 236 l 97 333 l 111 597 l 83 583 l -28 694 l -12 917 l 569 917 l 694 750 m 694 403 q 819 694 736 528 l 819 403 l 903 403 q 896 504 903 444 q 889 639 889 564 l 889 722 q 890 795 889 764 q 903 847 892 826 l 847 847 q 817 827 833 847 q 785 776 801 807 q 751 708 768 746 q 719 635 735 671 q 690 571 703 600 q 667 528 676 542 q 592 683 625 603 q 528 847 560 764 q 508 835 517 836 q 500 833 507 833 l 458 833 q 444 835 447 833 q 431 847 442 836 l 431 556 q 429 469 431 503 q 417 403 428 435 l 500 403 l 500 694 q 563 566 532 642 q 625 417 593 490 l 694 403 m 264 403 q 257 510 264 456 q 250 639 250 565 q 262 746 250 714 q 306 778 274 778 q 337 771 317 778 q 389 764 357 764 l 389 792 q 396 819 389 803 q 403 847 403 836 l 69 847 l 56 764 l 167 764 l 167 403 l 264 403 z "},"›":{"ha":583,"x_min":-42,"x_max":542,"o":"m 542 319 l 542 181 q 501 168 526 181 q 435 124 476 156 q 336 40 394 93 q 194 -97 278 -14 l -42 222 q 125 347 0 264 l -32 514 l 56 750 l 542 319 m 375 417 q 299 473 326 451 q 246 514 271 494 q 188 558 221 533 q 97 625 156 583 q 93 590 97 604 q 83 565 89 576 q 69 541 76 553 q 56 514 61 529 q 128 477 92 497 q 198 438 165 457 q 258 402 231 418 q 301 378 285 386 q 249 348 281 368 q 182 303 217 328 q 114 253 147 279 q 56 208 81 228 q 69 181 61 193 q 84 159 76 169 q 99 138 92 149 q 111 111 106 126 q 204 204 157 174 q 290 259 251 235 q 351 316 328 283 q 375 417 375 349 z "},"£":{"ha":833,"x_min":-125,"x_max":903,"o":"m 639 528 l 639 292 q 640 271 639 281 q 653 250 642 261 l 694 250 l 806 125 q 764 -181 806 -72 q 675 -178 728 -181 q 563 -174 622 -176 q 440 -169 503 -171 q 319 -167 376 -167 q 189 -176 267 -167 q -14 -194 111 -185 l -125 -97 q -31 73 -72 -1 q 42 222 10 147 l -28 278 q -15 401 -17 369 q -19 485 -14 435 q -56 611 -24 536 l 153 611 q 201 794 168 710 q 285 939 235 878 q 399 1035 335 1000 q 542 1069 464 1069 q 765 1024 676 1069 q 903 917 854 979 q 844 826 867 875 q 806 720 821 776 q 778 602 790 664 q 750 472 765 540 q 688 574 714 538 q 644 629 661 611 q 617 651 626 647 q 604 656 607 656 q 589 649 596 656 q 582 633 582 643 q 583 625 582 626 l 639 528 m 625 28 l 625 181 l 250 181 q 267 260 257 213 q 292 375 276 308 q 375 361 338 361 l 472 361 l 472 556 q 451 543 461 544 q 431 542 442 542 l 347 542 q 377 675 363 619 q 411 766 392 731 q 458 817 431 801 q 528 833 486 833 q 580 822 560 833 q 611 778 600 810 q 642 890 622 840 q 694 972 663 940 q 608 992 642 983 q 542 1000 574 1000 q 419 965 474 1000 q 322 869 364 931 q 252 724 281 808 q 208 542 224 640 l 42 542 q 54 500 53 531 q 56 417 56 469 l 56 361 q 100 365 72 361 q 167 375 128 368 q 135 285 151 333 q 101 188 119 238 q 62 90 83 138 q 14 0 40 42 q 144 10 93 7 q 222 14 196 14 l 444 14 q 560 6 519 14 q 611 -14 600 -3 l 625 28 z "},"¢":{"ha":847,"x_min":-28,"x_max":847,"o":"m 278 1042 l 524 1042 l 533 925 q 750 889 667 917 l 847 778 q 835 642 847 703 q 792 528 824 581 q 597 583 700 582 l 597 333 q 667 347 656 336 l 764 236 q 795 115 782 175 q 819 -28 808 54 l 611 -28 l 625 -153 q 558 -172 583 -164 q 500 -181 532 -181 q 445 -177 474 -181 q 385 -159 417 -174 q 320 -113 354 -144 q 250 -28 286 -82 q 168 -11 210 -28 q 90 33 126 6 q 28 98 54 61 q -8 176 1 135 q -23 281 -18 221 q -28 417 -28 340 l -28 647 q -15 731 -26 697 q 12 785 -4 764 q 47 819 28 807 q 82 840 65 832 q 140 869 111 856 q 195 903 169 882 q 242 956 221 924 q 278 1042 264 989 m 153 403 q 152 478 153 444 q 151 540 151 513 q 156 625 151 592 q 180 681 161 658 q 235 718 199 703 q 333 750 271 733 l 333 250 q 233 252 269 250 q 179 269 197 254 q 157 314 161 283 q 153 403 153 344 m 444 969 l 333 969 l 333 861 q 124 807 194 850 q 42 681 53 764 l 42 417 q 49 285 42 350 q 69 153 56 219 q 186 142 124 146 q 319 139 249 139 q 313 61 319 97 q 306 14 306 25 q 330 -6 306 1 q 414 -14 354 -14 q 439 -12 429 -14 q 458 0 449 -10 q 448 47 451 19 q 444 122 444 75 l 444 139 q 520 142 472 139 q 639 153 568 146 q 625 264 639 214 q 542 253 590 257 q 431 250 493 250 l 431 750 q 558 740 506 750 q 653 708 611 729 q 672 781 664 750 q 681 833 681 813 q 552 853 607 844 q 444 861 497 861 l 444 969 z "},"©":{"ha":1125,"x_min":-14,"x_max":1111,"o":"m 792 278 q 811 368 803 331 q 819 417 819 406 q 781 397 808 406 q 722 389 754 389 q 670 436 690 419 q 638 461 650 453 q 616 471 625 469 q 597 472 607 472 q 522 431 544 472 q 500 306 500 389 l 514 278 q 639 361 576 278 q 690 346 665 356 q 736 326 715 336 q 772 306 757 315 q 792 292 786 297 l 792 278 m -14 417 q 22 614 -14 521 q 124 778 57 707 q 285 890 190 849 q 500 931 381 931 q 647 905 574 931 q 789 834 721 879 q 916 729 857 789 q 1018 602 975 669 q 1086 462 1061 535 q 1111 319 1111 389 q 1070 122 1111 215 q 958 -42 1029 29 q 794 -153 888 -112 q 597 -194 701 -194 q 444 -169 519 -194 q 301 -99 369 -143 q 176 6 233 -54 q 76 133 118 65 q 10 274 33 201 q -14 417 -14 347 m 750 236 q 667 278 729 257 q 606 227 646 246 q 514 208 567 208 q 319 403 319 208 q 362 580 319 521 q 500 639 404 639 q 592 620 553 639 q 653 569 632 601 q 710 578 694 569 q 736 597 725 586 q 644 691 704 660 q 500 722 583 722 q 299 649 361 722 q 236 417 236 576 q 249 283 236 339 q 294 192 261 228 q 383 141 326 157 q 528 125 439 125 q 660 154 603 125 q 750 236 718 183 m 56 417 q 88 247 56 328 q 179 106 121 167 q 319 8 238 44 q 500 -28 401 -28 q 667 8 589 -28 q 804 106 746 44 q 897 247 863 167 q 931 417 931 328 q 897 597 931 515 q 804 738 863 679 q 667 828 746 796 q 500 861 589 861 q 319 828 401 861 q 179 738 238 796 q 88 597 121 679 q 56 417 56 515 m 97 417 q 127 579 97 506 q 210 706 157 653 q 338 790 264 760 q 500 819 411 819 q 654 790 583 819 q 777 706 725 760 q 859 579 829 653 q 889 417 889 506 q 859 262 889 333 q 777 138 829 190 q 654 57 725 86 q 500 28 583 28 q 338 57 411 28 q 210 138 264 86 q 127 262 157 190 q 97 417 97 333 z "},"«":{"ha":861,"x_min":-14,"x_max":847,"o":"m -6 454 q 361 750 174 575 l 472 583 q 571 672 525 631 q 653 750 617 714 q 822 410 794 565 q 736 324 765 344 q 708 303 722 314 q 681 278 694 292 q 847 111 753 232 q 820 53 829 72 q 806 23 811 33 q 797 7 800 13 q 787 -9 793 1 q 769 -40 781 -19 q 736 -97 757 -60 q 702 -70 718 -83 q 671 -42 686 -57 q 642 -13 656 -26 q 618 13 629 0 q 542 69 592 42 q 482 -32 506 10 q 444 -97 458 -74 q 204 103 318 7 q -14 292 90 200 l -6 454 m 56 417 l 56 319 q 107 280 86 294 q 144 255 128 265 q 176 235 161 244 q 210 211 190 226 q 255 173 229 196 q 319 111 281 150 q 351 165 338 140 q 375 208 365 189 q 306 252 339 229 q 242 299 274 275 q 179 345 211 322 q 111 389 147 368 q 181 403 147 389 q 247 436 215 417 q 306 477 278 456 q 361 514 335 499 q 344 561 354 533 q 319 625 333 589 q 247 556 278 583 q 187 506 215 528 q 128 463 158 483 q 56 417 97 443 m 347 417 l 347 319 q 399 280 378 294 q 436 255 419 265 q 467 235 453 244 q 501 211 482 226 q 547 173 521 196 q 611 111 572 150 q 624 138 617 126 q 638 159 631 149 q 653 181 646 169 q 667 208 661 193 q 598 252 631 229 q 534 299 565 275 q 471 345 503 322 q 403 389 439 368 q 473 403 439 389 q 538 436 507 417 q 598 477 569 456 q 653 514 626 499 q 611 625 640 575 q 538 556 569 583 q 478 506 507 528 q 419 463 450 483 q 347 417 389 443 z "},"®":{"ha":972,"x_min":0,"x_max":944,"o":"m 0 528 q 104 854 0 750 q 431 958 208 958 q 629 910 536 958 q 792 787 722 863 q 903 617 863 711 q 944 431 944 524 q 917 272 944 347 q 835 139 889 196 q 704 48 782 82 q 528 14 626 14 q 341 55 435 14 q 172 165 247 96 q 48 328 96 235 q 0 528 0 422 m 69 528 q 97 397 69 460 q 172 287 124 335 q 286 210 219 239 q 431 181 353 181 q 561 210 499 181 q 672 287 624 239 q 749 397 719 335 q 778 528 778 460 q 749 672 778 606 q 672 787 719 739 q 561 862 624 835 q 431 889 499 889 q 286 862 353 889 q 172 787 219 835 q 97 672 124 739 q 69 528 69 606 m 125 528 q 198 760 125 688 q 431 833 271 833 q 542 811 488 833 q 640 749 597 789 q 710 652 683 708 q 736 528 736 596 q 710 416 736 471 q 640 318 683 361 q 542 249 597 275 q 431 222 488 222 q 306 249 363 222 q 210 318 250 275 q 147 416 169 361 q 125 528 125 471 m 583 639 q 542 721 583 692 q 417 750 500 750 l 264 750 q 278 688 275 729 q 281 583 281 646 l 281 458 q 278 385 281 417 q 264 333 275 354 l 347 333 q 335 438 336 408 q 333 472 333 467 q 335 494 333 489 q 347 500 338 500 q 436 431 397 469 q 500 333 475 392 l 625 333 q 599 358 621 338 q 549 406 578 379 q 488 458 519 432 q 431 500 456 485 l 444 500 q 551 532 519 500 q 583 639 583 564 m 514 625 q 502 591 514 604 q 472 569 490 578 q 432 558 454 561 q 389 556 410 556 l 333 556 l 333 597 q 337 651 333 629 q 347 681 340 674 l 444 681 q 495 669 476 681 q 514 625 514 657 z "},"»":{"ha":833,"x_min":-42,"x_max":819,"o":"m 694 472 l 819 319 l 819 181 q 472 -97 672 93 l 361 0 q 347 42 347 26 q 259 -42 297 -7 q 194 -97 221 -76 l 83 0 q -42 222 6 96 q 125 347 63 310 l -42 500 q 13 611 -11 549 q 56 750 38 674 q 167 646 111 694 q 278 556 222 597 q 304 603 294 582 q 319 645 314 624 q 328 692 325 667 q 333 750 331 717 q 462 653 372 722 q 694 472 551 585 m 375 417 q 299 472 326 451 q 246 513 271 493 q 188 558 221 533 q 97 625 156 583 q 93 590 97 604 q 83 565 89 576 q 69 541 76 553 q 56 514 61 529 q 127 476 90 497 q 197 436 164 456 q 257 402 231 417 q 299 383 283 388 q 247 344 278 367 q 181 299 215 322 q 114 251 147 275 q 56 208 81 228 q 88 154 74 178 q 111 111 101 131 q 198 214 157 174 q 273 281 239 254 q 334 327 307 308 q 379 367 361 346 q 375 417 379 388 m 653 417 q 576 473 604 451 q 523 514 549 494 q 465 558 497 533 q 375 625 432 583 q 333 514 363 557 q 405 476 368 497 q 475 436 442 456 q 534 401 508 417 q 572 381 560 386 q 526 346 556 367 q 461 301 496 325 q 392 253 426 278 q 333 208 358 229 q 365 165 349 193 q 389 111 381 136 q 465 199 426 163 q 538 264 503 236 q 601 313 572 292 q 649 353 629 333 l 649 365 q 649 391 649 376 q 653 417 650 406 z "},"ı":{"ha":533,"x_min":-21,"x_max":586,"o":"m -21 -47 q -12 32 -21 -12 q 10 115 -4 76 q 44 181 25 154 q 85 207 64 207 q 107 205 94 207 q 138 200 119 203 q 147 262 142 229 q 158 331 153 294 l 58 497 l 54 496 q 38 549 43 529 q 29 579 32 568 q 25 594 26 590 l 25 632 q 63 768 25 664 l 275 858 q 315 875 294 865 q 361 903 335 885 q 536 669 432 871 q 553 601 553 640 q 545 542 553 589 q 527 432 538 496 q 504 294 517 368 q 482 153 492 221 l 586 -24 q 584 -40 586 -25 q 579 -83 582 -56 q 567 -167 572 -142 q 535 -233 560 -206 q 453 -261 511 -261 l 88 -217 l -21 -47 m 361 103 q 340 104 360 104 l 288 104 q 282 136 282 110 q 290 190 282 143 q 308 304 297 238 q 333 448 319 371 q 357 594 346 525 q 376 713 368 663 q 383 775 383 763 q 369 824 383 818 q 296 792 342 804 q 204 760 250 779 q 126 708 158 740 q 94 636 94 676 q 96 592 94 593 l 272 676 q 276 654 276 674 q 271 606 276 646 q 257 511 265 567 q 238 391 249 456 q 219 269 228 326 q 203 169 210 211 q 196 113 197 126 q 85 138 125 138 q 71 125 78 138 q 59 94 64 113 q 51 53 54 75 q 49 15 49 32 l 357 -22 q 385 -10 376 -22 q 399 22 394 3 q 403 60 403 40 q 407 96 404 81 l 361 103 z "},"Š":{"ha":1079,"x_min":-56,"x_max":1128,"o":"m 389 1143 q 544 1057 479 1115 q 637 1123 592 1096 q 725 1168 682 1150 q 824 996 818 1025 q 863 988 843 993 q 913 958 882 983 q 995 878 944 933 q 1128 719 1046 824 q 1005 538 1065 628 q 904 376 944 447 q 946 312 919 357 q 1000 216 972 267 q 1051 118 1028 165 q 1085 46 1075 71 q 1103 -17 1096 17 q 1113 -86 1110 -50 q 1074 -188 1113 -135 q 977 -291 1036 -242 q 845 -380 918 -340 q 704 -439 772 -419 q 549 -457 658 -457 q 319 -237 451 -457 q 208 -251 275 -242 q 53 -276 142 -261 q -56 -107 -54 -106 q -53 -81 -56 -100 q -47 -42 -50 -62 q -42 -3 -44 -21 q -39 18 -39 14 q -30 68 -35 43 q -15 115 -25 93 q 12 156 -4 138 q 56 189 28 175 l 188 189 l 171 215 q 106 338 129 264 q 82 486 82 411 q 103 629 82 560 q 163 752 125 699 q 253 838 200 806 q 368 869 306 869 q 413 864 397 869 q 239 960 332 919 q 389 1143 331 1036 m 943 86 q 918 215 939 154 q 862 322 897 276 q 778 395 826 368 q 672 422 731 422 l 543 401 q 464 390 499 394 q 403 386 429 386 q 242 508 242 386 q 340 642 242 642 q 464 607 390 642 q 625 510 538 572 q 688 464 689 464 q 718 537 694 492 q 775 638 742 582 q 849 753 808 693 q 929 872 889 814 q 860 905 890 892 q 808 928 831 918 q 748 829 775 882 q 699 731 721 776 q 662 655 678 685 q 633 625 646 625 q 614 642 631 626 q 574 679 597 657 l 528 722 q 444 781 483 763 q 368 800 404 800 q 281 774 321 800 q 213 703 242 747 q 167 603 183 660 q 151 486 151 546 q 162 393 151 440 q 190 308 172 346 q 234 247 208 271 q 290 224 260 224 q 329 230 307 224 q 376 245 351 236 q 424 264 400 254 q 468 281 447 274 q 556 305 517 297 q 622 314 594 313 q 757 140 757 314 q 697 -16 757 43 q 538 -75 638 -75 q 454 -67 486 -75 q 399 -39 422 -60 q 358 20 376 -18 q 315 119 339 58 l 72 119 q 53 99 61 114 q 41 63 46 83 q 33 20 36 43 q 25 -25 29 -3 q 278 4 201 4 q 311 0 300 4 q 494 -218 311 -218 q 588 -204 538 -218 q 688 -167 638 -190 q 783 -112 738 -143 q 865 -47 829 -81 q 922 21 900 -14 q 943 86 943 56 m 406 1071 q 378 1019 394 1039 q 350 988 361 999 q 432 946 382 976 q 544 863 482 915 q 753 988 649 946 q 720 1029 732 1008 q 697 1071 708 1050 q 605 1010 644 1039 q 544 960 565 981 q 501 1010 533 981 q 406 1071 468 1039 m 671 67 q 628 56 651 64 q 578 40 604 49 q 527 20 553 31 q 479 1 501 10 q 513 -3 499 -1 q 538 -6 528 -6 q 618 13 583 -6 q 671 67 653 32 z "},"Ÿ":{"ha":1051,"x_min":-53,"x_max":1144,"o":"m 726 1296 q 756 1292 743 1296 q 778 1280 768 1289 q 801 1254 789 1271 q 831 1213 814 1238 q 887 1272 850 1247 q 974 1296 924 1296 q 1022 1278 993 1296 q 1078 1229 1051 1260 q 1125 1160 1106 1199 q 1144 1079 1144 1121 q 1128 1026 1144 1054 q 1090 976 1113 999 q 1041 940 1067 954 q 994 925 1015 925 q 976 927 986 925 q 951 939 965 929 q 920 969 938 949 q 881 1026 903 990 q 833 969 863 997 q 775 931 804 942 l 793 901 q 842 888 815 896 q 895 870 869 879 q 944 851 921 861 q 982 829 967 840 q 1099 638 1003 814 q 1103 625 1103 631 q 1044 247 1103 460 l 1046 246 q 1025 177 1040 225 q 989 64 1010 129 q 945 -77 968 -1 q 901 -230 922 -153 q 862 -378 879 -307 q 836 -504 844 -449 q 649 -447 722 -468 q 524 -415 575 -426 q 433 -401 472 -404 q 350 -397 394 -397 q 197 -410 285 -397 q 184 -408 190 -410 q 163 -389 178 -407 q 122 -328 149 -371 q 46 -201 94 -285 q 16 -151 33 -179 q -17 -97 -1 -124 q -42 -45 -32 -69 q -53 -6 -53 -21 q -40 38 -53 17 q -8 78 -28 58 l 43 78 q 159 73 94 78 q 292 60 224 68 l 272 90 q 213 193 235 135 q 192 311 192 251 q 194 362 192 338 q 201 408 196 386 l 1 771 q 126 876 54 819 q 269 982 197 932 q 403 1068 342 1032 q 496 1113 464 1104 l 585 1075 q 563 1149 563 1114 q 576 1203 563 1176 q 613 1250 590 1229 q 665 1283 636 1271 q 726 1296 694 1296 m 933 799 q 916 813 933 806 q 876 825 899 819 q 829 834 853 831 q 792 838 806 838 q 709 642 749 735 q 633 478 669 549 q 563 365 596 407 q 499 324 529 324 q 470 333 483 324 q 446 358 457 343 q 428 392 435 374 q 422 426 422 410 q 440 495 422 444 q 486 620 457 546 q 556 785 515 694 q 642 976 596 876 l 492 1040 q 417 1003 467 1033 q 308 933 367 974 q 190 845 249 892 q 88 758 131 799 l 156 626 q 260 728 210 679 q 351 814 310 776 q 426 876 393 851 q 478 904 458 900 q 394 732 433 814 q 325 576 354 650 q 278 435 296 501 q 261 311 261 369 q 273 231 261 271 q 306 160 285 192 q 356 108 328 128 q 418 88 385 88 q 578 192 503 88 q 725 522 653 297 q 778 675 774 675 q 801 650 801 675 q 794 610 801 644 q 776 524 788 576 q 748 408 764 472 q 714 276 732 343 q 677 147 696 210 q 641 34 658 83 q 609 -45 624 -15 q 583 -75 594 -75 q 474 -42 540 -57 q 331 -15 407 -26 q 179 2 256 -4 q 43 8 103 8 l 19 8 q 17 0 17 6 q 24 -41 17 -12 q 43 -99 32 -69 q 65 -149 54 -128 q 83 -171 76 -171 q 246 -158 171 -158 q 333 -161 294 -158 q 418 -173 372 -164 q 526 -199 464 -182 q 681 -246 588 -217 q 701 -151 686 -211 q 738 -22 717 -92 q 781 121 758 47 q 824 258 804 194 q 859 369 844 322 q 878 435 874 417 q 917 622 901 535 q 933 789 933 710 l 933 799 m 967 1226 q 906 1201 933 1226 q 879 1146 879 1176 q 885 1129 879 1138 q 898 1113 890 1121 q 914 1101 906 1106 q 928 1096 922 1096 q 952 1103 938 1096 q 979 1124 967 1111 q 1001 1151 992 1136 q 1010 1181 1010 1165 q 999 1211 1010 1196 q 967 1226 988 1226 m 719 1226 q 659 1201 686 1226 q 632 1146 632 1176 q 638 1129 632 1138 q 651 1113 643 1121 q 667 1101 658 1106 q 681 1096 675 1096 q 705 1103 690 1096 q 732 1124 719 1111 q 753 1151 744 1136 q 763 1181 763 1165 q 751 1211 763 1196 q 719 1226 740 1226 z "},"À":{"ha":1072,"x_min":-3,"x_max":1144,"o":"m 179 1081 q 254 1188 232 1133 q 276 1317 276 1243 q 397 1253 339 1281 q 508 1204 454 1226 q 610 1163 561 1182 q 707 1122 660 1143 l 804 1011 q 742 921 763 958 q 721 872 721 883 l 663 856 q 828 607 735 788 q 882 382 883 515 q 881 350 881 365 q 881 321 881 335 l 881 275 l 881 221 q 883 158 882 192 q 888 89 885 124 q 1026 38 985 81 l 1144 -190 q 1126 -304 1135 -264 q 1099 -365 1117 -344 q 1051 -389 1082 -385 q 969 -393 1021 -393 l 958 -393 q 668 -308 724 -390 l 639 -261 q 361 -374 515 -374 q 154 -269 217 -374 q -3 54 -3 -50 q 13 194 -3 153 q 84 299 38 249 q 190 388 131 350 l 151 454 q 122 497 136 472 q 97 545 107 521 q 80 591 86 569 q 74 625 74 613 q 93 715 74 671 q 146 796 113 758 q 222 864 179 833 q 311 914 265 894 q 355 929 333 924 q 397 938 376 935 q 345 953 372 944 q 290 969 318 961 l 179 1081 m 975 -8 q 725 21 947 21 q 726 37 725 28 q 726 60 726 46 q 726 99 726 75 q 724 153 725 122 q 722 217 722 185 q 718 281 721 249 q 715 361 717 313 q 711 476 714 410 q 693 689 714 639 q 638 786 675 744 q 549 849 601 826 q 435 871 497 871 q 335 851 386 871 q 241 796 283 831 q 171 717 199 761 q 143 625 143 672 q 147 594 143 614 q 158 556 151 575 q 174 520 165 536 q 190 500 182 504 l 307 535 q 393 743 311 743 q 485 724 443 743 q 556 671 526 704 q 603 591 586 638 q 619 490 619 544 q 615 446 619 474 q 602 391 610 418 q 585 344 594 364 q 565 325 575 325 q 481 371 521 353 q 390 392 440 389 q 290 367 346 392 q 185 304 235 343 q 100 218 138 268 q 67 18 67 169 q 257 -135 67 -135 q 441 -80 357 -135 q 597 93 525 -25 q 644 163 640 165 q 653 100 653 150 q 632 -118 653 17 q 854 -154 656 -151 l 865 -154 q 915 -151 896 -154 q 944 -134 933 -149 q 962 -90 956 -119 q 975 -8 968 -61 m 467 210 q 444 156 467 188 q 392 97 422 125 q 331 48 363 68 q 282 28 300 28 q 193 122 193 28 q 256 215 193 181 q 422 250 318 250 q 450 236 433 250 q 467 210 467 222 m 554 997 q 575 1057 565 1036 q 596 1094 585 1078 q 527 1124 560 1110 q 463 1151 494 1138 q 400 1177 432 1164 q 332 1206 368 1190 q 324 1172 332 1194 q 304 1108 315 1150 q 370 1092 340 1103 q 428 1068 400 1082 q 488 1036 457 1054 q 554 997 518 1018 m 497 504 q 450 475 468 504 l 454 460 q 500 447 481 457 q 535 458 519 439 q 538 491 550 478 q 497 504 526 504 m 128 493 q 133 482 129 486 l 128 493 m 757 -115 q 756 -112 756 -114 l 757 -115 z "},"Á":{"ha":1072,"x_min":-3,"x_max":1144,"o":"m 172 1007 q 103 1160 150 1100 q 309 1249 208 1204 q 506 1340 410 1293 l 603 1229 l 686 1007 q 489 936 583 981 q 631 883 569 926 q 828 607 714 828 q 882 382 883 515 q 881 350 881 365 q 881 321 881 335 l 881 275 l 881 221 q 883 158 882 192 q 888 89 885 124 q 1026 38 985 81 l 1144 -190 q 1126 -304 1135 -264 q 1099 -365 1117 -344 q 1051 -389 1082 -385 q 969 -393 1021 -393 l 958 -393 q 668 -308 724 -390 l 639 -261 q 361 -374 515 -374 q 154 -269 217 -374 q -3 54 -3 -50 q 13 194 -3 153 q 84 299 38 249 q 190 388 131 350 l 151 454 q 122 497 136 472 q 97 545 107 521 q 80 591 86 569 q 74 625 74 613 q 108 744 74 688 q 194 843 142 800 q 247 881 219 864 q 306 911 275 897 l 172 1007 m 975 -8 q 725 21 947 21 q 726 37 725 28 q 726 60 726 46 q 726 99 726 75 q 724 153 725 122 q 722 217 722 185 q 718 281 721 249 q 715 361 717 313 q 711 476 714 410 q 693 689 714 639 q 638 786 675 744 q 549 849 601 826 q 435 871 497 871 q 335 851 386 871 q 241 796 283 831 q 171 717 199 761 q 143 625 143 672 q 147 594 143 614 q 158 556 151 575 q 174 520 165 536 q 190 500 182 504 l 307 535 q 393 743 311 743 q 485 724 443 743 q 556 671 526 704 q 603 591 586 638 q 619 490 619 544 q 615 446 619 474 q 602 391 610 418 q 585 344 594 364 q 565 325 575 325 q 481 371 521 353 q 390 392 440 389 q 290 367 346 392 q 185 304 235 343 q 100 218 138 268 q 67 18 67 169 q 257 -135 67 -135 q 441 -80 357 -135 q 597 93 525 -25 q 644 163 640 165 q 653 100 653 150 q 632 -118 653 17 q 854 -154 656 -151 l 865 -154 q 915 -151 896 -154 q 944 -134 933 -149 q 962 -90 956 -119 q 975 -8 968 -61 m 467 210 q 444 156 467 188 q 392 97 422 125 q 331 48 363 68 q 282 28 300 28 q 193 122 193 28 q 256 215 193 181 q 422 250 318 250 q 450 236 433 250 q 467 210 467 222 m 242 1035 q 492 1146 368 1124 q 450 1243 468 1185 q 324 1181 386 1208 q 200 1132 263 1154 q 242 1035 226 1093 m 497 504 q 450 475 468 504 l 454 460 q 500 447 481 457 q 535 458 519 439 q 538 491 550 478 q 497 504 526 504 m 128 493 q 133 482 129 486 l 128 493 m 757 -115 q 756 -112 756 -114 l 757 -115 z "},"Â":{"ha":1072,"x_min":-3,"x_max":1144,"o":"m 44 1133 q 222 1224 140 1175 q 378 1314 303 1272 q 488 1229 410 1272 q 683 1133 565 1186 l 781 1022 q 734 976 769 1011 q 636 879 699 942 q 828 607 718 818 q 869 504 856 560 q 882 382 882 449 q 881 365 881 374 q 881 350 881 357 l 881 321 l 881 275 l 881 221 q 883 158 881 192 q 888 89 885 124 q 1026 38 985 81 l 1144 -190 q 1126 -304 1135 -264 q 1099 -365 1117 -344 q 1051 -389 1082 -385 q 969 -393 1021 -393 l 958 -393 q 668 -308 725 -392 l 639 -261 q 361 -374 515 -374 q 154 -269 217 -374 q -3 54 -3 -50 q 1 140 -3 104 q 13 194 4 176 q 84 299 36 249 q 190 388 132 350 l 151 454 q 122 497 136 472 q 97 545 107 521 q 80 591 86 569 q 74 625 74 613 q 88 701 74 664 q 127 772 103 739 q 185 835 151 806 q 256 886 218 864 l 44 1133 m 975 -8 q 725 21 947 21 q 726 37 725 28 q 726 60 726 46 q 726 133 726 96 q 723 219 725 171 q 718 328 721 267 q 711 476 715 390 l 711 507 q 706 623 711 578 q 692 697 701 668 q 669 746 683 726 q 638 786 656 765 q 549 849 601 826 q 435 871 497 871 q 335 851 386 871 q 241 796 283 831 q 171 717 199 761 q 143 625 143 672 q 147 594 143 614 q 158 556 151 575 q 174 520 165 536 q 190 500 182 504 l 307 535 q 393 743 311 743 q 485 724 443 743 q 556 671 526 704 q 603 591 586 638 q 619 490 619 544 q 615 446 619 474 q 602 391 610 418 q 585 344 594 364 q 565 325 575 325 q 481 371 521 353 q 390 392 440 389 q 317 377 357 392 q 236 339 276 363 q 160 284 196 315 q 100 218 125 253 q 67 18 67 169 q 257 -135 67 -135 q 441 -80 357 -135 q 597 93 525 -25 q 644 163 640 165 q 653 100 653 150 q 632 -118 653 17 q 854 -154 656 -151 l 865 -154 q 915 -151 896 -154 q 944 -134 933 -149 q 962 -90 956 -119 q 975 -8 968 -61 m 467 210 q 444 156 467 188 q 392 97 422 125 q 331 48 363 68 q 282 28 300 28 q 193 122 193 28 q 256 215 193 181 q 422 250 318 250 q 450 236 433 250 q 467 210 467 222 m 503 1036 l 572 1106 q 469 1168 519 1138 q 378 1231 419 1199 q 274 1175 325 1199 q 169 1119 222 1151 q 190 1074 181 1088 q 211 1050 200 1061 l 225 1036 q 265 1063 246 1051 q 300 1084 283 1074 q 333 1106 317 1094 q 364 1133 349 1118 q 428 1079 396 1101 q 503 1036 461 1057 m 497 504 q 450 475 468 504 l 454 460 q 487 451 472 458 q 511 444 501 444 q 533 456 522 444 q 543 478 543 467 q 531 497 543 489 q 497 504 518 504 m 128 493 q 133 482 131 485 l 128 493 m 757 -115 q 756 -112 756 -114 l 757 -115 z "},"Ã":{"ha":1072,"x_min":-3,"x_max":1144,"o":"m 190 388 q 124 494 147 456 q 96 544 101 533 q 80 591 86 569 q 74 625 74 613 q 90 708 74 668 q 135 784 107 749 q 201 849 164 819 q 279 900 239 879 q 88 1033 181 981 q 182 1190 129 1138 q 310 1242 235 1242 q 354 1233 332 1242 q 398 1215 376 1225 q 439 1197 419 1206 q 475 1189 458 1189 q 517 1203 499 1189 q 554 1251 535 1218 q 713 1131 660 1172 l 810 1019 q 732 918 774 956 q 647 869 690 881 q 828 607 726 803 q 869 504 856 560 q 882 382 882 449 q 881 365 881 374 q 881 350 881 357 l 881 321 l 881 275 l 881 221 q 883 158 881 192 q 888 89 885 124 q 1026 38 985 81 l 1144 -190 q 1126 -304 1135 -264 q 1099 -365 1117 -344 q 1051 -389 1082 -385 q 969 -393 1021 -393 l 958 -393 q 668 -308 725 -392 l 639 -261 q 361 -374 515 -374 q 154 -269 217 -374 q -3 54 -3 -50 q 1 140 -3 104 q 13 194 4 176 q 84 299 36 249 q 190 388 132 350 m 975 -8 q 725 21 947 21 q 726 37 725 28 q 726 60 726 46 q 726 133 726 96 q 723 219 725 171 q 718 328 721 267 q 711 476 715 390 l 711 507 q 706 623 711 578 q 692 697 701 668 q 669 746 683 726 q 638 786 656 765 q 549 849 601 826 q 435 871 497 871 q 335 851 386 871 q 241 796 283 831 q 171 717 199 761 q 143 625 143 672 q 147 594 143 614 q 158 556 151 575 q 174 520 165 536 q 190 500 182 504 l 307 535 q 393 743 311 743 q 485 724 443 743 q 556 671 526 704 q 603 591 586 638 q 619 490 619 544 q 615 446 619 474 q 602 391 610 418 q 585 344 594 364 q 565 325 575 325 q 481 371 521 353 q 390 392 440 389 q 317 377 357 392 q 236 339 276 363 q 160 284 196 315 q 100 218 125 253 q 67 18 67 169 q 257 -135 67 -135 q 441 -80 357 -135 q 597 93 525 -25 q 644 163 640 165 q 653 100 653 150 q 632 -118 653 17 q 854 -154 656 -151 l 865 -154 q 915 -151 896 -154 q 944 -134 933 -149 q 962 -90 956 -119 q 975 -8 968 -61 m 467 210 q 444 156 467 188 q 392 97 422 125 q 331 48 363 68 q 282 28 300 28 q 193 122 193 28 q 256 215 193 181 q 422 250 318 250 q 450 236 433 250 q 467 210 467 222 m 476 1117 q 433 1123 456 1117 q 388 1138 410 1129 q 345 1152 365 1146 q 310 1158 325 1158 q 219 1138 257 1158 q 171 1075 182 1117 q 223 1047 203 1064 q 254 1019 243 1031 q 283 1075 268 1061 q 310 1089 299 1089 q 350 1078 325 1089 q 402 1054 375 1067 q 456 1031 429 1042 q 504 1019 483 1019 q 629 1103 588 1019 q 577 1148 597 1135 q 546 1172 557 1161 l 476 1117 m 497 504 q 450 475 468 504 l 454 460 q 487 451 472 458 q 511 444 501 444 q 533 456 522 444 q 543 478 543 467 q 531 497 543 489 q 497 504 518 504 m 757 -115 q 756 -112 756 -114 l 757 -115 z "},"Ä":{"ha":1072,"x_min":-3,"x_max":1144,"o":"m 1144 -190 q 1126 -304 1135 -264 q 1099 -365 1117 -344 q 1051 -389 1082 -385 q 969 -393 1021 -393 l 958 -393 q 668 -308 725 -392 l 639 -261 q 361 -374 515 -374 q 154 -269 217 -374 q -3 54 -3 -50 q 1 140 -3 104 q 13 194 4 176 q 84 299 36 249 q 190 388 132 350 l 151 454 q 122 497 136 472 q 97 545 107 521 q 80 591 86 569 q 74 625 74 613 q 107 744 74 688 q 194 843 140 801 l 232 872 l 222 882 q 173 955 194 917 q 151 1025 151 993 q 165 1079 151 1053 q 202 1126 179 1106 q 254 1160 225 1147 q 315 1172 283 1172 q 344 1169 332 1172 q 367 1156 357 1165 q 390 1131 378 1147 q 419 1089 403 1114 q 476 1148 439 1124 q 563 1172 513 1172 q 611 1154 582 1172 q 667 1106 640 1136 q 714 1036 694 1075 q 733 956 733 997 q 716 899 733 928 q 672 847 699 871 q 747 750 708 810 q 828 607 785 690 q 869 504 856 560 q 882 382 882 449 q 881 365 881 374 q 881 350 881 357 l 881 321 l 881 275 l 881 221 q 883 158 881 192 q 888 89 885 124 q 1026 38 985 81 l 1144 -190 m 975 -8 q 725 21 947 21 q 726 37 725 28 q 726 60 726 46 q 726 133 726 96 q 723 219 725 171 q 718 328 721 267 q 711 476 715 390 l 711 507 q 706 623 711 578 q 692 697 701 668 q 669 746 683 726 q 638 786 656 765 q 549 849 601 826 q 435 871 497 871 q 335 851 386 871 q 241 796 283 831 q 171 717 199 761 q 143 625 143 672 q 147 594 143 614 q 158 556 151 575 q 174 520 165 536 q 190 500 182 504 l 307 535 q 393 743 311 743 q 485 724 443 743 q 556 671 526 704 q 603 591 586 638 q 619 490 619 544 q 615 446 619 474 q 602 391 610 418 q 585 344 594 364 q 565 325 575 325 q 481 371 521 353 q 390 392 440 389 q 317 377 357 392 q 236 339 276 363 q 160 284 196 315 q 100 218 125 253 q 67 18 67 169 q 257 -135 67 -135 q 441 -80 357 -135 q 597 93 525 -25 q 644 163 640 165 q 653 100 653 150 q 632 -118 653 17 q 854 -154 656 -151 l 865 -154 q 915 -151 896 -154 q 944 -134 933 -149 q 962 -90 956 -119 q 975 -8 968 -61 m 467 210 q 444 156 467 188 q 392 97 422 125 q 331 48 363 68 q 282 28 300 28 q 193 122 193 28 q 256 215 193 181 q 422 250 318 250 q 450 236 433 250 q 467 210 467 222 m 308 1103 q 248 1078 275 1103 q 221 1022 221 1053 q 226 1006 221 1014 q 240 990 232 997 q 256 977 247 982 q 269 972 264 972 q 294 980 279 972 q 321 1000 308 988 q 342 1027 333 1013 q 351 1057 351 1042 q 340 1088 351 1072 q 308 1103 329 1103 m 556 1103 q 495 1078 522 1103 q 468 1022 468 1053 q 474 1006 468 1014 q 487 990 479 997 q 503 977 494 982 q 517 972 511 972 q 541 980 526 972 q 568 1000 556 988 q 590 1027 581 1013 q 599 1057 599 1042 q 588 1088 599 1072 q 556 1103 576 1103 m 497 504 q 450 475 468 504 l 454 460 q 487 451 472 458 q 511 444 501 444 q 533 456 522 444 q 543 478 543 467 q 531 497 543 489 q 497 504 518 504 m 128 493 q 133 482 131 485 l 128 493 m 757 -115 q 756 -112 756 -114 l 757 -115 z "},"Å":{"ha":1072,"x_min":-3,"x_max":1144,"o":"m 1144 -190 q 1126 -304 1135 -264 q 1099 -365 1117 -344 q 1051 -389 1082 -385 q 969 -393 1021 -393 l 958 -393 q 668 -308 725 -392 l 639 -261 q 361 -374 515 -374 q 154 -269 217 -374 q -3 54 -3 -50 q 1 140 -3 104 q 13 194 4 176 q 84 299 36 249 q 190 388 132 350 l 151 454 q 122 497 136 472 q 97 545 107 521 q 80 591 86 569 q 74 625 74 613 q 93 714 74 671 q 144 794 113 757 q 219 862 176 832 q 308 913 263 892 q 250 986 272 946 q 228 1069 228 1026 q 273 1218 228 1171 q 414 1265 318 1265 q 508 1242 461 1265 q 594 1181 556 1218 q 656 1099 632 1144 q 681 1008 681 1053 q 636 879 681 924 q 828 607 718 818 q 869 504 856 560 q 882 382 882 449 q 881 365 881 374 q 881 350 881 357 l 881 321 l 881 275 l 881 221 q 883 158 881 192 q 888 89 885 124 q 1026 38 985 81 l 1144 -190 m 975 -8 q 725 21 947 21 q 726 37 725 28 q 726 60 726 46 q 726 133 726 96 q 723 219 725 171 q 718 328 721 267 q 711 476 715 390 l 711 507 q 706 623 711 578 q 692 697 701 668 q 669 746 683 726 q 638 786 656 765 q 549 849 601 826 q 435 871 497 871 q 335 851 386 871 q 241 796 283 831 q 171 717 199 761 q 143 625 143 672 q 147 594 143 614 q 158 556 151 575 q 174 520 165 536 q 190 500 182 504 l 307 535 q 393 743 311 743 q 485 724 443 743 q 556 671 526 704 q 603 591 586 638 q 619 490 619 544 q 615 446 619 474 q 602 391 610 418 q 585 344 594 364 q 565 325 575 325 q 481 371 521 353 q 390 392 440 389 q 317 377 357 392 q 236 339 276 363 q 160 284 196 315 q 100 218 125 253 q 67 18 67 169 q 257 -135 67 -135 q 441 -80 357 -135 q 597 93 525 -25 q 644 163 640 165 q 653 100 653 150 q 632 -118 653 17 q 854 -154 656 -151 l 865 -154 q 915 -151 896 -154 q 944 -134 933 -149 q 962 -90 956 -119 q 975 -8 968 -61 m 414 1214 q 310 1177 342 1214 q 279 1069 279 1140 q 424 957 279 957 q 465 962 443 957 q 505 981 486 967 q 535 1022 524 996 q 547 1090 547 1047 q 516 1183 547 1153 q 414 1214 485 1214 m 467 210 q 444 156 467 188 q 392 97 422 125 q 331 48 363 68 q 282 28 300 28 q 193 122 193 28 q 256 215 193 181 q 422 250 318 250 q 450 236 433 250 q 467 210 467 222 m 414 1172 q 474 1149 453 1172 q 496 1079 496 1126 q 474 1019 496 1040 q 414 997 453 997 q 352 1019 374 997 q 331 1079 331 1040 q 414 1172 331 1172 m 497 504 q 450 475 468 504 l 454 460 q 487 451 472 458 q 511 444 501 444 q 533 456 522 444 q 543 478 543 467 q 531 497 543 489 q 497 504 518 504 m 128 493 q 133 482 131 485 l 128 493 m 757 -115 q 756 -112 756 -114 l 757 -115 z "},"Ç":{"ha":1042,"x_min":-71,"x_max":1179,"o":"m 988 10 q 822 -201 892 -119 q 706 -324 753 -283 q 727 -374 721 -346 q 733 -433 733 -401 q 718 -526 733 -490 q 676 -581 703 -561 q 610 -607 649 -600 q 525 -614 572 -614 q 476 -609 501 -614 q 421 -586 451 -604 q 352 -533 390 -568 q 263 -435 314 -497 q 231 -381 246 -415 q 206 -294 217 -347 l 226 -294 q 246 -293 239 -294 q 181 -227 210 -262 q 129 -153 153 -192 l 64 -43 q -37 140 -3 40 q -71 338 -71 240 q -34 585 -71 479 q 67 764 3 692 q 218 872 131 836 q 406 908 306 908 q 544 892 486 908 q 642 853 603 875 q 706 808 682 831 q 740 772 729 785 l 910 899 q 951 877 925 894 q 1004 833 976 860 q 1059 758 1017 821 q 1172 582 1101 696 q 1176 575 1174 578 l 1179 569 l 843 278 q 717 390 764 350 q 641 450 671 431 q 590 474 611 469 q 540 478 568 478 q 458 453 499 478 q 388 388 418 429 q 338 294 357 347 q 319 186 319 242 q 351 67 319 101 q 432 33 383 33 l 440 33 q 450 35 447 33 q 494 54 469 35 q 541 99 518 74 q 581 150 564 125 q 606 186 599 175 q 635 238 617 206 q 676 310 654 269 q 769 285 721 303 q 853 235 818 268 q 898 167 864 224 q 988 10 932 111 m 529 -124 q 629 -77 581 -107 q 717 -8 678 -47 q 782 78 756 31 q 815 176 808 125 q 774 217 804 204 q 715 235 743 231 q 684 172 708 217 q 623 82 660 128 q 542 1 586 36 q 450 -35 497 -35 q 338 -12 392 -35 q 242 58 283 11 q 175 178 200 106 q 150 350 150 251 q 173 500 150 432 q 235 616 196 568 q 326 690 274 664 q 436 717 378 717 q 504 711 475 717 q 565 687 533 706 q 637 633 596 668 q 740 540 678 599 l 997 763 q 985 779 994 769 q 965 798 976 789 q 943 815 954 807 q 925 824 932 822 l 724 674 q 700 720 722 692 q 635 775 678 749 q 529 820 593 801 q 379 839 465 839 q 234 806 303 839 q 113 710 165 774 q 30 553 61 646 q -1 338 -1 460 q 22 185 -1 264 q 87 39 44 107 q 190 -78 129 -29 q 324 -142 250 -128 l 372 -142 q 381 -211 372 -187 q 404 -246 390 -235 q 435 -260 418 -257 q 465 -269 451 -264 q 488 -285 479 -274 q 497 -322 497 -296 q 478 -366 497 -354 q 428 -378 460 -378 l 415 -378 q 358 -362 381 -372 q 322 -344 335 -351 q 289 -350 310 -350 q 303 -394 289 -376 q 336 -424 317 -412 q 377 -442 356 -436 q 414 -447 399 -447 q 528 -418 489 -447 q 567 -336 567 -389 q 558 -263 567 -290 q 536 -223 550 -236 q 506 -206 522 -210 q 471 -203 489 -203 q 450 -194 458 -203 q 442 -142 442 -185 q 501 -132 485 -136 q 529 -124 518 -128 z "},"È":{"ha":1013,"x_min":-18,"x_max":1065,"o":"m 965 250 l 1065 83 l 1065 51 q 1041 -49 1065 4 q 976 -153 1017 -101 q 882 -252 936 -204 q 768 -337 828 -300 q 646 -396 708 -374 q 526 -419 583 -418 l 511 -419 q 311 -368 396 -419 q 133 -178 225 -318 q 13 57 44 -40 q -18 271 -18 149 q 24 532 -18 410 q 142 750 67 654 q 358 924 232 865 q 326 933 343 929 q 292 943 310 938 l 181 1054 q 256 1162 233 1107 q 278 1290 278 1217 q 398 1227 340 1254 q 509 1178 456 1200 q 612 1136 563 1156 q 708 1096 661 1117 l 806 985 q 787 962 797 975 q 766 935 776 949 q 749 909 756 921 q 742 892 742 897 q 740 889 742 890 q 769 863 757 875 q 795 833 782 851 q 827 783 808 814 q 875 700 846 751 q 928 599 907 642 q 949 535 949 556 q 829 344 949 485 q 899 306 865 329 q 965 250 933 282 m 896 228 q 763 303 822 292 q 694 92 753 164 q 535 19 635 19 q 438 38 486 19 q 351 88 390 57 q 288 159 313 119 q 261 242 263 199 l 792 653 q 774 732 786 690 q 733 808 763 774 q 652 864 704 842 q 514 886 600 886 q 340 836 424 886 q 192 702 256 786 q 90 506 128 618 q 51 271 51 394 q 76 91 51 174 q 145 -52 100 8 q 256 -147 190 -112 q 406 -181 322 -181 q 516 -162 458 -181 q 628 -113 574 -144 q 731 -41 682 -82 q 816 45 779 0 q 874 137 853 90 q 896 225 896 183 l 896 228 m 251 340 l 243 340 q 222 347 228 340 q 217 382 217 353 q 231 523 217 456 q 278 642 244 590 q 369 724 313 693 q 511 754 425 754 q 586 731 558 754 q 640 663 614 707 l 251 340 m 597 1068 q 528 1097 561 1083 q 465 1124 496 1111 q 401 1151 433 1138 q 333 1179 369 1164 q 325 1146 333 1168 q 306 1082 317 1124 q 372 1066 342 1076 q 430 1042 401 1056 q 489 1010 458 1028 q 556 971 519 992 l 597 1068 m 671 222 l 501 94 q 535 89 513 89 q 671 222 626 89 z "},"É":{"ha":1013,"x_min":-18,"x_max":1065,"o":"m 965 250 l 1065 83 l 1065 51 q 1041 -49 1065 4 q 976 -153 1017 -101 q 882 -252 936 -204 q 768 -337 828 -300 q 646 -396 708 -374 q 526 -419 583 -418 l 511 -419 q 312 -369 399 -419 q 171 -226 225 -318 l 101 -110 q 13 57 43 -39 q -18 271 -18 153 q 24 532 -18 410 q 142 750 67 654 q 313 900 214 843 l 317 903 l 257 946 q 188 1099 235 1039 q 394 1188 293 1143 q 590 1279 494 1232 l 688 1168 l 771 946 q 728 934 749 939 q 688 922 707 929 q 790 839 751 890 q 823 788 801 824 q 875 700 844 753 q 924 608 906 647 q 947 544 942 569 q 829 344 960 496 q 965 250 901 313 m 896 228 q 763 303 822 292 q 694 92 753 164 q 535 19 635 19 q 438 38 486 19 q 351 88 390 57 q 288 159 313 119 q 261 242 263 199 l 792 653 q 774 732 786 690 q 733 808 763 774 q 652 864 704 842 q 514 886 600 886 q 340 836 426 886 q 190 701 254 786 q 89 505 126 617 q 51 271 51 393 q 76 88 51 171 q 147 -54 101 6 q 197 -106 169 -82 q 258 -147 224 -129 q 399 -180 326 -181 q 526 -160 471 -179 q 661 -92 594 -136 q 780 5 728 -49 q 864 116 832 58 q 896 225 896 174 l 896 228 m 251 340 q 219 351 225 339 q 219 451 213 364 q 230 531 222 496 q 251 592 238 565 q 330 690 278 644 q 461 749 382 736 q 574 739 535 763 q 640 663 608 717 l 251 340 m 326 974 q 576 1085 453 1063 q 535 1182 553 1124 q 409 1120 471 1147 q 285 1071 347 1093 q 326 974 311 1032 m 535 89 q 671 222 626 89 l 501 92 q 513 90 508 90 q 518 89 517 89 l 535 89 z "},"Ê":{"ha":1013,"x_min":-18,"x_max":1065,"o":"m 965 250 l 1065 83 l 1065 51 q 1041 -49 1065 4 q 976 -153 1017 -101 q 882 -252 936 -204 q 768 -337 828 -300 q 646 -396 708 -374 q 526 -419 583 -418 l 511 -419 q 312 -369 399 -419 q 171 -226 225 -318 l 101 -110 q 13 57 43 -39 q -18 271 -18 153 q 24 532 -18 410 q 142 750 67 654 q 306 896 210 838 l 144 1086 q 322 1176 240 1128 q 478 1267 403 1225 q 588 1182 510 1225 q 783 1086 665 1139 l 881 975 q 821 911 849 943 q 775 857 793 879 q 787 838 774 857 q 819 788 800 818 q 860 722 838 758 q 903 649 883 685 q 935 582 922 613 q 949 535 949 551 q 829 344 949 485 q 899 306 865 329 q 965 250 933 282 m 896 228 q 763 303 822 292 q 694 92 753 164 q 535 19 635 19 q 438 38 486 19 q 351 88 390 57 q 288 159 313 119 q 261 242 263 199 l 792 653 q 774 732 786 690 q 733 808 763 774 q 652 864 704 842 q 514 886 600 886 q 340 836 424 886 q 192 702 256 786 q 90 506 128 618 q 51 271 51 394 q 76 91 51 174 q 145 -52 100 8 q 256 -147 190 -112 q 406 -181 322 -181 q 516 -162 458 -181 q 628 -113 574 -144 q 731 -41 682 -82 q 816 45 779 0 q 874 137 853 90 q 896 225 896 183 l 896 228 m 251 340 l 243 340 q 222 347 228 340 q 217 382 217 353 q 231 523 217 456 q 278 642 244 590 q 369 724 313 693 q 511 754 425 754 q 586 731 558 754 q 640 663 614 707 l 251 340 m 672 1058 q 569 1121 619 1090 q 478 1183 519 1151 q 374 1128 425 1151 q 269 1072 322 1104 q 290 1027 281 1040 q 311 1003 300 1014 l 325 989 q 365 1015 346 1004 q 400 1037 383 1026 q 433 1059 417 1047 q 464 1086 449 1071 q 528 1032 496 1054 q 603 989 561 1010 l 672 1058 m 535 89 q 671 222 626 89 l 501 92 q 513 90 508 90 q 518 89 517 89 l 535 89 z "},"Ë":{"ha":1013,"x_min":-18,"x_max":1065,"o":"m 965 250 l 1065 83 l 1065 51 q 1041 -49 1065 4 q 976 -153 1017 -101 q 882 -252 936 -204 q 768 -337 828 -300 q 646 -396 708 -374 q 526 -419 583 -418 l 511 -419 q 312 -369 399 -419 q 171 -226 225 -318 l 101 -110 q 13 57 43 -39 q -18 271 -18 153 q 24 532 -18 410 q 142 750 67 654 q 217 832 176 794 q 307 897 258 869 q 247 976 272 933 q 221 1056 221 1019 q 235 1110 221 1083 q 272 1157 249 1136 q 324 1190 294 1178 q 385 1203 353 1203 q 414 1199 401 1203 q 437 1187 426 1196 q 460 1161 447 1178 q 489 1119 472 1144 q 545 1178 508 1154 q 632 1203 582 1203 q 681 1185 651 1203 q 737 1136 710 1167 q 783 1067 764 1106 q 803 986 803 1028 q 787 933 803 960 q 747 883 771 907 q 783 869 763 889 q 826 816 804 850 q 870 740 849 782 q 909 657 892 697 q 938 583 926 617 q 949 535 949 550 q 829 344 949 485 q 899 306 865 329 q 965 250 933 282 m 896 228 q 763 303 822 292 q 694 92 753 164 q 535 19 635 19 q 438 38 486 19 q 351 88 390 57 q 288 159 313 119 q 261 242 263 199 l 792 653 q 774 732 786 690 q 733 808 763 774 q 652 864 704 842 q 514 886 600 886 q 340 836 424 886 q 192 702 256 786 q 90 506 128 618 q 51 271 51 394 q 76 91 51 174 q 145 -52 100 8 q 256 -147 190 -112 q 406 -181 322 -181 q 516 -162 458 -181 q 628 -113 574 -144 q 731 -41 682 -82 q 816 45 779 0 q 874 137 853 90 q 896 225 896 183 l 896 228 m 251 340 l 243 340 q 222 347 228 340 q 217 382 217 353 q 231 523 217 456 q 278 642 244 590 q 369 724 313 693 q 511 754 425 754 q 587 731 558 754 q 640 663 615 707 l 251 340 m 378 1133 q 317 1108 344 1133 q 290 1053 290 1083 q 296 1036 290 1044 q 309 1020 301 1028 q 325 1008 317 1013 q 339 1003 333 1003 q 363 1010 349 1003 q 390 1031 378 1018 q 412 1058 403 1043 q 421 1088 421 1072 q 410 1118 421 1103 q 378 1133 399 1133 m 625 1133 q 565 1108 592 1133 q 538 1053 538 1083 q 543 1036 538 1044 q 556 1020 549 1028 q 572 1008 564 1013 q 586 1003 581 1003 q 610 1010 596 1003 q 638 1031 625 1018 q 659 1058 650 1043 q 668 1088 668 1072 q 657 1118 668 1103 q 625 1133 646 1133 m 535 89 q 671 222 626 89 l 501 92 q 513 90 508 90 q 518 89 517 89 l 535 89 z "},"Ì":{"ha":533,"x_min":-21,"x_max":632,"o":"m -21 -47 q -12 32 -21 -12 q 10 115 -4 76 q 44 181 25 154 q 85 207 64 207 q 107 205 94 207 q 138 200 119 203 q 147 262 142 229 q 158 331 153 294 l 58 497 l 54 496 q 33 565 38 544 q 25 594 29 586 l 25 632 q 63 768 25 664 l 275 858 q 281 860 278 860 q 286 863 283 861 q 208 888 250 875 q 118 914 165 900 l 7 1025 q 82 1133 60 1078 q 104 1261 104 1188 q 224 1198 167 1225 q 335 1149 282 1171 q 438 1107 389 1126 q 535 1067 488 1088 l 632 956 q 569 865 590 903 q 549 817 549 828 l 465 793 q 490 753 475 776 q 519 706 506 731 q 543 653 533 681 q 553 601 553 626 q 545 542 553 589 q 527 432 538 496 q 504 294 517 368 q 482 153 492 221 l 586 -24 q 583 -41 586 -22 q 578 -85 581 -60 q 572 -134 575 -110 q 567 -167 568 -158 q 535 -233 558 -206 q 453 -261 511 -261 l 88 -217 l -21 -47 m 361 103 q 340 104 360 104 l 288 104 q 282 136 282 110 q 290 190 282 143 q 308 304 297 238 q 333 448 319 371 q 357 594 346 525 q 376 713 368 663 q 383 775 383 763 q 369 824 383 818 q 328 803 354 813 q 271 784 301 794 q 209 761 240 774 q 152 731 178 749 q 110 691 126 714 q 94 636 94 668 q 96 592 94 593 l 272 676 q 276 654 276 674 q 271 606 276 646 q 257 511 265 567 q 238 391 249 456 q 219 269 228 326 q 203 169 210 211 q 196 113 197 126 q 85 138 125 138 q 71 125 78 138 q 59 94 64 113 q 51 53 54 75 q 49 15 49 32 l 357 -22 q 385 -10 376 -22 q 399 22 394 3 q 403 60 403 40 q 407 96 404 81 l 361 103 m 382 942 q 403 1001 393 981 q 424 1039 413 1022 q 355 1068 388 1054 q 291 1095 322 1082 q 228 1122 260 1108 q 160 1150 196 1135 q 151 1117 160 1139 q 132 1053 143 1094 q 198 1037 168 1047 q 256 1013 228 1026 q 315 981 285 999 q 382 942 346 963 z "},"Í":{"ha":533,"x_min":-21,"x_max":597,"o":"m -21 -47 q -12 32 -21 -12 q 10 115 -4 76 q 44 181 25 154 q 85 207 64 207 q 107 205 94 207 q 138 200 119 203 q 147 262 142 229 q 158 331 153 294 l 58 497 l 54 496 q 38 549 43 529 q 29 579 32 568 q 25 594 26 590 l 25 632 q 63 768 25 664 l 226 838 l 83 940 q 14 1093 61 1033 q 220 1182 119 1138 q 417 1274 321 1226 l 514 1163 l 597 940 q 403 872 490 913 q 464 794 431 844 q 536 669 497 744 q 553 601 553 640 q 545 542 553 589 q 527 432 538 496 q 504 294 517 368 q 482 153 492 221 l 586 -24 q 584 -40 586 -25 q 579 -83 582 -56 q 567 -167 572 -142 q 535 -233 560 -206 q 453 -261 511 -261 l 88 -217 l -21 -47 m 361 103 q 340 104 360 104 l 288 104 q 282 136 282 110 q 290 190 282 143 q 308 304 297 238 q 333 448 319 371 q 357 594 346 525 q 376 713 368 663 q 383 775 383 763 q 369 824 383 818 q 296 792 342 804 q 204 760 250 779 q 126 708 158 740 q 94 636 94 676 q 96 592 94 593 l 272 676 q 276 654 276 674 q 271 606 276 646 q 257 511 265 567 q 238 391 249 456 q 219 269 228 326 q 203 169 210 211 q 196 113 197 126 q 85 138 125 138 q 71 125 78 138 q 59 94 64 113 q 51 53 54 75 q 49 15 49 32 l 357 -22 q 385 -10 376 -22 q 399 22 394 3 q 403 60 403 40 q 407 96 404 81 l 361 103 m 153 968 q 403 1079 279 1057 q 361 1176 379 1118 q 235 1115 297 1142 q 111 1065 174 1088 q 153 968 138 1026 z "},"Î":{"ha":533,"x_min":-61,"x_max":675,"o":"m -21 -47 q -12 32 -21 -12 q 10 115 -4 76 q 44 181 25 154 q 85 207 64 207 q 107 205 94 207 q 138 200 119 203 q 147 262 142 229 q 158 331 153 294 l 58 497 l 54 496 q 33 565 38 544 q 25 594 29 586 l 25 632 q 63 768 25 664 l 158 808 l -61 1065 q 116 1156 35 1107 q 272 1246 197 1204 q 382 1161 304 1204 q 578 1065 460 1118 l 675 954 q 634 911 654 933 q 597 869 614 889 l 568 835 q 557 823 561 828 q 550 815 553 818 l 481 801 q 453 810 465 804 q 481 769 464 793 q 515 716 499 744 q 542 658 531 688 q 553 601 553 628 q 545 542 553 589 q 527 432 538 496 q 504 294 517 368 q 482 153 492 221 l 586 -24 q 583 -41 586 -22 q 578 -85 581 -60 q 572 -134 575 -110 q 567 -167 568 -158 q 535 -233 558 -206 q 453 -261 511 -261 l 88 -217 l -21 -47 m 361 103 q 340 104 360 104 l 288 104 q 282 136 282 110 q 290 190 282 143 q 308 304 297 238 q 333 448 319 371 q 357 594 346 525 q 376 713 368 663 q 383 775 383 763 q 369 824 383 818 q 328 803 354 813 q 271 784 301 794 q 209 761 240 774 q 152 731 178 749 q 110 691 126 714 q 94 636 94 668 q 96 592 94 593 l 272 676 q 276 654 276 674 q 271 606 276 646 q 257 511 265 567 q 238 391 249 456 q 219 269 228 326 q 203 169 210 211 q 196 113 197 126 q 85 138 125 138 q 71 125 78 138 q 59 94 64 113 q 51 53 54 75 q 49 15 49 32 l 357 -22 q 385 -10 376 -22 q 399 22 394 3 q 403 60 403 40 q 407 96 404 81 l 361 103 m 397 968 l 467 1038 q 364 1100 414 1069 q 272 1163 314 1131 q 168 1107 219 1131 q 64 1051 117 1083 q 85 1006 75 1019 q 106 982 94 993 l 119 968 q 159 994 140 983 q 194 1016 178 1006 q 227 1038 211 1026 q 258 1065 243 1050 q 323 1011 290 1033 q 397 968 356 989 z "},"Ï":{"ha":533,"x_min":-21,"x_max":615,"o":"m -21 -47 q -12 32 -21 -12 q 10 115 -4 76 q 44 181 25 154 q 85 207 64 207 q 107 205 94 207 q 138 200 119 203 q 147 262 142 229 q 158 331 153 294 l 58 497 l 54 496 q 33 565 38 544 q 25 594 29 586 l 25 632 q 63 768 25 664 l 169 813 q 123 853 147 829 q 79 906 99 878 q 47 962 60 933 q 33 1015 33 990 q 47 1069 33 1043 q 84 1117 61 1096 q 136 1150 107 1138 q 197 1163 165 1163 q 226 1159 214 1163 q 249 1147 239 1156 q 272 1121 260 1138 q 301 1079 285 1104 q 358 1138 321 1114 q 444 1163 394 1163 q 493 1144 464 1163 q 549 1096 522 1126 q 596 1026 576 1065 q 615 946 615 988 q 599 893 615 921 q 560 843 583 865 q 512 806 538 821 q 465 792 486 792 q 490 753 475 775 q 519 706 506 731 q 543 654 533 681 q 553 601 553 628 q 545 542 553 589 q 527 432 538 496 q 504 294 517 368 q 482 153 492 221 l 586 -24 q 583 -41 586 -22 q 578 -85 581 -60 q 572 -134 575 -110 q 567 -167 568 -158 q 535 -233 558 -206 q 453 -261 511 -261 l 88 -217 l -21 -47 m 361 103 q 340 104 360 104 l 288 104 q 282 136 282 110 q 290 190 282 143 q 308 304 297 238 q 333 448 319 371 q 357 594 346 525 q 376 713 368 663 q 383 775 383 763 q 369 824 383 818 q 328 803 354 813 q 271 784 301 794 q 209 761 240 774 q 152 731 178 749 q 110 691 126 714 q 94 636 94 668 q 96 592 94 593 l 272 676 q 276 654 276 674 q 271 606 276 646 q 257 511 265 567 q 238 391 249 456 q 219 269 228 326 q 203 169 210 211 q 196 113 197 126 q 85 138 125 138 q 71 125 78 138 q 59 94 64 113 q 51 53 54 75 q 49 15 49 32 l 357 -22 q 385 -10 376 -22 q 399 22 394 3 q 403 60 403 40 q 407 96 404 81 l 361 103 m 190 1093 q 130 1068 157 1093 q 103 1013 103 1043 q 108 996 103 1004 q 122 980 114 988 q 138 967 129 972 q 151 963 146 963 q 176 970 161 963 q 203 990 190 978 q 224 1017 215 1003 q 233 1047 233 1032 q 222 1078 233 1063 q 190 1093 211 1093 m 438 1093 q 377 1068 404 1093 q 350 1013 350 1043 q 356 996 350 1004 q 369 980 361 988 q 385 967 376 972 q 399 963 393 963 q 423 970 408 963 q 450 990 438 978 q 472 1017 463 1003 q 481 1047 481 1032 q 469 1078 481 1063 q 438 1093 458 1093 z "},"Ñ":{"ha":1006,"x_min":-94,"x_max":1054,"o":"m 582 1226 q 740 1106 688 1147 l 838 994 q 733 871 789 908 q 817 815 769 856 q 908 715 865 775 q 979 578 950 656 q 1008 413 1008 501 q 993 247 1008 338 q 946 68 978 156 l 1011 -39 q 1032 -71 1024 -53 q 1045 -108 1040 -89 q 1052 -144 1050 -126 q 1054 -174 1054 -161 q 1049 -229 1054 -193 q 1035 -324 1044 -265 q 715 -307 843 -312 q 517 -301 588 -301 q 383 -315 438 -301 q 290 -348 328 -329 q 227 -385 251 -367 q 185 -414 203 -404 q 158 -365 174 -392 q 127 -315 143 -339 q 98 -274 111 -292 q 76 -249 85 -256 l 76 38 l 200 107 q 185 224 193 169 q 168 326 176 279 l 117 307 q 35 394 75 329 q -94 678 -90 571 l 285 893 q 115 1008 199 963 q 210 1165 157 1113 q 338 1217 263 1217 q 382 1208 360 1217 q 426 1190 404 1200 q 467 1172 447 1181 q 503 1164 486 1164 q 544 1178 526 1164 q 582 1226 563 1193 m 876 -83 q 885 0 885 -36 q 856 100 885 67 q 760 66 803 81 q 686 44 718 51 q 800 326 761 188 q 839 586 839 464 q 830 686 839 642 q 798 760 821 731 q 738 806 775 790 q 643 822 700 822 l 635 822 q 505 802 560 822 q 411 751 450 782 q 348 681 372 719 q 310 604 324 642 l 260 799 l -24 638 q 18 553 -21 575 l 151 606 q 275 68 231 497 l 151 -4 l 151 -125 q 203 -99 169 -112 q 275 -72 238 -85 q 349 -50 313 -60 q 408 -37 385 -40 l 361 508 q 465 626 408 583 q 592 669 521 669 q 724 538 724 669 q 715 455 724 501 q 685 338 707 408 q 627 167 664 268 q 535 -78 590 67 l 876 -83 m 574 1147 q 549 1103 563 1115 q 504 1092 536 1092 q 460 1098 483 1092 q 415 1113 438 1104 q 373 1127 393 1121 q 338 1133 353 1133 q 247 1113 285 1133 q 199 1050 210 1092 q 251 1022 231 1039 q 282 994 271 1006 q 311 1050 296 1036 q 338 1064 326 1064 q 378 1053 353 1064 q 430 1029 403 1042 q 484 1006 457 1017 q 532 994 511 994 q 657 1078 615 994 q 605 1123 625 1110 q 574 1147 585 1136 m 606 401 q 562 356 581 376 q 532 317 543 335 l 546 153 q 607 383 607 317 q 606 401 607 397 z "},"Ò":{"ha":889,"x_min":-40,"x_max":957,"o":"m 8 -14 q -40 246 -40 165 q -11 451 -40 350 q 69 636 18 551 q 188 784 119 721 q 335 876 257 847 q 296 888 315 882 q 256 900 276 893 l 144 1011 q 219 1119 197 1064 q 242 1247 242 1174 q 362 1184 304 1211 q 473 1135 419 1157 q 576 1093 526 1113 q 672 1053 625 1074 l 769 942 q 726 881 743 908 q 699 833 710 854 q 696 829 697 831 q 693 825 694 828 q 894 565 810 742 q 957 289 957 461 q 917 42 957 157 q 803 -160 876 -74 q 627 -296 731 -246 q 397 -346 524 -346 q 309 -336 346 -346 q 240 -307 272 -326 q 149 -214 206 -287 q 8 -14 92 -140 m 788 463 q 461 831 788 831 q 297 781 375 831 q 158 650 218 732 q 64 463 99 568 q 29 246 29 357 q 47 105 29 169 q 97 -7 64 40 q 180 -81 131 -54 q 293 -107 229 -107 q 497 -62 406 -107 q 652 60 588 -17 q 752 241 717 138 q 788 463 788 344 m 639 357 q 594 242 625 300 q 521 137 563 185 q 433 59 479 89 q 342 29 386 29 q 171 92 229 29 q 113 263 113 154 q 128 363 113 310 q 169 467 143 415 q 231 566 196 519 q 306 649 267 613 q 389 706 346 685 q 472 726 432 726 q 545 703 513 726 q 601 642 578 681 q 636 552 624 604 q 649 442 649 500 q 639 357 649 375 m 553 482 q 477 449 521 482 q 392 366 433 415 q 323 259 351 317 q 294 154 294 201 q 342 99 294 99 q 424 133 382 99 q 501 218 467 167 q 557 329 535 269 q 579 442 579 389 q 574 472 579 461 q 553 482 568 482 m 561 1025 q 492 1054 525 1040 q 428 1081 460 1068 q 365 1108 397 1094 q 297 1136 333 1121 q 289 1103 297 1125 q 269 1039 281 1081 q 335 1023 306 1033 q 394 999 365 1013 q 453 967 422 985 q 519 928 483 949 l 561 1025 z "},"Ó":{"ha":889,"x_min":-40,"x_max":957,"o":"m 749 903 q 685 885 717 894 q 625 864 654 875 q 732 790 683 836 q 826 678 781 744 q 881 591 857 633 q 922 503 906 549 q 948 405 939 457 q 957 289 957 353 q 917 42 957 157 q 803 -160 876 -74 q 627 -296 731 -246 q 397 -346 524 -346 q 314 -338 350 -346 q 247 -314 278 -331 q 188 -270 217 -297 q 126 -203 160 -243 q 60 -103 90 -160 q 7 13 29 -47 q -28 134 -15 74 q -40 246 -40 194 q -15 438 -40 343 q 56 613 11 532 q 163 758 101 694 q 296 858 224 822 l 235 903 q 165 1056 213 996 q 372 1144 271 1100 q 568 1236 472 1189 l 665 1125 l 749 903 m 461 831 q 297 781 375 831 q 158 650 218 732 q 64 463 99 568 q 29 246 29 357 q 47 105 29 169 q 97 -7 64 40 q 180 -81 131 -54 q 293 -107 229 -107 q 497 -62 406 -107 q 652 60 588 -17 q 752 241 717 138 q 788 463 788 344 q 461 831 788 831 m 639 357 q 594 242 625 300 q 521 137 563 185 q 433 59 479 89 q 342 29 386 29 q 171 92 229 29 q 113 263 113 154 q 128 363 113 310 q 169 467 143 415 q 231 566 196 519 q 306 649 267 613 q 389 706 346 685 q 472 726 432 726 q 545 703 513 726 q 601 642 578 681 q 636 552 624 604 q 649 442 649 500 q 639 357 649 382 m 553 482 q 477 449 521 482 q 392 366 433 415 q 323 259 351 317 q 294 154 294 201 q 342 99 294 99 q 422 132 379 99 q 499 216 464 165 q 558 326 535 267 q 581 436 581 385 q 575 468 581 454 q 553 482 569 482 m 304 931 q 554 1042 431 1019 q 513 1139 531 1081 q 387 1077 449 1104 q 263 1028 325 1050 q 304 931 289 989 z "},"Ô":{"ha":889,"x_min":-40,"x_max":957,"o":"m 264 1117 q 345 1163 306 1140 q 421 1207 385 1186 q 531 1122 453 1165 q 726 1026 608 1079 l 824 915 q 783 872 803 894 q 746 831 763 850 l 719 800 q 774 744 747 775 q 826 678 801 714 q 881 591 857 633 q 922 503 906 549 q 948 405 939 457 q 957 289 957 353 q 917 42 957 157 q 803 -160 876 -74 q 627 -296 731 -246 q 397 -346 524 -346 q 314 -338 350 -346 q 247 -314 278 -331 q 188 -270 217 -297 q 126 -203 160 -243 q 60 -103 90 -160 q 7 13 29 -47 q -28 134 -15 74 q -40 246 -40 194 q -19 424 -40 336 q 42 588 3 511 q 134 728 81 665 q 251 833 188 792 l 88 1026 q 264 1117 182 1068 m 461 831 q 297 781 375 831 q 158 650 218 732 q 64 463 99 568 q 29 246 29 357 q 47 105 29 169 q 97 -7 64 40 q 180 -81 131 -54 q 293 -107 229 -107 q 497 -62 406 -107 q 652 60 588 -17 q 752 241 717 138 q 788 463 788 344 q 461 831 788 831 m 639 357 q 594 242 625 300 q 521 137 563 185 q 433 59 479 89 q 342 29 386 29 q 171 92 229 29 q 113 263 113 154 q 128 363 113 310 q 169 467 143 415 q 231 566 196 519 q 306 649 267 613 q 389 706 346 685 q 472 726 432 726 q 545 703 513 726 q 601 642 578 681 q 636 552 624 604 q 649 442 649 500 q 639 357 649 382 m 553 482 q 477 449 521 482 q 392 366 433 415 q 323 259 351 317 q 294 154 294 201 q 342 99 294 99 q 422 132 379 99 q 499 216 464 165 q 558 326 535 267 q 581 436 581 385 q 575 468 581 454 q 553 482 569 482 m 615 999 q 513 1061 563 1031 q 421 1124 463 1092 q 317 1068 368 1092 q 213 1013 265 1044 q 233 967 224 981 q 254 943 243 954 l 268 929 q 308 956 289 944 q 343 977 326 967 q 376 999 360 988 q 407 1026 392 1011 q 472 972 439 994 q 546 929 504 950 l 615 999 z "},"Õ":{"ha":889,"x_min":-40,"x_max":957,"o":"m 583 1153 q 742 1032 689 1074 l 839 921 q 728 793 789 831 q 778 740 754 769 q 826 678 803 711 q 881 591 857 633 q 922 503 906 549 q 948 405 939 457 q 957 289 957 353 q 917 42 957 157 q 803 -160 876 -74 q 627 -296 731 -246 q 397 -346 524 -346 q 314 -338 350 -346 q 247 -314 278 -331 q 188 -270 217 -297 q 126 -203 160 -243 q 60 -103 90 -160 q 7 13 29 -47 q -28 134 -15 74 q -40 246 -40 194 q -17 426 -40 338 q 46 594 6 515 q 142 735 86 672 q 263 839 197 799 q 117 935 188 894 q 211 1091 158 1039 q 339 1143 264 1143 q 383 1135 361 1143 q 427 1117 406 1126 q 468 1099 449 1107 q 504 1090 488 1090 q 546 1105 528 1090 q 583 1153 564 1119 m 461 831 q 297 781 375 831 q 158 650 218 732 q 64 463 99 568 q 29 246 29 357 q 47 105 29 169 q 97 -7 64 40 q 180 -81 131 -54 q 293 -107 229 -107 q 497 -62 406 -107 q 652 60 588 -17 q 752 241 717 138 q 788 463 788 344 q 461 831 788 831 m 639 357 q 594 242 625 300 q 521 137 563 185 q 433 59 479 89 q 342 29 386 29 q 171 92 229 29 q 113 263 113 154 q 128 363 113 310 q 169 467 143 415 q 231 566 196 519 q 306 649 267 613 q 389 706 346 685 q 472 726 432 726 q 545 703 513 726 q 601 642 578 681 q 636 552 624 604 q 649 442 649 500 q 639 357 649 382 m 553 482 q 477 449 521 482 q 392 366 433 415 q 323 259 351 317 q 294 154 294 201 q 342 99 294 99 q 422 132 379 99 q 499 216 464 165 q 558 326 535 267 q 581 436 581 385 q 575 468 581 454 q 553 482 569 482 m 575 1074 q 551 1030 564 1042 q 506 1018 538 1018 q 462 1024 485 1018 q 417 1039 439 1031 q 374 1053 394 1047 q 339 1060 354 1060 q 249 1039 286 1060 q 200 976 211 1018 q 252 949 232 965 q 283 921 272 932 q 313 976 297 963 q 339 990 328 990 q 379 979 354 990 q 431 956 404 968 q 485 932 458 943 q 533 921 513 921 q 658 1004 617 921 q 606 1049 626 1036 q 575 1074 586 1063 z "},"Ö":{"ha":889,"x_min":-40,"x_max":957,"o":"m 358 1138 q 388 1134 375 1138 q 410 1122 400 1131 q 433 1096 421 1113 q 463 1054 446 1079 q 519 1113 482 1089 q 606 1138 556 1138 q 654 1119 625 1138 q 710 1071 683 1101 q 757 1001 738 1040 q 776 921 776 963 q 758 861 776 892 q 711 807 739 831 q 770 749 742 782 q 826 678 799 717 q 881 591 857 633 q 922 503 906 549 q 948 405 939 457 q 957 289 957 353 q 917 42 957 157 q 803 -160 876 -74 q 627 -296 731 -246 q 397 -346 524 -346 q 314 -338 350 -346 q 247 -314 278 -331 q 188 -270 217 -297 q 126 -203 160 -243 q 60 -103 90 -160 q 7 13 29 -47 q -28 134 -15 74 q -40 246 -40 194 q -17 429 -40 339 q 48 598 7 519 q 146 740 89 676 q 269 843 203 803 q 216 918 238 878 q 194 990 194 958 q 208 1044 194 1018 q 245 1092 222 1071 q 297 1125 268 1113 q 358 1138 326 1138 m 461 831 q 297 781 375 831 q 158 650 218 732 q 64 463 99 568 q 29 246 29 357 q 47 105 29 169 q 97 -7 64 40 q 180 -81 131 -54 q 293 -107 229 -107 q 497 -62 406 -107 q 652 60 588 -17 q 752 241 717 138 q 788 463 788 344 q 461 831 788 831 m 639 357 q 594 242 625 300 q 521 137 563 185 q 433 59 479 89 q 342 29 386 29 q 171 92 229 29 q 113 263 113 154 q 128 363 113 310 q 169 467 143 415 q 231 566 196 519 q 306 649 267 613 q 389 706 346 685 q 472 726 432 726 q 545 703 513 726 q 601 642 578 681 q 636 552 624 604 q 649 442 649 500 q 639 357 649 382 m 553 482 q 477 449 521 482 q 392 366 433 415 q 323 259 351 317 q 294 154 294 201 q 342 99 294 99 q 422 132 379 99 q 499 216 464 165 q 558 326 535 267 q 581 436 581 385 q 575 468 581 454 q 553 482 569 482 m 351 1068 q 291 1043 318 1068 q 264 988 264 1018 q 269 971 264 979 q 283 955 275 963 q 299 942 290 947 q 313 938 307 938 q 337 945 322 938 q 364 965 351 953 q 385 992 376 978 q 394 1022 394 1007 q 383 1053 394 1038 q 351 1068 372 1068 m 599 1068 q 538 1043 565 1068 q 511 988 511 1018 q 517 971 511 979 q 530 955 522 963 q 546 942 538 947 q 560 938 554 938 q 584 945 569 938 q 611 965 599 953 q 633 992 624 978 q 642 1022 642 1007 q 631 1053 642 1038 q 599 1068 619 1068 z "},"Ù":{"ha":1135,"x_min":6,"x_max":1189,"o":"m 240 1026 q 315 1134 293 1079 q 338 1263 338 1189 q 458 1199 400 1226 q 569 1150 515 1172 q 672 1108 622 1128 q 768 1068 721 1089 l 865 957 q 841 925 851 940 q 821 896 831 910 l 879 910 l 917 838 l 982 731 l 1108 494 q 1090 487 1108 494 q 1046 469 1071 479 q 994 448 1021 458 q 949 432 967 438 q 958 372 954 404 q 967 304 963 340 q 1174 -144 975 239 l 1189 -190 l 1139 -274 q 1077 -291 1115 -278 q 986 -324 1039 -304 l 985 -322 q 908 -353 933 -343 q 869 -369 882 -364 q 849 -377 856 -375 q 831 -383 843 -379 q 798 -397 813 -390 q 782 -401 783 -403 l 717 -292 q 624 -360 672 -337 q 508 -386 575 -383 l 503 -386 q 340 -342 457 -386 l 339 -340 q 176 -207 228 -293 l 96 -72 q 51 -3 68 -40 q 23 70 33 33 q 9 142 13 107 q 6 207 6 178 q 20 326 6 269 q 57 435 35 383 q 106 534 79 488 q 160 622 133 581 l 81 754 q 71 758 75 757 l 175 1003 l 313 953 l 240 1026 m 1022 -36 q 999 23 1013 -7 q 967 75 985 53 l 840 26 q 829 161 836 76 q 813 338 822 246 q 792 513 803 429 q 771 646 782 597 q 795 656 783 651 q 823 667 807 661 q 860 682 839 674 q 913 703 881 690 l 850 819 l 510 668 l 550 567 q 592 587 568 576 q 650 611 615 597 q 667 547 661 583 q 672 471 672 511 q 651 296 672 388 q 589 128 629 204 q 489 3 549 53 q 353 -46 429 -46 q 244 10 282 -46 q 199 150 206 65 l 199 171 q 217 306 199 229 q 272 469 235 383 q 363 643 308 554 q 492 815 418 732 l 214 915 l 163 797 q 235 767 199 782 q 310 736 272 751 q 242 623 282 682 q 165 499 201 564 q 101 361 128 433 q 75 208 75 289 q 80 131 75 175 q 106 41 85 86 q 167 -46 126 -4 q 282 -115 208 -87 q 351 -139 321 -132 q 406 -146 382 -146 q 491 -128 451 -146 q 567 -74 531 -111 q 638 22 603 -36 q 708 161 672 81 q 717 113 714 138 q 722 53 719 88 q 728 -27 725 19 q 736 -139 731 -74 q 756 -132 732 -139 l 800 -114 q 860 -92 828 -104 q 924 -68 893 -79 q 982 -48 956 -57 q 1022 -36 1008 -39 m 615 943 q 636 1003 626 982 q 657 1040 646 1024 q 588 1069 621 1056 q 524 1097 556 1083 q 461 1123 493 1110 q 393 1151 429 1136 q 385 1118 393 1140 q 365 1054 376 1096 q 431 1038 401 1049 q 490 1014 461 1028 q 549 982 518 1000 q 615 943 579 964 z "},"Ú":{"ha":1135,"x_min":6,"x_max":1174,"o":"m 1174 -144 l 1139 -274 l 782 -401 l 717 -292 q 624 -360 672 -337 q 508 -386 575 -383 q 422 -372 471 -386 q 325 -333 372 -357 q 238 -276 278 -308 q 176 -207 197 -243 l 96 -72 q 51 -3 68 -40 q 23 70 33 33 q 9 142 13 107 q 6 207 6 178 q 20 326 6 269 q 57 435 35 383 q 106 534 79 488 q 160 622 133 581 l 71 758 l 175 1003 l 360 936 q 301 1053 339 1004 q 508 1142 407 1097 q 704 1233 608 1186 l 801 1122 l 1108 494 q 1018 458 1056 474 q 949 432 981 443 q 958 372 954 404 q 967 304 963 340 q 1174 -144 975 240 m 1022 -36 q 999 23 1013 -7 q 967 75 985 53 l 840 26 q 829 161 836 76 q 813 338 822 246 q 792 513 803 429 q 771 646 782 597 q 795 656 783 651 q 823 667 807 661 q 860 682 839 674 q 913 703 881 690 l 850 819 l 510 668 l 550 567 q 592 587 568 576 q 650 611 615 597 q 667 547 661 583 q 672 471 672 511 q 651 296 672 388 q 589 128 629 204 q 489 3 549 53 q 353 -46 429 -46 q 244 10 282 -46 q 199 150 206 65 l 199 171 q 239 384 199 260 q 363 643 279 508 q 422 729 390 688 q 490 814 454 771 l 488 817 l 214 915 l 163 797 q 235 767 199 782 q 310 736 272 751 q 242 623 282 682 q 165 499 201 564 q 101 361 128 433 q 75 208 75 289 q 80 131 75 175 q 106 41 85 86 q 167 -46 126 -4 q 282 -115 208 -87 q 351 -139 321 -132 q 406 -146 382 -146 q 491 -128 451 -146 q 567 -74 531 -111 q 638 22 603 -36 q 708 161 672 79 q 717 113 714 138 q 722 53 719 88 q 728 -27 725 19 q 736 -139 731 -74 q 813 -110 782 -121 q 860 -92 844 -99 q 892 -79 876 -85 q 924 -68 908 -74 q 982 -48 956 -57 q 1022 -36 1008 -39 m 440 928 q 690 1039 565 1015 q 649 1136 667 1079 q 523 1074 585 1101 q 399 1025 461 1047 q 440 928 426 985 z "},"Û":{"ha":1135,"x_min":6,"x_max":1174,"o":"m 717 -292 q 624 -360 672 -337 q 508 -386 575 -383 q 421 -372 469 -386 q 325 -332 372 -357 q 238 -274 278 -307 q 176 -207 197 -242 q 85 -60 119 -124 q 34 53 51 4 q 11 140 17 103 q 6 207 6 178 q 20 326 6 269 q 57 435 35 383 q 106 534 79 488 q 160 622 133 581 l 81 754 q 71 758 75 757 l 175 1003 l 288 963 l 225 1054 q 402 1144 321 1096 q 558 1235 483 1193 q 668 1150 590 1193 q 864 1054 746 1107 l 961 943 q 929 909 946 928 q 897 875 913 890 l 1108 494 q 1090 487 1108 494 q 1046 469 1071 479 q 994 448 1021 458 q 949 432 967 438 q 979 277 956 354 q 1035 126 1003 200 q 1103 -16 1067 53 q 1174 -144 1140 -85 l 1139 -274 q 1006 -323 1057 -304 q 922 -353 954 -342 q 874 -371 890 -365 q 844 -381 857 -376 q 819 -389 832 -385 q 782 -401 806 -393 l 717 -292 m 1022 -36 q 999 23 1013 -7 q 967 75 985 53 l 840 26 q 829 161 836 76 q 813 338 822 246 q 792 513 803 429 q 771 646 782 597 q 795 656 783 651 q 823 667 807 661 q 860 682 839 674 q 913 703 881 690 l 850 819 l 510 668 l 550 567 q 592 587 568 576 q 650 611 615 597 q 667 547 661 583 q 672 471 672 511 q 651 296 672 388 q 589 128 629 204 q 489 3 549 53 q 353 -46 429 -46 q 240 10 282 -46 q 199 150 199 65 q 217 298 199 217 q 272 466 235 379 q 363 642 308 553 q 492 815 418 732 l 214 915 l 163 797 q 235 767 199 782 q 310 736 272 751 q 242 623 282 682 q 165 499 201 564 q 101 361 128 433 q 75 208 75 289 q 80 131 75 175 q 106 41 85 86 q 167 -46 126 -4 q 282 -115 208 -87 q 351 -139 321 -132 q 406 -146 382 -146 q 491 -128 451 -146 q 567 -74 531 -111 q 638 22 603 -36 q 708 161 672 79 q 717 113 714 138 q 722 53 719 88 q 728 -27 725 19 q 736 -139 731 -74 q 803 -112 761 -129 q 888 -80 844 -96 q 968 -51 931 -64 q 1022 -36 1006 -39 m 683 957 l 753 1026 q 650 1089 700 1058 q 558 1151 600 1119 q 454 1096 506 1119 q 350 1040 403 1072 q 371 995 361 1008 q 392 971 381 982 l 406 957 q 445 983 426 972 q 481 1005 464 994 q 513 1027 497 1015 q 544 1054 529 1039 q 609 1000 576 1022 q 683 957 642 978 z "},"Ü":{"ha":1135,"x_min":6,"x_max":1189,"o":"m 424 1217 q 453 1213 440 1217 q 476 1201 465 1210 q 499 1175 486 1192 q 528 1133 511 1158 q 584 1192 547 1168 q 671 1217 621 1217 q 719 1199 690 1217 q 776 1150 749 1181 q 822 1081 803 1119 q 842 1000 842 1042 q 822 940 842 971 q 774 885 801 908 l 879 910 l 917 838 l 982 731 l 1108 494 q 1090 487 1108 494 q 1046 469 1071 479 q 994 448 1021 458 q 949 432 967 438 q 958 372 954 404 q 967 304 963 340 q 1174 -144 975 240 l 1189 -190 l 1139 -274 q 1077 -291 1115 -278 q 986 -324 1039 -304 l 985 -322 q 908 -353 933 -343 q 869 -369 882 -364 q 849 -377 856 -375 q 831 -383 843 -379 q 798 -397 813 -390 q 782 -401 783 -403 l 717 -292 q 624 -360 672 -337 q 508 -386 575 -383 l 503 -386 q 340 -342 458 -386 l 339 -340 q 176 -207 228 -293 l 96 -72 q 51 -3 68 -40 q 23 70 33 33 q 9 142 13 107 q 6 207 6 178 q 20 326 6 269 q 57 435 35 383 q 106 534 79 488 q 160 622 133 581 l 81 754 q 71 758 76 756 l 175 1003 l 308 954 q 274 1014 288 983 q 260 1069 260 1044 q 274 1124 260 1097 q 310 1171 288 1150 q 363 1204 333 1192 q 424 1217 392 1217 m 1022 -36 q 999 23 1013 -7 q 967 75 985 53 l 840 26 q 829 161 836 76 q 813 338 822 246 q 792 513 803 429 q 771 646 782 597 q 795 656 783 651 q 823 667 807 661 q 860 682 839 674 q 913 703 881 690 l 850 819 l 510 668 l 550 567 q 592 587 568 576 q 650 611 615 597 q 667 547 661 583 q 672 471 672 511 q 651 296 672 388 q 589 128 629 204 q 489 3 549 53 q 353 -46 429 -46 q 244 10 282 -46 q 199 150 206 65 l 199 171 q 217 306 199 229 q 272 469 235 383 q 363 643 308 554 q 492 815 418 732 l 214 915 l 163 797 q 235 767 199 782 q 310 736 272 751 q 242 623 282 682 q 165 499 201 564 q 101 361 128 433 q 75 208 75 289 q 80 131 75 175 q 106 41 85 86 q 167 -46 126 -4 q 282 -115 208 -87 q 351 -139 321 -132 q 406 -146 382 -146 q 491 -128 451 -146 q 567 -74 531 -111 q 638 22 603 -36 q 708 161 672 79 q 717 113 714 138 q 722 53 719 88 q 728 -27 725 19 q 736 -139 731 -74 q 756 -132 731 -139 l 800 -114 q 860 -92 828 -104 q 924 -68 893 -79 q 982 -48 956 -57 q 1022 -36 1008 -39 m 664 1147 q 603 1122 631 1147 q 576 1067 576 1097 q 582 1050 576 1058 q 595 1034 588 1042 q 611 1022 603 1026 q 625 1017 619 1017 q 649 1024 635 1017 q 676 1044 664 1032 q 698 1072 689 1057 q 707 1101 707 1086 q 696 1132 707 1117 q 664 1147 685 1147 m 417 1147 q 356 1122 383 1147 q 329 1067 329 1097 q 335 1050 329 1058 q 348 1034 340 1042 q 364 1022 356 1026 q 378 1017 372 1017 q 402 1024 388 1017 q 429 1044 417 1032 q 451 1072 442 1057 q 460 1101 460 1086 q 449 1132 460 1117 q 417 1147 438 1147 m 610 847 l 653 857 q 619 887 638 867 q 578 947 601 907 q 552 912 567 929 q 518 879 538 894 l 610 847 z "}}}
